# Blender 5.1.0
# www.blender.org
o QuarterRoofEndSecondGeometry
v 0.000000 0.250000 1.000000
v 1.000000 0.250000 1.000000
v 0.000000 0.250000 0.000000
v 1.000000 0.250000 0.000000
v 0.500000 0.375000 0.500000
v 1.000000 0.375000 0.500000
v 0.000000 0.000000 0.000000
v 0.000000 0.000000 1.000000
v 1.000000 0.000000 1.000000
v 1.000000 0.000000 0.000000
vn 1.0000 -0.0000 -0.0000
vn -0.2425 0.9701 -0.0000
vn -0.0000 0.9701 -0.2425
vn -0.0000 0.9701 0.2425
vn -0.0000 -1.0000 -0.0000
vn -1.0000 -0.0000 -0.0000
vn -0.0000 -0.0000 -1.0000
vn -0.0000 -0.0000 1.0000
vt 1.000000 0.750000
vt 0.000000 0.750000
vt 0.000000 1.000000
vt 1.000000 1.000000
vt 1.000000 1.000000
vt 0.500000 0.500000
vt 0.500000 0.625000
vt 0.000000 0.500000
vt 0.500000 0.500000
vt 0.000000 1.000000
vt 1.000000 0.500000
vt 0.000000 0.000000
vt 1.000000 0.000000
vt 0.000000 0.750000
s 0
f 4/1/1 2/2/1 9/3/1 10/4/1
f 3/3/2 1/5/2 5/6/2
f 2/2/1 4/1/1 6/7/1
f 3/4/3 5/6/3 6/8/3 4/3/3
f 5/9/4 1/10/4 2/5/4 6/11/4
f 8/12/5 7/3/5 10/4/5 9/13/5
f 1/1/6 3/2/6 7/3/6 8/4/6
f 3/1/7 4/2/7 10/3/7 7/4/7
f 2/1/8 1/14/8 8/10/8 9/4/8
