# Generated from CEAC Java geometry.
# Geometry: QuarterSlopeSecondGeometry
o QuarterSlopeSecondGeometry

v 1 0.25 -0
v 1 -0 -0
v 0 -0 -0
v 0 0.25 -0
v 1 0.5 1
v 1 0.5 -0
v 0 0.25 -0
v 0 0.25 1
v 0 0.25 1
v 1 0.25 1
v 1 0.5 1
v 1 0.5 -0
v 1 0.5 1
v 1 0.25 1
v 1 0.25 -0
v 1 0.5 -0
v 0 0 1
v 1 0 1
v 1 0 1
v 1 -0 -0
v 0 0.25 -0
v 0 -0 -0
v 0 0 1
v 0 0.25 1
v 0 0 1
v 1 0 1

vt 0 0.75
vt 0 1
vt 1 1
vt 1 0.75
vt 1 0
vt 0 0
vt 0 1
vt 1 1
vt 0 0.75
vt 1 0.75
vt 1 0.5
vt 0 0.5
vt 0 0.5
vt 0 0.75
vt 1 0.75
vt 1 0.5
vt 0 1
vt 1 1
vt 0 1
vt 1 1
vt 0 0.75
vt 0 1
vt 1 1
vt 1 0.75
vt 0 0
vt 1 0

f 1/1 2/2 3/3 4/4

f 5/5 6/6 7/7 8/8

f 9/9 10/10 11/11

f 4/4 12/12 1/1

f 13/13 14/14 15/15 16/16

f 9/9 17/17 18/18 10/10

f 14/14 19/19 20/20 15/15

f 21/21 22/22 23/23 24/24

f 25/25 22/22 20/20 26/26

