# Blender 5.1.0
# www.blender.org
o EightSphereGeometry
v 0.000000 0.000000 0.000000
v 0.064586 0.000000 0.353553
v 0.064586 0.353553 0.000000
v 0.122029 0.338502 0.338502
v 0.292893 0.000000 0.707107
v 0.646447 0.000000 0.935414
v 1.000000 0.000000 1.000000
v 0.322997 0.288675 0.677003
v 0.661498 0.338502 0.877971
v 1.000000 0.353553 0.935414
v 1.000000 1.000000 0.000000
v 0.646447 0.935414 0.000000
v 0.292893 0.707107 0.000000
v 1.000000 0.935414 0.353553
v 0.661498 0.877971 0.338502
v 0.322997 0.677003 0.288675
v 1.000000 0.707107 0.707107
v 0.711325 0.677003 0.677003
v 0.422650 0.577350 0.577350
v 1.000000 0.000000 0.000000
vn -0.9690 0.1747 0.1747
vn -0.8346 0.1546 0.5288
vn -0.8346 0.5288 0.1546
vn -0.7470 0.4701 0.4701
vn -0.5288 0.1546 0.8346
vn -0.1747 0.1747 0.9690
vn -0.4701 0.4701 0.7470
vn -0.1546 0.5288 0.8346
vn -0.1747 0.9690 0.1747
vn -0.5288 0.8346 0.1546
vn -0.1546 0.8346 0.5288
vn -0.4701 0.7470 0.4701
vn -0.0000 -0.0000 -1.0000
vn 1.0000 -0.0000 -0.0000
vn -0.0000 -1.0000 -0.0000
vt -0.000000 1.000000
vt 0.353553 1.000000
vt 0.338502 0.661498
vt -0.000000 0.646447
vt 0.707107 1.000000
vt 0.677003 0.711325
vt 0.288675 0.322997
vt -0.000000 0.292893
vt 0.577350 0.422650
vt 0.292893 1.000000
vt 0.646447 1.000000
vt 0.661498 0.661498
vt 0.322997 0.711325
vt 1.000000 1.000000
vt 1.000000 0.646447
vt 0.711325 0.322997
vt 0.422650 0.422650
vt 1.000000 0.292893
vt 1.000000 0.000000
vt 0.646447 0.000000
vt 0.661499 0.338502
vt 1.000000 0.353554
vt 0.292894 -0.000000
vt 0.322997 0.288675
vt 0.711325 0.677003
vt 1.000000 0.707107
vt 0.422650 0.577350
vt 0.000000 0.000000
vt 0.000000 1.000000
vt 0.707107 0.292893
vt 0.353554 0.064586
vt 1.000000 1.000000
vt 0.935415 0.646447
vt 1.000000 0.000000
vt 0.646447 0.064586
vt 0.292893 0.292893
vt 0.000000 1.000000
vt 0.064586 0.646447
vt 0.292893 0.292893
vt 1.000000 1.000000
vt 1.000000 -0.000000
vt 0.646447 0.064585
vt -0.000000 0.999999
vt 0.064586 0.646446
s 0
f 1/1/1 2/2/1 4/3/1 3/4/1
f 2/2/2 5/5/2 8/6/2 4/3/2
f 3/4/3 4/3/3 16/7/3 13/8/3
f 4/3/4 8/6/4 19/9/4 16/7/4
f 5/10/5 6/11/5 9/12/5 8/13/5
f 6/11/6 7/14/6 10/15/6 9/12/6
f 8/13/7 9/12/7 18/16/7 19/17/7
f 9/12/8 10/15/8 17/18/8 18/16/8
f 11/19/9 12/20/9 15/21/9 14/22/9
f 12/20/10 13/23/10 16/24/10 15/21/10
f 14/22/11 15/21/11 18/25/11 17/26/11
f 15/21/12 16/24/12 19/27/12 18/25/12
f 11/28/13 20/29/13 13/30/13 12/31/13
f 1/32/13 3/33/13 13/30/13 20/29/13
f 11/34/14 14/35/14 17/36/14 20/14/14
f 7/37/14 20/14/14 17/36/14 10/38/14
f 5/39/15 20/40/15 7/41/15 6/42/15
f 1/43/15 20/40/15 5/39/15 2/44/15
