# Blender 5.1.0
# www.blender.org
o QuarterArchInnerGeometry
v 0.000000 0.000000 0.000000
v 0.382684 0.076121 1.000000
v 0.707107 0.292893 1.000000
v 0.923880 0.617317 1.000000
v 1.000000 1.000000 1.000000
v 1.000000 1.000000 0.000000
v 1.000000 0.000000 1.000000
v 0.000000 0.000000 1.000000
v 1.000000 0.500000 1.000000
v 1.000000 0.000000 0.000000
v 0.500000 0.000000 0.000000
v 0.500000 0.000000 1.000000
v 0.353554 0.076121 0.853553
v 0.653282 0.292893 0.729402
v 0.853553 0.617317 0.646447
v 0.923880 1.000000 0.617316
v 0.270598 0.076121 0.729402
v 0.500000 0.292893 0.500000
v 0.653282 0.617317 0.346719
v 0.707107 1.000000 0.292893
v 0.146447 0.076121 0.646446
v 0.270598 0.292893 0.346718
v 0.353554 0.617317 0.146447
v 0.382683 1.000000 0.076120
v 0.000000 0.076121 0.617316
v 0.000000 0.292893 0.292893
v 0.000000 0.617317 0.076120
v 1.000000 1.000000 0.500000
v 0.000000 0.000000 0.500000
v 1.000000 0.000000 0.500000
v 1.000000 0.500000 0.500000
v 0.500000 0.000000 0.500000
v 0.000000 1.000000 -0.000000
v 0.500000 1.000000 0.000000
v 0.500000 0.500000 0.000000
v 0.000000 0.500000 -0.000000
v 1.000000 0.500000 0.000000
vn -0.0000 -0.0000 1.0000
vn -0.0000 -1.0000 -0.0000
vn 1.0000 -0.0000 -0.0000
vn -0.8203 0.5481 0.1632
vn -0.9626 0.1915 0.1915
vn -0.5522 0.8264 0.1098
vn -0.1949 0.9800 0.0388
vn -0.1653 0.9800 0.1104
vn -0.6954 0.5481 0.4647
vn -0.8161 0.1915 0.5453
vn -0.4681 0.8264 0.3128
vn -0.1104 0.9800 0.1653
vn -0.4647 0.5481 0.6954
vn -0.5453 0.1915 0.8161
vn -0.3128 0.8264 0.4681
vn -0.0388 0.9800 0.1949
vn -0.1632 0.5481 0.8203
vn -0.1915 0.1915 0.9626
vn -0.1098 0.8264 0.5522
vn -0.0000 -0.0000 -1.0000
vn -0.0000 1.0000 -0.0000
vn -1.0000 -0.0000 -0.0000
vt 0.382684 0.923880
vt 0.000000 1.000000
vt 0.500000 1.000000
vt -0.000000 0.499999
vt -0.000000 0.999999
vt 0.500000 1.000000
vt 0.500000 0.500000
vt 1.000000 1.000000
vt 1.000000 0.500000
vt 0.500000 0.000000
vt 0.000000 0.000000
vt 0.000000 0.500000
vt 0.500000 0.500000
vt 0.707107 0.707107
vt 1.000000 1.000000
vt 0.000000 1.000000
vt 1.000000 0.500000
vt 0.923880 0.382683
vt 1.000000 0.000000
vt 1.000000 0.382684
vt 0.646447 0.382684
vt 0.729402 0.707107
vt 1.000000 0.707107
vt 1.000000 0.000000
vt 0.617316 0.000000
vt 0.707106 1.000000
vt 0.653281 0.729402
vt 0.353553 0.853553
vt 0.382683 1.000000
vt -0.000000 1.000000
vt 0.270598 0.729402
vt 0.346718 0.382684
vt 0.500000 0.707107
vt 0.292893 0.000000
vt 0.146447 0.646446
vt 0.653282 0.382684
vt 0.353554 0.382684
vt 0.270598 0.707107
vt 0.500000 0.707107
vt 0.707107 0.000000
vt 0.382683 0.000000
vt 0.270598 0.346718
vt -0.000000 0.617316
vt 0.000000 0.382684
vt 0.000000 0.707107
vt 0.000000 0.000000
vt 0.000000 0.292893
vt 0.500000 -0.000000
vt 1.000000 -0.000000
vt 0.000000 -0.000001
vt 0.500000 0.500000
vt 0.500000 0.000000
vt 0.000000 0.000000
vt 0.000000 0.500000
vt 1.000000 0.500000
vt 1.000000 0.000000
vt 0.000000 -0.000000
vt 0.382684 0.076120
vt 0.500000 0.000000
vt 0.707107 0.292893
vt 1.000000 0.000000
vt 0.923879 0.617317
vt 1.000000 0.500000
vt 1.000000 1.000000
vt 1.000000 1.000000
vt 0.617316 0.923880
vt 0.500000 1.000000
vt 0.292893 0.707107
vt -0.000000 1.000000
vt 1.000000 1.000000
vt 0.500000 1.000000
vt 0.000000 1.000000
vt 0.076120 0.382684
vt -0.000000 0.500000
vt -0.000000 0.000000
s 0
f 2/1/1 8/2/1 12/3/1
f 29/4/2 1/5/2 11/6/2 32/7/2
f 32/7/2 11/6/2 10/8/2 30/9/2
f 28/10/3 5/11/3 9/12/3 31/13/3
f 3/14/1 2/1/1 12/3/1 7/15/1
f 31/13/3 9/12/3 7/16/3 30/3/3
f 3/14/1 7/15/1 9/17/1 4/18/1
f 5/19/1 4/18/1 9/17/1
f 4/20/4 15/21/4 14/22/4 3/23/4
f 5/24/5 16/25/5 15/21/5 4/20/5
f 3/26/6 14/27/6 13/28/6 2/29/6
f 2/29/7 13/28/7 8/30/7
f 13/28/8 17/31/8 8/30/8
f 15/21/9 19/32/9 18/33/9 14/22/9
f 16/25/10 20/34/10 19/32/10 15/21/10
f 14/27/11 18/13/11 17/31/11 13/28/11
f 17/31/12 21/35/12 8/30/12
f 19/36/13 23/37/13 22/38/13 18/39/13
f 20/40/14 24/41/14 23/37/14 19/36/14
f 18/13/15 22/42/15 21/35/15 17/31/15
f 21/35/16 25/43/16 8/30/16
f 23/37/17 27/44/17 26/45/17 22/38/17
f 24/41/18 33/46/18 27/44/18 23/37/18
f 22/42/19 26/47/19 25/43/19 21/35/19
f 37/17/3 31/13/3 30/3/3 10/15/3
f 6/19/3 28/10/3 31/13/3 37/17/3
f 12/48/2 32/7/2 30/9/2 7/49/2
f 8/50/2 29/4/2 32/7/2 12/48/2
f 35/51/20 34/52/20 6/53/20 37/54/20
f 36/55/20 33/56/20 34/52/20 35/51/20
f 33/57/21 24/58/21 34/59/21
f 24/58/21 20/60/21 6/61/21 34/59/21
f 16/62/21 28/63/21 6/61/21 20/60/21
f 28/63/21 16/62/21 5/64/21
f 8/65/22 25/66/22 29/67/22
f 25/66/22 26/68/22 1/69/22 29/67/22
f 1/70/20 36/55/20 35/51/20 11/71/20
f 11/71/20 35/51/20 37/54/20 10/72/20
f 26/68/22 27/73/22 36/74/22 1/69/22
f 36/74/22 27/73/22 33/75/22
