# Blender 5.1.0
# www.blender.org
o QuarterArchOuterGeometry
v 1.000000 0.500000 0.000000
v 0.000000 0.000000 0.000000
v 0.382683 0.076120 0.000000
v 0.707107 0.292893 0.000000
v 0.923879 0.617317 0.000000
v 1.000000 1.000000 0.000000
v 1.000000 0.000000 0.000000
v 0.500000 0.000000 0.000000
v 1.000000 0.500000 0.000000
v 0.076120 0.000000 0.382683
v 0.429674 0.076120 0.236237
v 0.729402 0.292893 0.112085
v 0.929674 0.617317 0.029130
v 1.000000 1.000000 0.000000
v 1.000000 0.000000 0.000000
v 0.538060 0.000000 0.191342
v 1.000000 0.500000 0.000000
v 0.292893 0.000000 0.707107
v 0.563491 0.076120 0.436509
v 0.792893 0.292893 0.207107
v 0.946175 0.617317 0.053825
v 1.000000 1.000000 0.000000
v 1.000000 0.000000 0.000000
v 0.646447 0.000000 0.353553
v 1.000000 0.500000 0.000000
v 0.617316 0.000000 0.923880
v 0.763763 0.076120 0.570326
v 0.887915 0.292893 0.270598
v 0.970870 0.617317 0.070326
v 1.000000 1.000000 0.000000
v 1.000000 0.000000 0.000000
v 0.808658 0.000000 0.461940
v 1.000000 0.500000 0.000000
v 1.000000 0.000000 1.000000
v 1.000000 0.076120 0.617317
v 1.000000 0.292893 0.292893
v 1.000000 0.617317 0.076121
v 1.000000 1.000000 0.000000
v 1.000000 0.000000 0.000000
v 1.000000 0.000000 0.500000
vn -0.0000 -0.0000 -1.0000
vn 1.0000 -0.0000 -0.0000
vn -0.4681 0.8264 0.3128
vn -0.8161 0.1915 0.5453
vn -0.9626 0.1915 0.1915
vn -0.5522 0.8264 0.1098
vn -0.0000 -1.0000 -0.0000
vn -0.8203 0.5481 0.1632
vn -0.1949 0.9800 0.0388
vn -0.1104 0.9800 0.1653
vn -0.4647 0.5481 0.6954
vn -0.6954 0.5481 0.4647
vn -0.1653 0.9800 0.1104
vn 0.4472 -0.0000 -0.8944
vn -0.1098 0.8264 0.5522
vn -0.1915 0.1915 0.9626
vn -0.5453 0.1915 0.8161
vn -0.3128 0.8264 0.4681
vn 0.6000 -0.0000 -0.8000
vn -0.1632 0.5481 0.8203
vn -0.0388 0.9800 0.1949
vt 1.000000 1.000000
vt 0.617317 0.923880
vt 0.500000 1.000000
vt 0.292893 0.707107
vt 0.000000 1.000000
vt 0.076121 0.382684
vt 0.000000 0.500000
vt 0.000000 0.000000
vt -0.000000 1.000000
vt 0.500000 0.500000
vt 0.429674 0.236237
vt 0.563491 0.436509
vt 0.792893 0.207107
vt 0.729402 0.112086
vt 0.029130 0.382684
vt 0.053825 0.382684
vt 0.000000 0.000000
vt -0.000000 0.000000
vt 1.000000 0.000000
vt -0.000000 0.382684
vt -0.000000 0.000000
vt 0.382684 0.000000
vt 0.707107 0.000000
vt 1.000000 1.000000
vt 0.538060 0.808658
vt 0.500000 1.000000
vt 0.076120 0.617316
vt -0.000000 0.999999
vt -0.000000 0.707107
vt 0.112085 0.707107
vt 0.000000 -0.000000
vt 0.076120 0.382683
vt 0.292893 0.707107
vt 0.617316 0.923880
vt 0.763763 0.570326
vt 0.792893 0.707107
vt 0.887915 0.707107
vt 0.970870 0.382684
vt 0.946175 0.382684
vt 0.646446 0.646446
vt 0.808658 0.538060
vt 0.617317 0.076120
vt 0.292893 0.292893
vt 0.207107 0.707107
vt 1.000000 0.500000
vt 1.000000 0.617317
vt 1.000000 0.292894
vt 0.887915 0.270598
vt 1.000000 0.382684
vt 1.000000 0.000000
vt 1.000000 0.000000
vt 1.000000 0.000000
vt -0.000000 1.000000
vt 0.500000 1.000000
vt 0.382683 0.923880
vt 1.000000 1.000000
vt 0.707107 0.707107
vt 1.000000 0.500000
vt 0.923879 0.382683
vt 1.000000 0.000000
vt 1.000000 -0.000000
vt 1.000000 0.707107
vt 1.000000 1.000000
s 0
f 2/1/1 3/2/1 8/3/1
f 3/2/1 4/4/1 7/5/1 8/3/1
f 4/4/1 5/6/1 1/7/1 7/5/1
f 1/7/1 5/6/1 6/8/1
f 14/9/2 22/9/2 17/10/2 9/10/2
f 11/11/3 19/12/3 20/13/3 12/14/3
f 13/15/4 21/16/4 22/17/4 14/18/4
f 9/10/2 17/10/2 23/19/2 15/19/2
f 1/10/2 9/10/2 15/19/2 7/19/2
f 5/20/5 13/15/5 14/18/5 6/21/5
f 3/22/6 11/11/6 12/14/6 4/23/6
f 6/9/2 14/9/2 9/10/2 1/10/2
f 7/24/7 15/24/7 16/25/7 8/26/7
f 8/26/7 16/25/7 10/27/7 2/28/7
f 4/29/8 12/30/8 13/15/8 5/20/8
f 2/31/9 10/32/9 11/11/9 3/22/9
f 18/33/10 26/34/10 27/35/10 19/12/10
f 20/36/11 28/37/11 29/38/11 21/39/11
f 24/40/7 32/41/7 26/42/7 18/43/7
f 23/24/7 31/24/7 32/41/7 24/40/7
f 15/24/7 23/24/7 24/40/7 16/25/7
f 16/25/7 24/40/7 18/43/7 10/27/7
f 12/30/12 20/44/12 21/16/12 13/15/12
f 10/32/13 18/33/13 19/12/13 11/11/13
f 31/24/7 39/24/7 40/45/7 32/41/7
f 30/9/14 38/9/14 33/10/14 25/10/14
f 27/35/15 35/46/15 36/47/15 28/48/15
f 29/38/16 37/49/16 38/50/16 30/51/16
f 17/10/2 25/10/2 31/19/2 23/19/2
f 21/39/17 29/38/17 30/51/17 22/52/17
f 19/12/18 27/35/18 28/48/18 20/13/18
f 22/9/19 30/9/19 25/10/19 17/10/19
f 34/53/2 40/54/2 35/55/2
f 35/55/2 40/54/2 39/56/2 36/57/2
f 36/57/2 39/56/2 33/58/2 37/59/2
f 33/58/2 38/60/2 37/59/2
f 32/41/7 40/45/7 34/61/7 26/42/7
f 28/37/20 36/62/20 37/49/20 29/38/20
f 26/34/21 34/63/21 35/46/21 27/35/21
f 25/10/2 33/10/2 39/19/2 31/19/2
