# Blender 5.1.0
# www.blender.org
o QuarterCylinderGeometry
v 1.000000 0.000000 1.000000
v 1.000000 1.000000 1.000000
v 0.617317 0.000000 0.923880
v 0.617317 1.000000 0.923880
v 0.292893 0.000000 0.707107
v 0.292893 1.000000 0.707107
v 0.076120 0.000000 0.382683
v 0.076120 1.000000 0.382683
v 0.000000 0.000000 0.000000
v 0.000000 1.000000 0.000000
v 1.000000 0.000000 0.000000
v 1.000000 1.000000 0.000000
vn -0.1951 -0.0000 0.9808
vn -0.5556 -0.0000 0.8315
vn -0.8315 -0.0000 0.5556
vn -0.9808 -0.0000 0.1951
vn 1.0000 -0.0000 -0.0000
vn -0.0000 -1.0000 -0.0000
vn -0.0000 1.0000 -0.0000
vn -0.0000 -0.0000 -1.0000
vt 1.000000 1.000000
vt 1.000000 0.000000
vt 0.617317 0.000000
vt 0.617317 1.000000
vt 0.292893 0.000000
vt 0.292893 1.000000
vt 0.707107 1.000000
vt 0.707107 0.000000
vt 0.382683 0.000000
vt 0.382683 1.000000
vt -0.000000 0.000000
vt -0.000000 1.000000
vt 0.000000 0.000000
vt 0.000000 1.000000
vt -0.000000 0.999999
vt 1.000000 1.000000
vt 0.292893 0.292893
vt 0.076120 0.617316
vt 0.292893 0.707107
vt 1.000000 0.000000
vt 0.000000 -0.000000
vt 0.076121 0.382683
vt 1.000000 -0.000000
vt 0.617317 0.076120
vt 1.000000 0.000000
vt 0.000000 0.000000
vt 0.000000 1.000000
vt 1.000000 1.000000
vt 1.000000 1.000000
vt 0.617316 0.923880
s 0
f 1/1/1 2/2/1 4/3/1 3/4/1
f 3/4/2 4/3/2 6/5/2 5/6/2
f 5/7/3 6/8/3 8/9/3 7/10/3
f 7/10/4 8/9/4 10/11/4 9/12/4
f 2/13/5 1/14/5 11/1/5 12/2/5
f 9/15/6 11/16/6 5/17/6 7/18/6
f 6/19/7 12/20/7 10/21/7 8/22/7
f 5/17/6 11/16/6 1/23/6 3/24/6
f 10/25/8 12/26/8 11/27/8 9/28/8
f 2/29/7 12/20/7 6/19/7 4/30/7
