# Blender 5.1.0
# www.blender.org
o QuarterArchGeometry
v 1.000000 0.500000 0.000000
v 0.000000 0.000000 0.000000
v 0.382684 0.076121 1.000000
v 0.382683 0.076120 0.000000
v 0.707107 0.292893 1.000000
v 0.707107 0.292893 0.000000
v 0.923880 0.617317 1.000000
v 0.923879 0.617317 0.000000
v 1.000000 1.000000 1.000000
v 1.000000 1.000000 0.000000
v 1.000000 0.000000 1.000000
v 0.000000 0.000000 1.000000
v 1.000000 0.500000 1.000000
v 1.000000 0.000000 0.000000
v 0.500000 0.000000 0.000000
v 0.500000 0.000000 1.000000
vn -0.1951 0.9808 -0.0000
vn -0.5556 0.8315 -0.0000
vn -0.8315 0.5556 -0.0000
vn -0.9808 0.1951 -0.0000
vn -0.0000 -0.0000 1.0000
vn -0.0000 -1.0000 -0.0000
vn 1.0000 -0.0000 -0.0000
vn -0.0000 -0.0000 -1.0000
vt -0.000000 1.000000
vt 0.382683 1.000000
vt 0.382684 0.000000
vt 0.000000 -0.000000
vt 0.707106 1.000000
vt 0.707107 0.000000
vt 1.000000 0.707107
vt 1.000000 0.382684
vt -0.000000 0.382684
vt -0.000000 0.707107
vt 1.000000 0.000000
vt -0.000000 0.000000
vt 0.382684 0.923880
vt 0.000000 1.000000
vt 0.500000 1.000000
vt 0.000000 -0.000001
vt -0.000000 0.999999
vt 0.500000 1.000000
vt 0.500000 -0.000000
vt 1.000000 1.000000
vt 1.000000 -0.000000
vt 1.000000 0.000000
vt 0.000000 0.000000
vt 0.000000 0.500000
vt 1.000000 0.500000
vt 0.707107 0.707107
vt 1.000000 1.000000
vt 0.000000 1.000000
vt 0.923880 0.382683
vt 1.000000 1.000000
vt 0.617317 0.923880
vt 0.500000 1.000000
vt 0.292893 0.707107
vt 0.000000 1.000000
vt 0.076121 0.382684
vt 0.000000 0.500000
vt 0.000000 0.000000
s 0
f 12/1/1 3/2/1 4/3/1 2/4/1
f 3/2/2 5/5/2 6/6/2 4/3/2
f 5/7/3 7/8/3 8/9/3 6/10/3
f 7/8/4 9/11/4 10/12/4 8/9/4
f 3/13/5 12/14/5 16/15/5
f 12/16/6 2/17/6 15/18/6 16/19/6
f 16/19/6 15/18/6 14/20/6 11/21/6
f 10/22/7 9/23/7 13/24/7 1/25/7
f 5/26/5 3/13/5 16/15/5 11/27/5
f 1/25/7 13/24/7 11/28/7 14/27/7
f 5/26/5 11/27/5 13/25/5 7/29/5
f 9/22/5 7/29/5 13/25/5
f 2/30/8 4/31/8 15/32/8
f 4/31/8 6/33/8 14/34/8 15/32/8
f 6/33/8 8/35/8 1/36/8 14/34/8
f 1/36/8 8/35/8 10/37/8
