# Generated from CEAC Java geometry.
# Geometry: ThirdSlopeFirstGeometry
o ThirdSlopeFirstGeometry

v 0 0 0
v 0 0 1
v 1 0 1
v 1 0 0
v 1 0.333333 -0
v 1 0.333333 1
v 1 0 1
v 0 0 1
v 1 0.333333 1
v 1 0.333333 -0
v 0 0 0
v 1 0.333333 -0
v 1 0 0
v 0 0 1
v 1 0 1
v 1 0.333333 1

vt 0 1
vt 0 0
vt 1 0
vt 1 1
vt 1 0.666667
vt -0 0.666667
vt 0 1
vt 1 1
vt 1 0
vt 0 0
vt 1 1
vt -0 0.666667
vt 0 1
vt 0 1
vt 1 1
vt 1 0.666667

f 1/1 2/2 3/3 4/4

f 4/4 5/5 6/6 7/7

f 1/1 8/8 9/9 10/10

f 11/11 12/12 13/13

f 14/14 15/15 16/16

