# Blender 5.0.0
# www.blender.org
o ThirdPyramidFirstGeometry
v 0.000000 0.000000 1.000000
v 1.000000 0.000000 1.000000
v 0.000000 0.000000 0.000000
v 1.000000 0.000000 0.000000
v 0.500000 0.166667 0.500000
vn -0.0000 -1.0000 -0.0000
vn -0.3162 0.9487 -0.0000
vn 0.3162 0.9487 -0.0000
vn -0.0000 0.9487 -0.3162
vn -0.0000 0.9487 0.3162
vt 0.000000 0.000000
vt 0.000000 1.000000
vt 1.000000 1.000000
vt 1.000000 0.000000
vt 1.000000 1.000000
vt 0.500000 0.500000
vt 0.500000 0.500000
vt 0.000000 1.000000
s 0
f 1/1/1 3/2/1 4/3/1 2/4/1
f 3/2/2 1/5/2 5/6/2
f 2/2/3 4/5/3 5/6/3
f 3/3/4 5/6/4 4/2/4
f 5/7/5 1/8/5 2/5/5
