# Generated from CEAC Java geometry.
# Geometry: ThirdSlopeThirdGeometry
o ThirdSlopeThirdGeometry

v 1 0.666667 -0
v 1 0.333333 -0
v 0 0.333333 -0
v 0 0.666667 -0
v 1 0.666667 -0
v 1 1 -0
v 1 1 1
v 1 0.666667 1
v 0 0.666667 -0
v 0 0.666667 1
v 1 1 1
v 1 1 -0
v 0 0.666667 1
v 1 0.666667 1
v 1 0.333333 -0
v 1 0.333333 1
v 1 0 1
v 1 0 0
v 0 0.666667 -0
v 0 0.333333 -0
v 0 0.333333 1
v 0 0.666667 1
v 0 0.333333 1
v 1 0.333333 1
v 0 0 0
v 1 0 1
v 0 0 1
v 0 0 1
v 0 0 1
v 1 0 1
v 1 0 0
v 0 0 0

vt 0 0.333333
vt 0 0.666667
vt 1 0.666667
vt 1 0.333333
vt 1 0.333333
vt 1 0
vt 0 0
vt 0 0.333333
vt 0 1
vt 1 1
vt 1 0
vt 0 0
vt 0 0.333333
vt 1 0.333333
vt 1 0.666667
vt 0 0.666667
vt 0 1
vt 1 1
vt 0 0.333333
vt 0 0.666667
vt 1 0.666667
vt 1 0.333333
vt 0 0.666667
vt 1 0.666667
vt 0 1
vt 1 0
vt 0 0
vt 1 1
vt 0 1
vt 1 1
vt 0 1
vt 1 1

f 1/1 2/2 3/3 4/4

f 5/5 6/6 7/7 8/8

f 9/9 10/10 11/11 12/12

f 4/4 12/12 1/1

f 13/13 14/14 11/11

f 15/15 16/16 17/17 18/18

f 8/8 16/16 15/15 5/5

f 19/19 20/20 21/21 22/22

f 13/13 23/23 24/24 14/14

f 25/25 18/18 26/26 27/27

f 21/21 20/20 25/25 28/28

f 24/24 23/23 29/29 30/30

f 3/3 2/2 31/31 32/32

