# Generated from CEAC Java geometry.
# Geometry: QuarterSlopeFourthGeometry
o QuarterSlopeFourthGeometry

v 1 0.75 -0
v 1 0.5 -0
v 0 0.5 -0
v 0 0.75 -0
v 1 1 1
v 1 1 -0
v 0 0.75 -0
v 0 0.75 1
v 0 0.75 1
v 1 0.75 1
v 1 1 1
v 1 0.75 1
v 1 0.75 -0
v 1 1 -0
v 1 0.5 -0
v 1 0.5 1
v 1 0.25 1
v 1 0.25 0
v 0 0.5 1
v 1 0.5 1
v 0 0.75 -0
v 0 0.5 -0
v 0 0.5 1
v 0 0.75 1
v 1 0 1
v 1 0 0
v 0 0.25 0
v 0 0.25 1
v 1 0.25 0
v 0 0.25 0
v 0 0.25 1
v 1 0.25 1
v 0 0 1
v 0 0 0
v 1 0 1
v 1 0 0
v 0 0 0
v 0 0 1
v 1 0 1
v 0 0 1

vt 0 0.25
vt 0 0.5
vt 1 0.5
vt 1 0.25
vt 1 0
vt 0 0
vt 0 1
vt 1 1
vt 0 0.25
vt 1 0.25
vt 0 0
vt 0 0.25
vt 1 0.25
vt 1 0
vt 1 0.5
vt 0 0.5
vt 0 0.75
vt 1 0.75
vt 0 0.5
vt 1 0.5
vt 0 0.25
vt 0 0.5
vt 1 0.5
vt 1 0.25
vt 0 1
vt 1 1
vt 0 0.75
vt 1 0.75
vt 0 0.75
vt 1 0.75
vt 0 0.75
vt 1 0.75
vt 0 0
vt 0 1
vt 1 0
vt 0 1
vt 1 1
vt 0 1
vt 1 1
vt 1 1

f 1/1 2/2 3/3 4/4

f 5/5 6/6 7/7 8/8

f 9/9 10/10 5/5

f 4/4 6/6 1/1

f 11/11 12/12 13/13 14/14

f 15/15 16/16 17/17 18/18

f 9/9 19/19 20/20 10/10

f 12/12 16/16 15/15 13/13

f 21/21 22/22 23/23 24/24

f 18/18 17/17 25/25 26/26

f 23/23 22/22 27/27 28/28

f 3/3 2/2 29/29 30/30

f 20/20 19/19 31/31 32/32

f 33/33 34/34 26/26 35/35

f 30/30 29/29 36/36 37/37

f 32/32 31/31 38/38 39/39

f 28/28 27/27 34/34 40/40

