# Blender 5.1.0
# www.blender.org
o QuarterRoofEndFourthGeometry
v 0.000000 0.750000 1.000000
v 1.000000 0.750000 1.000000
v 0.000000 0.750000 0.000000
v 1.000000 0.750000 0.000000
v 0.500000 0.875000 0.500000
v 1.000000 0.875000 0.500000
v 0.000000 0.500000 0.000000
v 0.000000 0.500000 1.000000
v 1.000000 0.500000 1.000000
v 1.000000 0.500000 0.000000
v 0.000000 0.250000 0.000000
v 0.000000 0.250000 1.000000
v 1.000000 0.250000 1.000000
v 1.000000 0.250000 0.000000
v 0.000000 0.000000 0.000000
v 0.000000 0.000000 1.000000
v 1.000000 0.000000 1.000000
v 1.000000 0.000000 0.000000
vn 1.0000 -0.0000 -0.0000
vn -0.2425 0.9701 -0.0000
vn -0.0000 0.9701 -0.2425
vn -0.0000 0.9701 0.2425
vn -1.0000 -0.0000 -0.0000
vn -0.0000 -0.0000 -1.0000
vn -0.0000 -0.0000 1.0000
vn -0.0000 -1.0000 -0.0000
vt 1.000000 0.250000
vt 0.000000 0.250000
vt 0.000000 0.500000
vt 1.000000 0.500000
vt 0.000000 1.000000
vt 1.000000 1.000000
vt 0.500000 0.500000
vt 0.500000 0.125000
vt 1.000000 1.000000
vt 0.500000 0.500000
vt 0.000000 1.000000
vt 1.000000 0.500000
vt 0.000000 0.750000
vt 1.000000 0.750000
vt 0.000000 0.500000
vt 0.000000 0.000000
vt 1.000000 0.000000
s 0
f 4/1/1 2/2/1 9/3/1 10/4/1
f 3/5/2 1/6/2 5/7/2
f 2/2/1 4/1/1 6/8/1
f 3/9/3 5/7/3 6/3/3 4/5/3
f 5/10/4 1/11/4 2/6/4 6/12/4
f 10/4/1 9/3/1 13/13/1 14/14/1
f 1/1/5 3/2/5 7/3/5 8/4/5
f 3/1/6 4/2/6 10/3/6 7/4/6
f 2/1/7 1/2/7 8/15/7 9/4/7
f 14/14/1 13/13/1 17/5/1 18/9/1
f 8/4/5 7/3/5 11/13/5 12/14/5
f 7/4/6 10/3/6 14/13/6 11/14/6
f 9/4/7 8/15/7 12/13/7 13/14/7
f 16/16/8 15/5/8 18/9/8 17/17/8
f 12/14/5 11/13/5 15/5/5 16/9/5
f 11/14/6 14/13/6 18/5/6 15/9/6
f 13/14/7 12/13/7 16/5/7 17/9/7
