# Blender 5.1.0
# www.blender.org
o StairsGeometry
v 0.000000 0.000000 1.000000
v 1.000000 0.000000 1.000000
v 0.000000 0.000000 0.000000
v 1.000000 0.000000 0.000000
v 0.000000 0.500000 0.000000
v 0.000000 0.500000 1.000000
v 0.500000 0.500000 1.000000
v 0.500000 0.500000 0.000000
v 0.500000 1.000000 1.000000
v 1.000000 1.000000 1.000000
v 1.000000 1.000000 0.000000
v 0.500000 1.000000 0.000000
vn -0.0000 -1.0000 -0.0000
vn 1.0000 -0.0000 -0.0000
vn -0.0000 1.0000 -0.0000
vn -1.0000 -0.0000 -0.0000
vn -0.0000 -0.0000 -1.0000
vn -0.0000 -0.0000 1.0000
vt 0.000000 -0.000001
vt -0.000000 0.999999
vt 1.000000 1.000000
vt 1.000000 -0.000000
vt 0.000000 1.000000
vt 1.000000 1.000000
vt 1.000000 0.000000
vt 0.000000 0.000000
vt -0.000000 1.000000
vt 0.500000 1.000000
vt 0.500000 0.000000
vt 0.000000 -0.000000
vt -0.000000 1.000000
vt 1.000000 1.000000
vt 1.000000 0.500000
vt -0.000000 0.500000
vt 0.000000 1.000000
vt 1.000000 1.000000
vt 1.000000 0.500000
vt 0.500000 0.500000
vt 0.000000 1.000000
vt 0.500000 0.500000
vt 0.000000 0.500000
vt 1.000000 1.000000
vt 1.000000 0.000000
vt 0.500000 0.000000
vt 0.500000 0.000000
vt 0.000000 0.000000
vt 0.500000 0.000000
vt -0.000000 0.500000
vt 1.000000 0.500000
vt 1.000000 0.000000
vt -0.000000 0.000000
s 0
f 1/1/1 3/2/1 4/3/1 2/4/1
f 2/5/2 4/6/2 11/7/2 10/8/2
f 6/9/3 7/10/3 8/11/3 5/12/3
f 3/13/4 1/14/4 6/15/4 5/16/4
f 4/17/5 3/18/5 5/19/5 8/20/5
f 1/21/6 2/6/6 7/22/6 6/23/6
f 9/10/3 10/24/3 11/25/3 12/26/3
f 4/17/5 8/20/5 12/27/5 11/28/5
f 7/22/6 2/6/6 10/7/6 9/29/6
f 8/30/4 7/31/4 9/32/4 12/33/4
