# Blender 5.0.0
# www.blender.org
o ThirdGeometry
v 0.000000 0.000000 1.000000
v 1.000000 0.000000 1.000000
v 0.000000 0.000000 0.000000
v 1.000000 0.000000 0.000000
v 0.000000 0.333333 0.000000
v 0.000000 0.333333 1.000000
v 1.000000 0.333333 1.000000
v 1.000000 0.333333 0.000000
vn -0.0000 -1.0000 -0.0000
vn -0.0000 1.0000 -0.0000
vn 1.0000 -0.0000 -0.0000
vn -1.0000 -0.0000 -0.0000
vn -0.0000 -0.0000 -1.0000
vn -0.0000 -0.0000 1.0000
vt 0.000000 -0.000001
vt -0.000000 0.999999
vt 1.000000 1.000000
vt 1.000000 -0.000000
vt -0.000000 1.000000
vt 1.000000 1.000000
vt 1.000000 0.000000
vt 0.000000 -0.000000
vt 0.000000 1.000000
vt 1.000000 1.000000
vt 1.000000 0.666667
vt 0.000000 0.666667
vt -0.000000 1.000000
vt 1.000000 1.000000
vt 1.000000 0.666667
vt -0.000000 0.666667
vt 0.000000 1.000000
vt 1.000000 1.000000
vt 1.000000 0.666667
vt 0.000000 0.666667
vt 0.000000 1.000000
vt 0.000000 0.666667
s 0
f 1/1/1 3/2/1 4/3/1 2/4/1
f 6/5/2 7/6/2 8/7/2 5/8/2
f 2/9/3 4/10/3 8/11/3 7/12/3
f 3/13/4 1/14/4 6/15/4 5/16/4
f 4/17/5 3/18/5 5/19/5 8/20/5
f 1/21/6 2/10/6 7/11/6 6/22/6
