# Blender 5.0.0
# www.blender.org
o ThirdRoofThirdGeometry
v 0.000000 0.666667 1.000000
v 1.000000 0.666667 1.000000
v 0.000000 0.666667 0.000000
v 1.000000 0.666667 0.000000
v 0.000000 0.833333 0.500000
v 1.000000 0.833333 0.500000
v 0.000000 0.333333 0.000000
v 0.000000 0.333333 1.000000
v 1.000000 0.333333 1.000000
v 1.000000 0.333333 0.000000
v 0.000000 0.000000 0.000000
v 0.000000 0.000000 1.000000
v 1.000000 0.000000 1.000000
v 1.000000 0.000000 0.000000
vn -0.0000 -0.0000 1.0000
vn -0.0000 0.9487 -0.3162
vn -1.0000 -0.0000 -0.0000
vn -0.0000 0.9487 0.3162
vn 1.0000 -0.0000 -0.0000
vn -0.0000 -0.0000 -1.0000
vn -0.0000 -1.0000 -0.0000
vt 1.000000 0.333333
vt 0.000000 0.333333
vt 0.000000 0.666667
vt 1.000000 0.666667
vt 1.000000 0.500000
vt 0.000000 0.500000
vt 0.000000 1.000000
vt 1.000000 1.000000
vt 0.500000 0.166667
vt 0.000000 1.000000
vt 1.000000 1.000000
vt 1.000000 0.500000
vt 0.000000 0.500000
vt 0.000000 0.666667
vt 0.000000 0.000000
vt 1.000000 0.000000
vt 1.000000 1.000000
s 0
f 2/1/1 1/2/1 8/3/1 9/4/1
f 5/5/2 6/6/2 4/7/2 3/8/2
f 3/2/3 1/1/3 5/9/3
f 1/10/4 2/11/4 6/12/4 5/13/4
f 2/2/5 4/1/5 6/9/5
f 8/4/3 7/14/3 11/7/3 12/8/3
f 4/1/5 2/2/5 9/14/5 10/4/5
f 1/1/3 3/2/3 7/14/3 8/4/3
f 3/1/6 4/2/6 10/14/6 7/4/6
f 12/15/7 11/7/7 14/8/7 13/16/7
f 7/4/6 10/14/6 14/7/6 11/8/6
f 9/4/1 8/3/1 12/7/1 13/17/1
f 10/4/5 9/14/5 13/7/5 14/8/5
