# Blender 5.0.0
# www.blender.org
o ThirdCornerInnerThirdGeometry
v 0.000000 0.666667 0.000000
v 1.000000 0.666667 0.000000
v 1.000000 0.666667 1.000000
v 0.000000 0.666667 1.000000
v 1.000000 1.000000 -0.000000
v 1.000000 1.000000 1.000000
v 0.000000 1.000000 0.000000
v 0.000000 0.333333 0.000000
v 0.000000 0.333333 1.000000
v 1.000000 0.333333 0.000000
v 1.000000 0.333333 1.000000
v 0.000000 0.000000 0.000000
v 0.000000 0.000000 1.000000
v 1.000000 0.000000 0.000000
v 1.000000 0.000000 1.000000
vn 1.0000 -0.0000 -0.0000
vn -1.0000 -0.0000 -0.0000
vn -0.0000 -0.0000 -1.0000
vn -0.0000 -0.0000 1.0000
vn -0.3162 0.9487 -0.0000
vn -0.0000 0.9487 0.3162
vn -0.0000 -1.0000 -0.0000
vt 1.000000 0.333333
vt 0.000000 0.333333
vt 0.000000 0.666667
vt 1.000000 0.666667
vt 1.000000 0.000000
vt 0.000000 0.000000
vt 1.000000 1.000000
vt -0.000000 0.000000
vt 0.000000 1.000000
s 0
f 2/1/1 3/2/1 11/3/1 10/4/1
f 2/1/1 5/5/1 6/6/1 3/2/1
f 4/1/2 7/6/2 1/2/2
f 1/1/3 7/5/3 5/6/3 2/2/3
f 4/2/4 3/1/4 6/5/4
f 5/6/5 4/7/5 6/5/5
f 7/8/6 4/9/6 5/5/6
f 11/4/4 9/3/4 13/9/4 15/7/4
f 4/1/2 1/2/2 8/3/2 9/4/2
f 3/1/4 4/2/4 9/3/4 11/4/4
f 1/1/3 2/2/3 10/3/3 8/4/3
f 12/9/7 14/7/7 15/5/7 13/6/7
f 8/4/3 10/3/3 14/9/3 12/7/3
f 10/4/1 11/3/1 15/9/1 14/7/1
f 9/4/2 8/3/2 12/9/2 13/7/2
