# Blender 5.0.0
# www.blender.org
o MaterialShapeThirdSlopeSecondGeometry
v 0.000000 0.333333 -0.000000
v 1.000000 0.333333 -0.000000
v 1.000000 0.333333 1.000000
v 0.000000 0.333333 1.000000
v 1.000000 0.666667 -0.000000
v 1.000000 0.666667 1.000000
v 0.000000 0.000000 0.000000
v 0.000000 0.000000 1.000000
v 1.000000 0.000000 0.000000
v 1.000000 0.000000 1.000000
vn -0.0000 -0.0000 -1.0000
vn 1.0000 -0.0000 -0.0000
vn -0.3162 0.9487 -0.0000
vn -0.0000 -0.0000 1.0000
vn -0.0000 -1.0000 -0.0000
vn -1.0000 -0.0000 -0.0000
vt 0.000000 0.666667
vt 0.000000 1.000000
vt 1.000000 1.000000
vt 1.000000 0.666666
vt 1.000000 0.666667
vt 1.000000 0.333333
vt 0.000000 0.333333
vt 1.000000 0.000000
vt -0.000000 0.000000
s 1
f 2/1/1 9/2/1 7/3/1 1/4/1
f 2/5/2 5/6/2 6/7/2 3/1/2
f 1/2/3 4/3/3 6/8/3 5/9/3
f 1/4/1 5/7/1 2/1/1
f 4/1/4 3/5/4 6/6/4
f 7/2/5 9/3/5 10/8/5 8/9/5
f 3/1/2 10/2/2 9/3/2 2/5/2
f 1/1/6 7/2/6 8/3/6 4/5/6
f 4/1/4 8/2/4 10/3/4 3/5/4
