# Blender 5.0.0
# www.blender.org
o MaterialShapeHalfSlopeBottomGeometry
v 0.000000 0.000000 0.000000
v 1.000000 0.000000 0.000000
v 1.000000 0.000000 1.000000
v 0.000000 0.000000 1.000000
v 1.000000 0.500000 -0.000000
v 1.000000 0.500000 1.000000
v 1.000000 0.000000 1.000000
v 0.000000 0.000000 1.000000
v 1.000000 0.500000 1.000000
v 1.000000 0.500000 -0.000000
v 0.000000 0.000000 0.000000
v 1.000000 0.000000 0.000000
v 0.000000 0.000000 1.000000
v 1.000000 0.000000 1.000000
vn -0.0000 -1.0000 -0.0000
vn 1.0000 -0.0000 -0.0000
vn -0.4472 0.8944 -0.0000
vn -0.0000 -0.0000 -1.0000
vn -0.0000 -0.0000 1.0000
vt 0.000000 1.000000
vt 1.000000 1.000000
vt 1.000000 0.000000
vt 0.000000 0.000000
vt 1.000000 0.500000
vt 0.000000 0.500000
s 0
f 1/1/1 2/2/1 3/3/1 4/4/1
f 2/2/2 5/5/2 6/6/2 7/1/2
f 1/1/3 8/2/3 9/3/3 10/4/3
f 11/2/4 10/6/4 12/1/4
f 13/1/5 14/2/5 9/5/5
