# Blender 5.0.0
# www.blender.org
o MaterialShapeQuarterSlopeFirstGeometry
v 0.000000 0.000000 1.000000
v 1.000000 0.000000 1.000000
v 0.000000 0.000000 0.000000
v 1.000000 0.000000 0.000000
v 1.000000 0.250000 1.000000
v 1.000000 0.250000 -0.000000
vn -0.0000 -1.0000 -0.0000
vn -0.2425 0.9701 -0.0000
vn -0.0000 -0.0000 1.0000
vn -0.0000 -0.0000 -1.0000
vn 1.0000 -0.0000 -0.0000
vt 0.000000 0.000000
vt 0.000000 1.000000
vt 1.000000 1.000000
vt 1.000000 0.000000
vt 1.000000 0.750000
vt 0.000000 0.750000
s 0
f 1/1/1 3/2/1 4/3/1 2/4/1
f 5/4/2 6/1/2 3/2/2 1/3/2
f 1/2/3 2/3/3 5/5/3
f 3/3/4 6/6/4 4/2/4
f 5/6/5 2/2/5 4/3/5 6/5/5
