# Blender 5.0.0
# www.blender.org
o MaterialShapeQuarterSlopeSecondGeometry
v 0.000000 0.250000 1.000000
v 1.000000 0.250000 1.000000
v 0.000000 0.250000 -0.000000
v 1.000000 0.250000 -0.000000
v 1.000000 0.500000 1.000000
v 1.000000 0.500000 -0.000000
v 0.000000 -0.000000 -0.000000
v 0.000000 0.000000 1.000000
v 1.000000 0.000000 1.000000
v 1.000000 -0.000000 -0.000000
vn -0.0000 -0.0000 -1.0000
vn -0.2425 0.9701 -0.0000
vn -0.0000 -0.0000 1.0000
vn 1.0000 -0.0000 -0.0000
vn -1.0000 -0.0000 -0.0000
vn -0.0000 -1.0000 -0.0000
vt 0.000000 0.750000
vt 0.000000 1.000000
vt 1.000000 1.000000
vt 1.000000 0.750000
vt 1.000000 0.000000
vt 0.000000 0.000000
vt 1.000000 0.500000
vt 0.000000 0.500000
s 0
f 4/1/1 10/2/1 7/3/1 3/4/1
f 5/5/2 6/6/2 3/2/2 1/3/2
f 1/1/3 2/4/3 5/7/3
f 3/4/1 6/8/1 4/1/1
f 5/8/4 2/1/4 4/4/4 6/7/4
f 1/1/3 8/2/3 9/3/3 2/4/3
f 2/1/4 9/2/4 10/3/4 4/4/4
f 3/1/5 7/2/5 8/3/5 1/4/5
f 8/6/6 7/2/6 10/3/6 9/5/6
