# Blender 5.0.0
# www.blender.org
o MaterialShapeHalfSlopeTopGeometry
v 0.000000 0.500000 -0.000000
v 0.000000 0.500000 1.000000
v 1.000000 0.500000 1.000000
v 1.000000 0.500000 -0.000000
v 1.000000 0.500000 -0.000000
v 1.000000 1.000000 -0.000000
v 1.000000 1.000000 1.000000
v 1.000000 0.500000 1.000000
v 0.000000 0.500000 1.000000
v 0.000000 0.500000 -0.000000
v 1.000000 1.000000 -0.000000
v 1.000000 0.500000 -0.000000
v 0.000000 0.500000 1.000000
v 1.000000 0.500000 1.000000
v 1.000000 1.000000 1.000000
v 0.000000 0.000000 0.000000
v 1.000000 0.000000 0.000000
v 1.000000 0.000000 1.000000
v 0.000000 0.000000 1.000000
v 1.000000 0.000000 1.000000
v 1.000000 0.000000 0.000000
v 0.000000 0.500000 -0.000000
v 0.000000 0.000000 0.000000
v 0.000000 0.000000 1.000000
v 0.000000 0.000000 1.000000
v 1.000000 0.000000 1.000000
v 1.000000 0.000000 0.000000
v 0.000000 0.000000 0.000000
vn -0.0000 1.0000 -0.0000
vn 1.0000 -0.0000 -0.0000
vn -0.4472 0.8944 -0.0000
vn -0.0000 -0.0000 -1.0000
vn -0.0000 -0.0000 1.0000
vn -0.0000 -1.0000 -0.0000
vn -1.0000 -0.0000 -0.0000
vt 0.000000 1.000000
vt 0.000000 0.500000
vt 1.000000 0.000000
vt 1.000000 1.000000
vt 1.000000 0.500000
vt 0.000000 0.000000
vt 0.000100 0.999900
vt 0.999900 0.999900
vt 0.999900 0.000100
vt 0.000100 0.000100
s 0
f 1/1/1 2/2/1 3/3/1 4/4/1
f 5/5/2 6/3/2 7/6/2 8/2/2
f 1/1/3 9/4/3 7/3/3 6/6/3
f 10/5/4 11/6/4 12/2/4
f 13/2/5 14/5/5 15/3/5
f 16/7/6 17/8/6 18/9/6 19/10/6
f 5/5/2 8/2/2 20/1/2 21/4/2
f 2/5/7 22/2/7 23/1/7 24/4/7
f 14/5/5 13/2/5 25/1/5 26/4/5
f 10/5/4 12/2/4 27/1/4 28/4/4
