# Blender 5.0.0
# www.blender.org
o MaterialShapeThirdSlopeFirstGeometry
v 0.000000 0.000000 0.000000
v 0.000000 0.000000 1.000000
v 1.000000 0.000000 1.000000
v 1.000000 0.000000 0.000000
v 1.000000 0.000000 0.000000
v 1.000000 0.333333 -0.000000
v 1.000000 0.333333 1.000000
v 1.000000 0.000000 1.000000
v 0.000000 0.000000 0.000000
v 0.000000 0.000000 1.000000
v 1.000000 0.333333 1.000000
v 1.000000 0.333333 -0.000000
v 1.000000 0.333333 -0.000000
v 0.000000 0.000000 1.000000
v 1.000000 0.000000 1.000000
v 1.000000 0.333333 1.000000
vn -0.0000 1.0000 -0.0000
vn 1.0000 -0.0000 -0.0000
vn -0.3162 0.9487 -0.0000
vn -0.0000 -0.0000 -1.0000
vn -0.0000 -0.0000 1.0000
vt 0.000000 1.000000
vt 0.000000 0.000000
vt 1.000000 0.000000
vt 1.000000 1.000000
vt 1.000000 0.666667
vt -0.000000 0.666667
s 0
f 1/1/1 2/2/1 3/3/1 4/4/1
f 5/4/2 6/5/2 7/6/2 8/1/2
f 9/1/3 10/4/3 11/3/3 12/2/3
f 1/4/4 13/6/4 4/1/4
f 14/1/5 15/4/5 16/5/5
