# Blender 5.0.0
# www.blender.org
o MaterialShapeThirdSlopeThirdGeometry
v 0.000000 0.666667 -0.000000
v 1.000000 0.666667 -0.000000
v 1.000000 0.666667 1.000000
v 0.000000 0.666667 1.000000
v 1.000000 1.000000 -0.000000
v 1.000000 1.000000 1.000000
v 0.000000 0.333333 -0.000000
v 0.000000 0.333333 1.000000
v 1.000000 0.333333 -0.000000
v 1.000000 0.333333 1.000000
v 0.000000 0.000000 0.000000
v 0.000000 0.000000 1.000000
v 1.000000 0.000000 0.000000
v 1.000000 0.000000 1.000000
vn -0.0000 -0.0000 -1.0000
vn 1.0000 -0.0000 -0.0000
vn -0.3162 0.9487 -0.0000
vn -0.0000 -0.0000 1.0000
vn -1.0000 -0.0000 -0.0000
vn -0.0000 -1.0000 -0.0000
vt 0.000000 0.333333
vt 0.000000 0.666667
vt 1.000000 0.666667
vt 1.000000 0.333333
vt 1.000000 0.000000
vt 0.000000 0.000000
vt 0.000000 1.000000
vt 1.000000 1.000000
s 1
f 2/1/1 9/2/1 7/3/1 1/4/1
f 2/4/2 5/5/2 6/6/2 3/1/2
f 1/7/3 4/8/3 6/5/3 5/6/3
f 1/4/1 5/6/1 2/1/1
f 4/1/4 3/4/4 6/5/4
f 9/3/2 10/2/2 14/7/2 13/8/2
f 3/1/2 10/2/2 9/3/2 2/4/2
f 1/1/5 7/2/5 8/3/5 4/4/5
f 4/1/4 8/2/4 10/3/4 3/4/4
f 11/7/6 13/8/6 14/5/6 12/6/6
f 8/3/5 7/2/5 11/7/5 12/8/5
f 10/3/4 8/2/4 12/7/4 14/8/4
f 7/3/1 9/2/1 13/7/1 11/8/1
