# Blender 5.0.0
# www.blender.org
o QuarterStairsGeometry
v 0.000000 0.000000 1.000000
v 1.000000 0.000000 1.000000
v 0.000000 0.000000 0.000000
v 1.000000 0.000000 0.000000
v 0.000000 0.250000 0.000000
v 0.000000 0.250000 1.000000
v 0.250000 0.000000 1.000000
v 0.500000 0.000000 1.000000
v 0.500000 0.000000 0.000000
v 0.250000 0.000000 0.000000
v 0.250000 0.250000 1.000000
v 0.500000 0.250000 1.000000
v 0.750000 0.250000 1.000000
v 0.750000 0.250000 0.000000
v 0.500000 0.250000 0.000000
v 0.250000 0.250000 0.000000
v 0.750000 0.500000 1.000000
v 1.000000 0.500000 1.000000
v 1.000000 0.500000 0.000000
v 0.250000 0.500000 1.000000
v 0.500000 0.500000 1.000000
v 0.750000 0.500000 0.000000
v 0.500000 0.500000 0.000000
v 0.250000 0.500000 0.000000
v 0.750000 0.750000 1.000000
v 1.000000 0.750000 1.000000
v 1.000000 0.750000 0.000000
v 0.500000 0.750000 1.000000
v 0.750000 0.750000 0.000000
v 0.500000 0.750000 0.000000
v 0.750000 1.000000 1.000000
v 1.000000 1.000000 1.000000
v 1.000000 1.000000 0.000000
v 0.750000 1.000000 0.000000
vn -1.0000 -0.0000 -0.0000
vn -0.0000 -0.0000 -1.0000
vn -0.0000 -0.0000 1.0000
vn -0.0000 1.0000 -0.0000
vn -0.0000 -1.0000 -0.0000
vn 1.0000 -0.0000 -0.0000
vt -0.000000 0.750000
vt 1.000000 0.750000
vt 1.000000 0.500000
vt -0.000000 0.500000
vt -0.000000 1.000000
vt 1.000000 1.000000
vt 0.750000 1.000000
vt 1.000000 1.000000
vt 1.000000 0.750000
vt 0.750000 0.750000
vt 0.000000 1.000000
vt 0.250000 1.000000
vt 0.250000 0.750000
vt 0.000000 0.750000
vt 0.500000 1.000000
vt 0.500000 0.750000
vt 1.000000 1.000000
vt 0.750000 0.750000
vt 0.000000 1.000000
vt 0.500000 1.000000
vt 0.500000 0.750000
vt 0.250000 0.750000
vt -0.000000 1.000000
vt 0.250000 1.000000
vt 0.250000 -0.000000
vt 0.000000 -0.000000
vt 0.250000 0.500000
vt 0.000000 0.500000
vt 0.750000 0.500000
vt 0.500000 0.500000
vt 0.000000 -0.000001
vt -0.000000 0.999999
vt 0.250000 1.000000
vt 0.250000 -0.000000
vt 0.500000 1.000000
vt 0.500000 -0.000000
vt 1.000000 1.000000
vt 1.000000 -0.000000
vt 0.500000 0.500000
vt 0.750000 0.500000
vt 0.750000 0.250000
vt 0.500000 0.250000
vt 0.500000 1.000000
vt 0.500000 0.000000
vt 0.250000 -0.000000
vt 0.500000 0.250000
vt 0.250000 0.250000
vt 0.250000 0.500000
vt 0.000000 1.000000
vt 1.000000 0.500000
vt 0.000000 0.500000
vt 1.000000 0.250000
vt 1.000000 0.000000
vt 0.750000 0.000000
vt 0.750000 1.000000
vt 0.750000 0.000000
vt 0.500000 0.000000
vt 0.000000 0.250000
vt -0.000000 0.500000
vt 1.000000 0.500000
vt 1.000000 0.250000
vt -0.000000 0.250000
vt 0.000000 0.250000
vt 1.000000 1.000000
vt 1.000000 0.000000
vt 0.250000 0.000000
vt 0.000000 0.000000
vt 0.000000 0.000000
vt -0.000000 0.250000
vt 1.000000 0.250000
vt 1.000000 0.000000
vt -0.000000 0.000000
s 0
f 16/1/1 11/2/1 20/3/1 24/4/1
f 3/5/1 1/6/1 6/2/1 5/1/1
f 10/7/2 3/8/2 5/9/2 16/10/2
f 1/11/3 7/12/3 11/13/3 6/14/3
f 7/12/3 8/15/3 12/16/3 11/13/3
f 8/15/3 2/17/3 13/18/3 12/16/3
f 4/19/2 9/20/2 15/21/2 14/22/2
f 9/20/2 10/7/2 16/10/2 15/21/2
f 6/23/4 11/24/4 16/25/4 5/26/4
f 4/19/2 14/22/2 22/27/2 19/28/2
f 15/21/2 16/10/2 24/29/2 23/30/2
f 1/31/5 3/32/5 10/33/5 7/34/5
f 7/34/5 10/33/5 9/35/5 8/36/5
f 8/36/5 9/35/5 4/37/5 2/38/5
f 21/39/3 17/40/3 25/41/3 28/42/3
f 20/24/4 21/43/4 23/44/4 24/45/4
f 22/27/2 23/30/2 30/46/2 29/47/2
f 11/13/3 12/16/3 21/39/3 20/48/3
f 2/49/6 4/17/6 19/50/6 18/51/6
f 14/22/2 15/21/2 23/30/2 22/27/2
f 12/16/3 13/18/3 17/40/3 21/39/3
f 13/18/3 2/17/3 18/50/3 17/40/3
f 25/41/3 26/52/3 32/53/3 31/54/3
f 28/43/4 25/55/4 29/56/4 30/57/4
f 18/51/6 19/50/6 27/52/6 26/58/6
f 23/59/1 21/60/1 28/61/1 30/62/1
f 19/28/2 22/27/2 29/47/2 27/63/2
f 17/40/3 18/50/3 26/52/3 25/41/3
f 31/55/4 32/64/4 33/65/4 34/56/4
f 27/63/2 29/47/2 34/66/2 33/67/2
f 26/58/6 27/52/6 33/53/6 32/68/6
f 29/69/1 25/70/1 31/71/1 34/72/1
