# Blender 5.1.0
# www.blender.org
o CylinderTCrossGeometry
v 0.500000 0.000000 0.000000
v 0.691342 0.000000 0.038060
v 0.853553 0.000000 0.146447
v 0.961940 0.000000 0.308658
v 1.000000 0.000000 0.500000
v 0.961940 0.000000 0.691342
v 0.853553 0.000000 0.853553
v 0.691342 0.000000 0.961940
v 0.308658 0.000000 0.961940
v 0.146447 0.000000 0.853553
v 0.038060 0.000000 0.691342
v 0.000000 0.000000 0.500000
v 0.038060 0.000000 0.308658
v 0.146447 0.000000 0.146447
v 0.308658 0.000000 0.038060
v 0.146447 0.146447 0.853553
v 0.500000 0.000000 1.000000
v 0.691342 0.038060 1.000000
v 0.853553 0.146447 1.000000
v 0.961940 0.308658 1.000000
v 0.038060 0.308658 1.000000
v 0.146447 0.146447 1.000000
v 0.308658 0.038060 1.000000
v 0.500000 0.000000 0.500000
v 0.961940 0.308658 0.691342
v 0.038060 0.308658 0.691342
v 0.691342 0.038060 0.961940
v 0.308658 0.038060 0.961940
v 0.853553 0.146447 0.853553
v 0.500000 1.000000 0.000000
v 0.691342 1.000000 0.038060
v 0.853553 1.000000 0.146447
v 0.961940 1.000000 0.308658
v 1.000000 1.000000 0.500000
v 0.961940 1.000000 0.691342
v 0.853553 1.000000 0.853553
v 0.691342 1.000000 0.961940
v 0.308658 1.000000 0.961940
v 0.146447 1.000000 0.853553
v 0.038060 1.000000 0.691342
v 0.000000 1.000000 0.500000
v 0.038060 1.000000 0.308658
v 0.146447 1.000000 0.146447
v 0.308658 1.000000 0.038060
v 0.691342 0.500000 0.038060
v 0.500000 0.500000 0.000000
v 0.308658 0.500000 0.038060
v 0.146447 0.500000 0.146447
v 0.038060 0.500000 0.308658
v 0.000000 0.500000 0.500000
v 0.500000 0.500000 1.000000
v 1.000000 0.500000 0.500000
v 0.961940 0.500000 0.308658
v 0.146447 0.853553 0.853553
v 0.500000 1.000000 1.000000
v 0.691342 0.961940 1.000000
v 0.853553 0.853553 1.000000
v 0.961940 0.691342 1.000000
v 1.000000 0.500000 1.000000
v 0.000000 0.500000 1.000000
v 0.038060 0.691342 1.000000
v 0.146447 0.853553 1.000000
v 0.308658 0.961940 1.000000
v 0.500000 1.000000 0.500000
v 0.961940 0.691342 0.691342
v 0.038060 0.691342 0.691342
v 0.691342 0.961940 0.961940
v 0.853553 0.500000 0.146447
v 0.308658 0.961940 0.961940
v 0.853553 0.853553 0.853553
vn -0.1951 -0.0000 -0.9808
vn -0.5556 -0.0000 -0.8315
vn -0.8315 -0.0000 -0.5556
vn -0.9808 -0.0000 -0.1951
vn -0.9808 -0.0000 0.1951
vn -0.8315 -0.0000 0.5556
vn -0.5556 -0.0000 0.8315
vn 0.1951 -0.0000 0.9808
vn 0.5556 -0.0000 0.8315
vn 0.8315 -0.0000 0.5556
vn 0.9808 -0.0000 0.1951
vn 0.9808 -0.0000 -0.1951
vn 0.8315 -0.0000 -0.5556
vn 0.5556 -0.0000 -0.8315
vn 0.1951 -0.0000 -0.9808
vn -0.0000 -1.0000 -0.0000
vn -0.1951 -0.9808 -0.0000
vn -0.5556 -0.8315 -0.0000
vn -0.8315 -0.5556 -0.0000
vn -0.9808 -0.1951 -0.0000
vn 0.9808 -0.1951 -0.0000
vn 0.8315 -0.5556 -0.0000
vn 0.5556 -0.8315 -0.0000
vn -0.0000 -0.0000 1.0000
vn -0.1951 -0.0000 0.9808
vn 0.1951 -0.9808 -0.0000
vn -0.0000 1.0000 -0.0000
vn -0.1951 0.9808 -0.0000
vn -0.5556 0.8315 -0.0000
vn -0.8315 0.5556 -0.0000
vn -0.9808 0.1951 -0.0000
vn 0.9808 0.1951 -0.0000
vn 0.8315 0.5556 -0.0000
vn 0.5556 0.8315 -0.0000
vn 0.1951 0.9808 -0.0000
vt 0.691342 1.000000
vt 0.691342 0.500000
vt 0.500000 0.500000
vt 0.500000 1.000000
vt 0.853554 1.000000
vt 0.853554 0.500000
vt 0.308658 1.000000
vt 0.308658 0.500000
vt 0.146447 0.500000
vt 0.146447 1.000000
vt 0.500000 1.000000
vt 0.500000 0.500000
vt 0.691342 1.000000
vt 0.691342 0.691342
vt 0.853553 1.000000
vt 0.853553 0.853553
vt 0.308658 1.000000
vt 0.308658 0.961940
vt 0.146447 0.853553
vt 0.146447 1.000000
vt 0.691342 1.000000
vt 0.691342 0.961940
vt 0.500000 1.000000
vt 0.853553 1.000000
vt 0.853553 0.853553
vt 0.308658 1.000000
vt 0.308658 0.691342
vt 0.146447 0.853553
vt 0.146447 1.000000
vt 0.500000 0.500000
vt 0.691342 0.500000
vt 0.853553 0.500000
vt 0.308658 1.000000
vt 0.308658 0.500000
vt 0.146447 0.500000
vt 0.146447 1.000000
vt 0.500000 1.000000
vt 0.500000 0.500000
vt 0.146446 0.853553
vt 0.308658 0.961939
vt 0.500000 -0.000000
vt 0.853553 0.146446
vt 0.691342 0.038060
vt 1.000000 0.500000
vt 0.853553 0.853553
vt 0.961940 0.691341
vt -0.000000 0.499999
vt 0.146447 0.146446
vt 0.038060 0.308658
vt 0.961940 0.308658
vt 0.038060 0.691341
vt 0.308658 0.038060
vt 0.691342 0.961939
vt 0.308658 -0.000000
vt 0.308658 0.038060
vt 0.146447 -0.000001
vt 0.146447 0.146446
vt 1.000000 0.691342
vt 1.000000 0.853553
vt 1.000000 0.500000
vt 0.000000 0.691342
vt 0.000000 0.500000
vt 0.000000 0.853553
vt 0.691342 -0.000000
vt 0.853553 0.146446
vt 0.853553 -0.000000
vt 0.146447 0.853553
vt 1.000000 0.500000
vt 0.853553 0.853553
vt 0.961940 0.691342
vt 0.000000 0.500000
vt 0.038060 0.691342
vt 0.691342 0.000000
vt 0.500000 0.000000
vt 0.853554 0.000000
vt 0.308658 0.000000
vt 0.146447 0.000000
vt 0.500000 0.000000
vt 0.691342 0.000000
vt 0.691342 0.308658
vt 0.853553 0.000000
vt 0.853553 0.146447
vt 0.308658 0.000000
vt 0.146447 0.000000
vt 0.146447 0.146447
vt 0.308658 0.038060
vt 0.691342 0.000000
vt 0.500000 0.000000
vt 0.691342 0.038060
vt 0.853553 0.000000
vt 0.853553 0.146447
vt 0.308658 0.000000
vt 0.146447 0.000000
vt 0.146447 0.146447
vt 0.308658 0.308658
vt 0.308658 0.000000
vt 0.146447 0.000000
vt 0.500000 0.000000
vt 0.308659 0.038060
vt 0.146447 0.146446
vt 0.500000 0.500000
vt 0.500000 1.000000
vt 0.691341 0.961940
vt 0.853553 0.853554
vt 1.000000 0.500000
vt 0.961940 0.308659
vt 0.853554 0.146447
vt 0.000000 0.500000
vt 0.038060 0.691341
vt 0.146446 0.853553
vt 0.961940 0.691342
vt 0.038060 0.308658
vt 0.308658 0.961940
vt 0.691342 0.038060
vt 0.308658 1.000000
vt 0.308658 0.961940
vt 0.146446 1.000000
vt 0.146446 0.853553
vt 1.000000 0.308658
vt 1.000000 0.146447
vt 0.000000 0.308658
vt 0.000000 0.146447
vt 0.691341 1.000000
vt 0.853553 1.000000
vt 0.961940 0.308658
vt 0.038060 0.308658
s 0
f 15/1/1 47/2/1 46/3/1 1/4/1
f 14/5/2 48/6/2 47/2/2 15/1/2
f 13/7/3 49/8/3 48/9/3 14/10/3
f 12/11/4 50/12/4 49/8/4 13/7/4
f 11/13/5 26/14/5 50/12/5 12/11/5
f 10/15/6 16/16/6 26/14/6 11/13/6
f 9/17/7 28/18/7 16/19/7 10/20/7
f 8/21/8 27/22/8 17/23/8
f 7/24/9 29/25/9 27/22/9 8/21/9
f 6/26/10 25/27/10 29/28/10 7/29/10
f 5/23/11 52/30/11 25/27/11 6/26/11
f 4/21/12 53/31/12 52/30/12 5/23/12
f 3/24/13 68/32/13 53/31/13 4/21/13
f 2/33/14 45/34/14 68/35/14 3/36/14
f 1/4/15 46/3/15 45/34/15 2/33/15
f 1/37/16 24/38/16 14/39/16 15/40/16
f 17/41/16 24/38/16 7/42/16 8/43/16
f 5/44/16 24/38/16 3/45/16 4/46/16
f 12/47/16 24/38/16 10/48/16 11/49/16
f 7/42/16 24/38/16 5/44/16 6/50/16
f 14/39/16 24/38/16 12/47/16 13/51/16
f 10/48/16 24/38/16 17/41/16 9/52/16
f 3/45/16 24/38/16 1/37/16 2/53/16
f 23/54/17 28/55/17 17/41/17
f 22/56/18 16/57/18 28/55/18 23/54/18
f 21/58/19 26/14/19 16/16/19 22/59/19
f 60/60/20 50/12/20 26/14/20 21/58/20
f 20/61/21 25/27/21 52/30/21 59/62/21
f 19/63/22 29/28/22 25/27/22 20/61/22
f 18/64/23 27/43/23 29/65/23 19/66/23
f 17/23/24 51/30/24 22/67/24 23/18/24
f 59/68/24 51/30/24 19/69/24 20/70/24
f 22/67/24 51/30/24 60/71/24 21/72/24
f 19/69/24 51/30/24 17/23/24 18/22/24
f 28/18/25 9/17/25 17/23/25
f 27/43/26 18/64/26 17/41/26
f 44/73/1 30/74/1 46/3/1 47/2/1
f 43/75/2 44/73/2 47/2/2 48/6/2
f 42/76/3 43/77/3 48/9/3 49/8/3
f 41/78/4 42/76/4 49/8/4 50/12/4
f 40/79/5 41/78/5 50/12/5 66/80/5
f 39/81/6 40/79/6 66/80/6 54/82/6
f 38/83/7 39/84/7 54/85/7 69/86/7
f 37/87/8 55/88/8 67/89/8
f 36/90/9 37/87/9 67/89/9 70/91/9
f 35/92/10 36/93/10 70/94/10 65/95/10
f 34/88/11 35/92/11 65/95/11 52/30/11
f 33/87/12 34/88/12 52/30/12 53/31/12
f 32/90/13 33/87/13 53/31/13 68/32/13
f 31/96/14 32/97/14 68/35/14 45/34/14
f 30/74/15 31/96/15 45/34/15 46/3/15
f 30/98/27 44/99/27 43/100/27 64/101/27
f 55/102/27 37/103/27 36/104/27 64/101/27
f 34/105/27 33/106/27 32/107/27 64/101/27
f 41/108/27 40/109/27 39/110/27 64/101/27
f 36/104/27 35/111/27 34/105/27 64/101/27
f 43/100/27 42/112/27 41/108/27 64/101/27
f 39/110/27 38/113/27 55/102/27 64/101/27
f 32/107/27 31/114/27 30/98/27 64/101/27
f 63/115/28 55/102/28 69/116/28
f 62/117/29 63/115/29 69/116/29 54/118/29
f 61/119/30 62/120/30 54/82/30 66/80/30
f 60/60/31 61/119/31 66/80/31 50/12/31
f 58/121/32 59/62/32 52/30/32 65/95/32
f 57/122/33 58/121/33 65/95/33 70/94/33
f 56/123/34 57/124/34 70/104/34 67/103/34
f 55/88/24 63/86/24 62/85/24 51/30/24
f 59/68/24 58/125/24 57/91/24 51/30/24
f 62/85/24 61/126/24 60/71/24 51/30/24
f 57/91/24 56/89/24 55/88/24 51/30/24
f 69/86/25 55/88/25 38/83/25
f 67/103/35 55/102/35 56/123/35
