# Blender 5.1.0
# www.blender.org
o CylinderEndGeometry
v 0.500000 0.000000 0.000000
v 0.691342 0.000000 0.038060
v 0.853553 0.000000 0.146447
v 0.961940 0.000000 0.308658
v 1.000000 0.000000 0.500000
v 0.961940 0.000000 0.691342
v 0.853553 0.000000 0.853553
v 0.691342 0.000000 0.961940
v 0.500000 0.000000 1.000000
v 0.308658 0.000000 0.961940
v 0.146447 0.000000 0.853553
v 0.038060 0.000000 0.691342
v 0.000000 0.000000 0.500000
v 0.038060 0.000000 0.308658
v 0.146447 0.000000 0.146447
v 0.308658 0.000000 0.038060
v 0.853553 0.500000 0.146447
v 0.691342 0.500000 0.038060
v 0.500000 0.500000 0.000000
v 0.308658 0.500000 0.038060
v 0.838502 0.644338 0.161498
v 0.669251 0.669251 0.061014
v 0.500000 0.676777 0.032293
v 0.330749 0.669251 0.061014
v 0.146447 0.500000 0.146447
v 0.038060 0.500000 0.308658
v 0.000000 0.500000 0.500000
v 0.038060 0.500000 0.691342
v 0.161498 0.644338 0.161498
v 0.061014 0.669251 0.330749
v 0.032293 0.676777 0.500000
v 0.061014 0.669251 0.669251
v 0.146447 0.500000 0.853553
v 0.308658 0.500000 0.961940
v 0.500000 0.500000 1.000000
v 0.691342 0.500000 0.961940
v 0.161498 0.644338 0.838502
v 0.330749 0.669251 0.938986
v 0.500000 0.676777 0.967707
v 0.669251 0.669251 0.938986
v 0.853553 0.500000 0.853553
v 0.961940 0.500000 0.691342
v 1.000000 0.500000 0.500000
v 0.961940 0.500000 0.308658
v 0.838502 0.644338 0.838502
v 0.938986 0.669251 0.669251
v 0.967707 0.676777 0.500000
v 0.938986 0.669251 0.330749
v 0.788675 0.788675 0.211325
v 0.644338 0.838502 0.161498
v 0.500000 0.853553 0.146447
v 0.355662 0.838502 0.161498
v 0.211325 0.788675 0.211325
v 0.838502 0.838502 0.355662
v 0.669251 0.938986 0.330749
v 0.500000 0.967707 0.323223
v 0.330749 0.938986 0.330749
v 0.161498 0.838502 0.355662
v 0.853553 0.853553 0.500000
v 0.676777 0.967707 0.500000
v 0.500000 1.000000 0.500000
v 0.323223 0.967707 0.500000
v 0.146447 0.853553 0.500000
v 0.838502 0.838502 0.644338
v 0.669251 0.938986 0.669251
v 0.500000 0.967707 0.676777
v 0.330749 0.938986 0.669251
v 0.161498 0.838502 0.644338
v 0.788675 0.788675 0.788675
v 0.644338 0.838502 0.838502
v 0.500000 0.853553 0.853553
v 0.355662 0.838502 0.838502
v 0.211325 0.788675 0.788675
v 0.500000 0.000000 0.500000
vn 0.5347 0.1638 -0.8290
vn 0.1829 0.1664 -0.9689
vn -0.1829 0.1664 -0.9689
vn -0.5347 0.1638 -0.8290
vn 0.4701 0.4701 -0.7470
vn 0.1546 0.5288 -0.8346
vn -0.1546 0.5288 -0.8346
vn -0.4701 0.4701 -0.7470
vn -0.8290 0.1638 -0.5347
vn -0.9689 0.1664 -0.1829
vn -0.9689 0.1664 0.1829
vn -0.8290 0.1638 0.5347
vn -0.7470 0.4701 -0.4701
vn -0.8346 0.5288 -0.1546
vn -0.8346 0.5288 0.1546
vn -0.7470 0.4701 0.4701
vn -0.5347 0.1638 0.8290
vn -0.1829 0.1664 0.9689
vn 0.1829 0.1664 0.9689
vn 0.5347 0.1638 0.8290
vn -0.4701 0.4701 0.7470
vn -0.1546 0.5288 0.8346
vn 0.1546 0.5288 0.8346
vn 0.4701 0.4701 0.7470
vn 0.8290 0.1638 0.5347
vn 0.9689 0.1664 0.1829
vn 0.9689 0.1664 -0.1829
vn 0.8290 0.1638 -0.5347
vn 0.7470 0.4701 0.4701
vn 0.8346 0.5288 0.1546
vn 0.8346 0.5288 -0.1546
vn 0.7470 0.4701 -0.4701
vn 0.4701 0.7470 -0.4701
vn 0.1546 0.8346 -0.5288
vn -0.1546 0.8346 -0.5288
vn -0.4701 0.7470 -0.4701
vn 0.5288 0.8346 -0.1546
vn 0.1747 0.9690 -0.1747
vn -0.1747 0.9690 -0.1747
vn -0.5288 0.8346 -0.1546
vn 0.5288 0.8346 0.1546
vn 0.1747 0.9690 0.1747
vn -0.1747 0.9690 0.1747
vn -0.5288 0.8346 0.1546
vn 0.4701 0.7470 0.4701
vn 0.1546 0.8346 0.5288
vn -0.1546 0.8346 0.5288
vn -0.4701 0.7470 0.4701
vn -0.1951 -0.0000 -0.9808
vn -0.5556 -0.0000 -0.8315
vn -0.8315 -0.0000 -0.5556
vn -0.9808 -0.0000 -0.1951
vn -0.9808 -0.0000 0.1951
vn -0.8315 -0.0000 0.5556
vn -0.5556 -0.0000 0.8315
vn -0.1951 -0.0000 0.9808
vn 0.1951 -0.0000 0.9808
vn 0.5556 -0.0000 0.8315
vn 0.8315 -0.0000 0.5556
vn 0.9808 -0.0000 0.1951
vn 0.9808 -0.0000 -0.1951
vn 0.8315 -0.0000 -0.5556
vn 0.5556 -0.0000 -0.8315
vn 0.1951 -0.0000 -0.9808
vn -0.0000 -1.0000 -0.0000
vt 0.146447 0.500000
vt 0.308658 0.500000
vt 0.330749 0.330749
vt 0.161499 0.355663
vt 0.500000 0.500000
vt 0.500000 0.323223
vt 0.691342 0.500000
vt 0.669251 0.330749
vt 0.853554 0.500000
vt 0.838502 0.355663
vt 0.355663 0.161498
vt 0.211325 0.211325
vt 0.500000 0.146447
vt 0.644338 0.161498
vt 0.788675 0.211325
vt 0.146447 0.500000
vt 0.308658 0.500000
vt 0.330749 0.330749
vt 0.161498 0.355663
vt 0.500000 0.500000
vt 0.500000 0.323223
vt 0.691342 0.500000
vt 0.669251 0.330749
vt 0.853553 0.500000
vt 0.838502 0.355663
vt 0.355662 0.161498
vt 0.211325 0.211325
vt 0.500000 0.146447
vt 0.644337 0.161498
vt 0.788675 0.211325
vt 0.146447 0.500000
vt 0.308658 0.500000
vt 0.330749 0.330749
vt 0.161498 0.355662
vt 0.500000 0.500000
vt 0.500000 0.323223
vt 0.691342 0.500000
vt 0.669251 0.330749
vt 0.853553 0.500000
vt 0.838502 0.355662
vt 0.355662 0.161498
vt 0.211325 0.211325
vt 0.500000 0.146447
vt 0.644338 0.161498
vt 0.788675 0.211325
vt 0.146447 0.500000
vt 0.308658 0.500000
vt 0.161498 0.355662
vt 0.669251 0.330749
vt 0.838502 0.355662
vt 0.355662 0.161498
vt 0.644338 0.161498
vt 0.788675 0.211325
vt 0.788675 0.211325
vt 0.644338 0.161499
vt 0.669251 0.330749
vt 0.838502 0.355663
vt 0.500000 0.323223
vt 0.355663 0.161498
vt 0.330749 0.330749
vt 0.211325 0.211325
vt 0.161498 0.355662
vt 0.676777 0.500000
vt 0.853553 0.500000
vt 0.500000 0.500000
vt 0.323223 0.500000
vt 0.146447 0.500000
vt 0.669251 0.669251
vt 0.838501 0.644338
vt 0.500000 0.676777
vt 0.330749 0.669251
vt 0.161498 0.644337
vt 0.644337 0.838502
vt 0.788675 0.788675
vt 0.500000 0.853553
vt 0.355662 0.838502
vt 0.211325 0.788675
vt 0.691342 1.000000
vt 0.500000 1.000000
vt 0.853554 1.000000
vt 0.308658 1.000000
vt 0.146447 1.000000
vt 0.500000 1.000000
vt 0.691342 1.000000
vt 0.853553 1.000000
vt 0.308658 1.000000
vt 0.146447 1.000000
vt 0.500000 1.000000
vt 0.691342 1.000000
vt 0.853553 1.000000
vt 0.308658 1.000000
vt 0.146447 1.000000
vt 0.308658 1.000000
vt 0.146447 1.000000
vt 0.500000 1.000000
vt 0.500000 0.500000
vt 0.146446 0.853553
vt 0.308658 0.961939
vt 0.500000 -0.000000
vt 0.853553 0.146446
vt 0.691342 0.038060
vt 1.000000 0.500000
vt 0.853553 0.853553
vt 0.961940 0.691341
vt -0.000000 0.499999
vt 0.146447 0.146446
vt 0.038060 0.308658
vt 0.961940 0.308658
vt 0.038060 0.691341
vt 0.308658 0.038060
vt 0.691342 0.961939
s 0
f 17/1/1 18/2/1 22/3/1 21/4/1
f 18/2/2 19/5/2 23/6/2 22/3/2
f 19/5/3 20/7/3 24/8/3 23/6/3
f 20/7/4 25/9/4 29/10/4 24/8/4
f 21/4/5 22/3/5 50/11/5 49/12/5
f 22/3/6 23/6/6 51/13/6 50/11/6
f 23/6/7 24/8/7 52/14/7 51/13/7
f 24/8/8 29/10/8 53/15/8 52/14/8
f 25/16/9 26/17/9 30/18/9 29/19/9
f 26/17/10 27/20/10 31/21/10 30/18/10
f 27/20/11 28/22/11 32/23/11 31/21/11
f 28/22/12 33/24/12 37/25/12 32/23/12
f 29/19/13 30/18/13 58/26/13 53/27/13
f 30/18/14 31/21/14 63/28/14 58/26/14
f 31/21/15 32/23/15 68/29/15 63/28/15
f 32/23/16 37/25/16 73/30/16 68/29/16
f 33/31/17 34/32/17 38/33/17 37/34/17
f 34/32/18 35/35/18 39/36/18 38/33/18
f 35/35/19 36/37/19 40/38/19 39/36/19
f 36/37/20 41/39/20 45/40/20 40/38/20
f 37/34/21 38/33/21 72/41/21 73/42/21
f 38/33/22 39/36/22 71/43/22 72/41/22
f 39/36/23 40/38/23 70/44/23 71/43/23
f 40/38/24 45/40/24 69/45/24 70/44/24
f 41/46/25 42/47/25 46/33/25 45/48/25
f 42/47/26 43/35/26 47/36/26 46/33/26
f 43/35/27 44/37/27 48/49/27 47/36/27
f 44/37/28 17/39/28 21/50/28 48/49/28
f 45/48/29 46/33/29 64/51/29 69/42/29
f 46/33/30 47/36/30 59/43/30 64/51/30
f 47/36/31 48/49/31 54/52/31 59/43/31
f 48/49/32 21/50/32 49/53/32 54/52/32
f 49/54/33 50/55/33 55/56/33 54/57/33
f 50/55/34 51/13/34 56/58/34 55/56/34
f 51/13/35 52/59/35 57/60/35 56/58/35
f 52/59/36 53/61/36 58/62/36 57/60/36
f 54/57/37 55/56/37 60/63/37 59/64/37
f 55/56/38 56/58/38 61/65/38 60/63/38
f 56/58/39 57/60/39 62/66/39 61/65/39
f 57/60/40 58/62/40 63/67/40 62/66/40
f 59/64/41 60/63/41 65/68/41 64/69/41
f 60/63/42 61/65/42 66/70/42 65/68/42
f 61/65/43 62/66/43 67/71/43 66/70/43
f 62/66/44 63/67/44 68/72/44 67/71/44
f 64/69/45 65/68/45 70/73/45 69/74/45
f 65/68/46 66/70/46 71/75/46 70/73/46
f 66/70/47 67/71/47 72/76/47 71/75/47
f 67/71/48 68/72/48 73/77/48 72/76/48
f 16/78/49 20/7/49 19/5/49 1/79/49
f 15/80/50 25/9/50 20/7/50 16/78/50
f 14/81/51 26/17/51 25/16/51 15/82/51
f 13/83/52 27/20/52 26/17/52 14/81/52
f 12/84/53 28/22/53 27/20/53 13/83/53
f 11/85/54 33/24/54 28/22/54 12/84/54
f 10/86/55 34/32/55 33/31/55 11/87/55
f 9/88/56 35/35/56 34/32/56 10/86/56
f 8/89/57 36/37/57 35/35/57 9/88/57
f 7/90/58 41/39/58 36/37/58 8/89/58
f 6/91/59 42/47/59 41/46/59 7/92/59
f 5/88/60 43/35/60 42/47/60 6/91/60
f 4/89/61 44/37/61 43/35/61 5/88/61
f 3/90/62 17/39/62 44/37/62 4/89/62
f 2/93/63 18/2/63 17/1/63 3/94/63
f 1/79/64 19/5/64 18/2/64 2/93/64
f 1/95/65 74/96/65 15/97/65 16/98/65
f 9/99/65 74/96/65 7/100/65 8/101/65
f 5/102/65 74/96/65 3/103/65 4/104/65
f 13/105/65 74/96/65 11/106/65 12/107/65
f 7/100/65 74/96/65 5/102/65 6/108/65
f 15/97/65 74/96/65 13/105/65 14/109/65
f 11/106/65 74/96/65 9/99/65 10/110/65
f 3/103/65 74/96/65 1/95/65 2/111/65
