# Blender 5.1.0
# www.blender.org
o CylinderGeometry
v 0.500000 0.000000 0.000000
v 0.500000 1.000000 0.000000
v 0.691342 0.000000 0.038060
v 0.691342 1.000000 0.038060
v 0.853553 0.000000 0.146447
v 0.853553 1.000000 0.146447
v 0.961940 0.000000 0.308658
v 0.961940 1.000000 0.308658
v 1.000000 0.000000 0.500000
v 1.000000 1.000000 0.500000
v 0.961940 0.000000 0.691342
v 0.961940 1.000000 0.691342
v 0.853553 0.000000 0.853553
v 0.853553 1.000000 0.853553
v 0.691342 0.000000 0.961940
v 0.691342 1.000000 0.961940
v 0.500000 0.000000 1.000000
v 0.500000 1.000000 1.000000
v 0.308658 0.000000 0.961940
v 0.308658 1.000000 0.961940
v 0.146447 0.000000 0.853553
v 0.146447 1.000000 0.853553
v 0.038060 0.000000 0.691342
v 0.038060 1.000000 0.691342
v 0.000000 0.000000 0.500000
v 0.000000 1.000000 0.500000
v 0.038060 0.000000 0.308658
v 0.038060 1.000000 0.308658
v 0.146447 0.000000 0.146447
v 0.146447 1.000000 0.146447
v 0.308658 0.000000 0.038060
v 0.308658 1.000000 0.038060
v 0.500000 1.000000 0.500000
v 0.500000 0.000000 0.500000
vn 0.1951 -0.0000 -0.9808
vn 0.5556 -0.0000 -0.8315
vn 0.8315 -0.0000 -0.5556
vn 0.9808 -0.0000 -0.1951
vn 0.9808 -0.0000 0.1951
vn 0.8315 -0.0000 0.5556
vn 0.5556 -0.0000 0.8315
vn 0.1951 -0.0000 0.9808
vn -0.1951 -0.0000 0.9808
vn -0.5556 -0.0000 0.8315
vn -0.8315 -0.0000 0.5556
vn -0.9808 -0.0000 0.1951
vn -0.9808 -0.0000 -0.1951
vn -0.8315 -0.0000 -0.5556
vn -0.0000 1.0000 -0.0000
vn -0.5556 -0.0000 -0.8315
vn -0.1951 -0.0000 -0.9808
vn -0.0000 -1.0000 -0.0000
vt 0.500000 1.000000
vt 0.500000 0.000000
vt 0.308658 0.000000
vt 0.308658 1.000000
vt 0.146447 0.000000
vt 0.146447 1.000000
vt 0.853553 1.000000
vt 0.853553 0.000000
vt 0.691342 0.000000
vt 0.691342 1.000000
vt 0.500000 0.000000
vt 0.500000 1.000000
vt 0.308658 0.000000
vt 0.308658 1.000000
vt 0.146447 0.000000
vt 0.146447 1.000000
vt 0.308658 0.000000
vt 0.308658 1.000000
vt 0.146447 0.000000
vt 0.146447 1.000000
vt 0.853553 1.000000
vt 0.853553 0.000000
vt 0.691342 0.000000
vt 0.691342 1.000000
vt 0.500000 0.000000
vt 0.500000 1.000000
vt 0.308658 0.000000
vt 0.308658 1.000000
vt 0.146447 0.000000
vt 0.146447 1.000000
vt 0.691342 0.038060
vt 0.500000 0.000000
vt 0.500000 0.500000
vt 0.853554 0.146447
vt 0.853554 1.000000
vt 0.853554 0.000000
vt 0.691342 0.000000
vt 0.691342 1.000000
vt 0.500000 1.000000
vt 0.500000 0.500000
vt 0.146446 0.853553
vt 0.308658 0.961939
vt 1.000000 0.500000
vt 0.853553 0.853554
vt 0.961940 0.691342
vt 0.308659 0.038060
vt 0.146447 0.146446
vt 0.500000 1.000000
vt 0.146446 0.853553
vt 0.308658 0.961940
vt 0.961940 0.308659
vt 0.000000 0.500000
vt 0.038060 0.691341
vt 0.691341 0.961940
vt 0.038060 0.308658
vt -0.000000 0.499999
vt 0.146447 0.146446
vt 0.038060 0.308658
vt 0.500000 -0.000000
vt 0.853553 0.146446
vt 0.691342 0.038060
vt 0.853553 0.853553
vt 0.961940 0.691341
vt 1.000000 0.500000
vt 0.691342 0.961939
vt 0.308658 0.038060
vt 0.038060 0.691341
vt 0.961940 0.308658
s 0
f 1/1/1 2/2/1 4/3/1 3/4/1
f 3/4/2 4/3/2 6/5/2 5/6/2
f 5/7/3 6/8/3 8/9/3 7/10/3
f 7/10/4 8/9/4 10/11/4 9/12/4
f 9/12/5 10/11/5 12/13/5 11/14/5
f 11/14/6 12/13/6 14/15/6 13/16/6
f 13/7/7 14/8/7 16/9/7 15/10/7
f 15/10/8 16/9/8 18/11/8 17/12/8
f 17/12/9 18/11/9 20/17/9 19/18/9
f 19/18/10 20/17/10 22/19/10 21/20/10
f 21/21/11 22/22/11 24/23/11 23/24/11
f 23/24/12 24/23/12 26/25/12 25/26/12
f 25/26/13 26/25/13 28/27/13 27/28/13
f 27/28/14 28/27/14 30/29/14 29/30/14
f 4/31/15 2/32/15 33/33/15 6/34/15
f 29/35/16 30/36/16 32/37/16 31/38/16
f 31/38/17 32/37/17 2/2/17 1/1/17
f 1/39/18 34/40/18 29/41/18 31/42/18
f 10/43/15 33/33/15 14/44/15 12/45/15
f 33/33/15 2/32/15 32/46/15 30/47/15
f 18/48/15 33/33/15 22/49/15 20/50/15
f 6/34/15 33/33/15 10/43/15 8/51/15
f 22/49/15 33/33/15 26/52/15 24/53/15
f 14/44/15 33/33/15 18/48/15 16/54/15
f 30/47/15 28/55/15 26/52/15 33/33/15
f 25/56/18 34/40/18 21/57/18 23/58/18
f 17/59/18 34/40/18 13/60/18 15/61/18
f 34/40/18 5/62/18 7/63/18 9/64/18
f 5/62/18 34/40/18 1/39/18 3/65/18
f 21/57/18 34/40/18 17/59/18 19/66/18
f 29/41/18 34/40/18 25/56/18 27/67/18
f 13/60/18 34/40/18 9/64/18 11/68/18
