# Blender 5.1.0
# www.blender.org
o CylinderBendGeometry
v 0.500000 0.000000 0.000000
v 0.691342 0.000000 0.038060
v 0.853553 0.000000 0.146447
v 0.961940 0.000000 0.308658
v 1.000000 0.000000 0.500000
v 0.961940 0.000000 0.691342
v 0.853553 0.000000 0.853553
v 0.691342 0.000000 0.961940
v 0.308658 0.000000 0.961940
v 0.146447 0.000000 0.853553
v 0.038060 0.000000 0.691342
v 0.000000 0.000000 0.500000
v 0.038060 0.000000 0.308658
v 0.146447 0.000000 0.146447
v 0.308658 0.000000 0.038060
v 0.691342 0.500000 0.038060
v 0.500000 0.500000 0.000000
v 0.308658 0.500000 0.038060
v 0.669251 0.669251 0.061014
v 0.500000 0.676777 0.032293
v 0.330749 0.669251 0.061014
v 0.146447 0.500000 0.146447
v 0.038060 0.500000 0.308658
v 0.000000 0.500000 0.500000
v 0.038060 0.691342 0.500000
v 0.500000 0.500000 1.000000
v 1.000000 0.500000 0.500000
v 0.961940 0.500000 0.308658
v 0.961940 0.691342 0.500000
v 0.938986 0.669251 0.330749
v 0.211325 0.788675 0.211325
v 0.838502 0.838502 0.355662
v 0.161498 0.838502 0.355662
v 0.853553 0.853553 0.500000
v 0.146447 0.853553 0.500000
v 0.146447 0.146447 0.853553
v 0.500000 0.000000 1.000000
v 0.691342 0.038060 1.000000
v 0.853553 0.146447 1.000000
v 0.961940 0.308658 1.000000
v 1.000000 0.500000 1.000000
v 0.961940 0.691342 1.000000
v 0.853553 0.853553 1.000000
v 0.691342 0.961940 1.000000
v 0.500000 1.000000 1.000000
v 0.308658 0.961940 1.000000
v 0.146447 0.853553 1.000000
v 0.038060 0.691342 1.000000
v 0.000000 0.500000 1.000000
v 0.038060 0.308658 1.000000
v 0.146447 0.146447 1.000000
v 0.308658 0.038060 1.000000
v 0.500000 0.000000 0.500000
v 0.061014 0.669251 0.330749
v 0.961940 0.308658 0.691342
v 0.308658 0.961940 0.500000
v 0.500000 1.000000 0.500000
v 0.691342 0.961940 0.500000
v 0.330749 0.938986 0.330749
v 0.500000 0.967707 0.323223
v 0.669251 0.938986 0.330749
v 0.038060 0.308658 0.691342
v 0.691342 0.038060 0.961940
v 0.853553 0.500000 0.146447
v 0.308658 0.038060 0.961940
v 0.838502 0.644338 0.161498
v 0.161498 0.644338 0.161498
v 0.788675 0.788675 0.211325
v 0.644338 0.838502 0.161498
v 0.500000 0.853553 0.146447
v 0.355662 0.838502 0.161498
v 0.853553 0.146447 0.853553
vn 0.5347 0.1638 -0.8290
vn 0.1829 0.1664 -0.9689
vn -0.1829 0.1664 -0.9689
vn -0.5347 0.1638 -0.8290
vn 0.4701 0.4701 -0.7470
vn 0.1546 0.5288 -0.8346
vn -0.1546 0.5288 -0.8346
vn -0.4701 0.4701 -0.7470
vn -0.8290 0.1638 -0.5347
vn -0.9690 0.1747 -0.1747
vn -0.7470 0.4701 -0.4701
vn -0.8290 0.5347 -0.1638
vn 0.9690 0.1747 -0.1747
vn 0.8290 0.1638 -0.5347
vn 0.8290 0.5347 -0.1638
vn 0.7470 0.4701 -0.4701
vn -0.1951 -0.0000 -0.9808
vn -0.5556 -0.0000 -0.8315
vn -0.8315 -0.0000 -0.5556
vn -0.9808 -0.0000 -0.1951
vn -0.9808 -0.0000 0.1951
vn -0.8315 -0.0000 0.5556
vn -0.5556 -0.0000 0.8315
vn 0.1951 -0.0000 0.9808
vn 0.5556 -0.0000 0.8315
vn 0.8315 -0.0000 0.5556
vn 0.9808 -0.0000 0.1951
vn 0.9808 -0.0000 -0.1951
vn 0.8315 -0.0000 -0.5556
vn 0.5556 -0.0000 -0.8315
vn 0.1951 -0.0000 -0.9808
vn -0.0000 -1.0000 -0.0000
vn -0.5347 0.8290 -0.1638
vn -0.1829 0.9689 -0.1664
vn 0.1829 0.9689 -0.1664
vn 0.5347 0.8290 -0.1638
vn -0.4701 0.7470 -0.4701
vn -0.1546 0.8346 -0.5288
vn 0.1546 0.8346 -0.5288
vn 0.4701 0.7470 -0.4701
vn -0.1951 -0.9808 -0.0000
vn -0.5556 -0.8315 -0.0000
vn -0.8315 -0.5556 -0.0000
vn -0.9808 -0.1951 -0.0000
vn -0.9808 0.1951 -0.0000
vn -0.8315 0.5556 -0.0000
vn -0.5556 0.8315 -0.0000
vn -0.1951 0.9808 -0.0000
vn 0.1951 0.9808 -0.0000
vn 0.5556 0.8315 -0.0000
vn 0.8315 0.5556 -0.0000
vn 0.9808 0.1951 -0.0000
vn 0.9808 -0.1951 -0.0000
vn 0.8315 -0.5556 -0.0000
vn 0.5556 -0.8315 -0.0000
vn -0.0000 -0.0000 1.0000
vn -0.1951 -0.0000 0.9808
vn 0.1951 -0.9808 -0.0000
vt 0.146447 0.500000
vt 0.308658 0.500000
vt 0.330749 0.330749
vt 0.161499 0.355663
vt 0.500000 0.500000
vt 0.500000 0.323223
vt 0.691342 0.500000
vt 0.669251 0.330749
vt 0.853554 0.500000
vt 0.838502 0.355663
vt 0.355663 0.161498
vt 0.211325 0.211325
vt 0.500000 0.146447
vt 0.644338 0.161498
vt 0.788675 0.211325
vt 0.146447 0.500000
vt 0.308658 0.500000
vt 0.330749 0.330749
vt 0.161498 0.355663
vt 0.500000 0.500000
vt 0.500000 0.308658
vt 0.355662 0.161498
vt 0.211325 0.211325
vt 0.500000 0.146447
vt 0.500000 0.500000
vt 0.691342 0.500000
vt 0.669251 0.330749
vt 0.500000 0.308658
vt 0.853553 0.500000
vt 0.838502 0.355662
vt 0.644338 0.161498
vt 0.500000 0.146447
vt 0.788675 0.211325
vt 0.691342 1.000000
vt 0.500000 1.000000
vt 0.853554 1.000000
vt 0.308658 1.000000
vt 0.146447 1.000000
vt 0.500000 1.000000
vt 0.691342 1.000000
vt 0.691342 0.691342
vt 0.853553 1.000000
vt 0.853553 0.853553
vt 0.308658 1.000000
vt 0.308658 0.961940
vt 0.146447 0.853553
vt 0.146447 1.000000
vt 0.691342 1.000000
vt 0.691342 0.961940
vt 0.500000 1.000000
vt 0.853553 1.000000
vt 0.853553 0.853553
vt 0.308658 1.000000
vt 0.308658 0.691342
vt 0.146447 0.853553
vt 0.146447 1.000000
vt 0.308658 1.000000
vt 0.146447 1.000000
vt 0.500000 1.000000
vt 0.500000 0.500000
vt 0.146446 0.853553
vt 0.308658 0.961939
vt 0.500000 -0.000000
vt 0.853553 0.146446
vt 0.691342 0.038060
vt 1.000000 0.500000
vt 0.853553 0.853553
vt 0.961940 0.691341
vt -0.000000 0.499999
vt 0.146447 0.146446
vt 0.038060 0.308658
vt 0.961940 0.308658
vt 0.038060 0.691341
vt 0.308658 0.038060
vt 0.691342 0.961939
vt 0.146447 0.500000
vt 0.308658 0.500000
vt 0.330749 0.330749
vt 0.161498 0.355662
vt 0.500000 0.500000
vt 0.500000 0.323223
vt 0.691342 0.500000
vt 0.669251 0.330749
vt 0.853553 0.500000
vt 0.838502 0.355663
vt 0.355663 0.161498
vt 0.211325 0.211325
vt 0.500000 0.146447
vt 0.644338 0.161499
vt 0.788675 0.211325
vt 0.308658 -0.000000
vt 0.308658 0.038060
vt 0.146447 -0.000001
vt 0.146447 0.146446
vt 1.000000 0.691342
vt 1.000000 0.853553
vt 1.000000 0.500000
vt 1.000000 0.308658
vt 1.000000 0.146447
vt 0.308658 1.000000
vt 0.146446 1.000000
vt 0.500000 1.000000
vt 0.691341 1.000000
vt 0.853553 1.000000
vt 0.000000 0.308658
vt 0.000000 0.146447
vt 0.000000 0.500000
vt 0.000000 0.691342
vt 0.000000 0.853553
vt 0.691342 -0.000000
vt 0.853553 0.146446
vt 0.853553 -0.000000
vt 0.146447 0.853553
vt 0.500000 0.000000
vt 0.853553 0.146447
vt 0.691342 0.038060
vt 1.000000 0.500000
vt 0.853553 0.853553
vt 0.961940 0.691342
vt 0.000000 0.500000
vt 0.146447 0.146447
vt 0.038060 0.308658
vt 0.961940 0.308658
vt 0.038060 0.691342
vt 0.308658 0.038060
s 0
f 64/1/1 16/2/1 19/3/1 66/4/1
f 16/2/2 17/5/2 20/6/2 19/3/2
f 17/5/3 18/7/3 21/8/3 20/6/3
f 18/7/4 22/9/4 67/10/4 21/8/4
f 66/4/5 19/3/5 69/11/5 68/12/5
f 19/3/6 20/6/6 70/13/6 69/11/6
f 20/6/7 21/8/7 71/14/7 70/13/7
f 21/8/8 67/10/8 31/15/8 71/14/8
f 22/16/9 23/17/9 54/18/9 67/19/9
f 23/17/10 24/20/10 25/21/10 54/18/10
f 67/19/11 54/18/11 33/22/11 31/23/11
f 54/18/12 25/21/12 35/24/12 33/22/12
f 27/25/13 28/26/13 30/27/13 29/28/13
f 28/26/14 64/29/14 66/30/14 30/27/14
f 29/28/15 30/27/15 32/31/15 34/32/15
f 30/27/16 66/30/16 68/33/16 32/31/16
f 15/34/17 18/7/17 17/5/17 1/35/17
f 14/36/18 22/9/18 18/7/18 15/34/18
f 13/37/19 23/17/19 22/16/19 14/38/19
f 12/39/20 24/20/20 23/17/20 13/37/20
f 11/40/21 62/41/21 24/20/21 12/39/21
f 10/42/22 36/43/22 62/41/22 11/40/22
f 9/44/23 65/45/23 36/46/23 10/47/23
f 8/48/24 63/49/24 37/50/24
f 7/51/25 72/52/25 63/49/25 8/48/25
f 6/53/26 55/54/26 72/55/26 7/56/26
f 5/50/27 27/25/27 55/54/27 6/53/27
f 4/48/28 28/26/28 27/25/28 5/50/28
f 3/51/29 64/29/29 28/26/29 4/48/29
f 2/57/30 16/2/30 64/1/30 3/58/30
f 1/35/31 17/5/31 16/2/31 2/57/31
f 1/59/32 53/60/32 14/61/32 15/62/32
f 37/63/32 53/60/32 7/64/32 8/65/32
f 5/66/32 53/60/32 3/67/32 4/68/32
f 12/69/32 53/60/32 10/70/32 11/71/32
f 7/64/32 53/60/32 5/66/32 6/72/32
f 14/61/32 53/60/32 12/69/32 13/73/32
f 10/70/32 53/60/32 37/63/32 9/74/32
f 3/67/32 53/60/32 1/59/32 2/75/32
f 35/76/33 56/77/33 59/78/33 33/79/33
f 56/77/34 57/80/34 60/81/34 59/78/34
f 57/80/35 58/82/35 61/83/35 60/81/35
f 58/82/36 34/84/36 32/85/36 61/83/36
f 33/79/37 59/78/37 71/86/37 31/87/37
f 59/78/38 60/81/38 70/88/38 71/86/38
f 60/81/39 61/83/39 69/89/39 70/88/39
f 61/83/40 32/85/40 68/90/40 69/89/40
f 52/91/41 65/92/41 37/63/41
f 51/93/42 36/94/42 65/92/42 52/91/42
f 50/95/43 62/41/43 36/43/43 51/96/43
f 49/97/44 24/20/44 62/41/44 50/95/44
f 48/98/45 25/21/45 24/20/45 49/97/45
f 47/99/46 35/24/46 25/21/46 48/98/46
f 46/100/47 56/77/47 35/76/47 47/101/47
f 45/102/48 57/80/48 56/77/48 46/100/48
f 44/103/49 58/82/49 57/80/49 45/102/49
f 43/104/50 34/84/50 58/82/50 44/103/50
f 42/105/51 29/28/51 34/32/51 43/106/51
f 41/107/52 27/25/52 29/28/52 42/105/52
f 40/108/53 55/54/53 27/25/53 41/107/53
f 39/109/54 72/55/54 55/54/54 40/108/54
f 38/110/55 63/65/55 72/111/55 39/112/55
f 37/50/56 26/25/56 51/113/56 52/45/56
f 45/114/56 26/25/56 43/115/56 44/116/56
f 41/117/56 26/25/56 39/118/56 40/119/56
f 49/120/56 26/25/56 47/121/56 48/122/56
f 43/115/56 26/25/56 41/117/56 42/123/56
f 51/113/56 26/25/56 49/120/56 50/124/56
f 47/121/56 26/25/56 45/114/56 46/125/56
f 39/118/56 26/25/56 37/50/56 38/49/56
f 65/45/57 9/44/57 37/50/57
f 63/65/58 38/110/58 37/63/58
