# Blender 5.1.0
# www.blender.org
o SphereGeometry
v 0.788675 0.211325 0.211325
v 0.644338 0.161498 0.161498
v 0.500000 0.146447 0.146447
v 0.355662 0.161498 0.161498
v 0.838502 0.355662 0.161498
v 0.669251 0.330749 0.061014
v 0.500000 0.323223 0.032293
v 0.330749 0.330749 0.061014
v 0.853553 0.500000 0.146447
v 0.676777 0.500000 0.032293
v 0.500000 0.500000 0.000000
v 0.323223 0.500000 0.032293
v 0.838502 0.644338 0.161498
v 0.669251 0.669251 0.061014
v 0.500000 0.676777 0.032293
v 0.330749 0.669251 0.061014
v 0.211325 0.211325 0.211325
v 0.161498 0.161498 0.355662
v 0.146447 0.146447 0.500000
v 0.161498 0.161498 0.644338
v 0.161498 0.355662 0.161498
v 0.061014 0.330749 0.330749
v 0.032293 0.323223 0.500000
v 0.061014 0.330749 0.669251
v 0.146447 0.500000 0.146447
v 0.032293 0.500000 0.323223
v 0.000000 0.500000 0.500000
v 0.032293 0.500000 0.676777
v 0.161498 0.644338 0.161498
v 0.061014 0.669251 0.330749
v 0.032293 0.676777 0.500000
v 0.061014 0.669251 0.669251
v 0.211325 0.211325 0.788675
v 0.355662 0.161498 0.838502
v 0.500000 0.146447 0.853553
v 0.644338 0.161498 0.838502
v 0.161498 0.355662 0.838502
v 0.330749 0.330749 0.938986
v 0.500000 0.323223 0.967707
v 0.669251 0.330749 0.938986
v 0.146447 0.500000 0.853553
v 0.323223 0.500000 0.967707
v 0.500000 0.500000 1.000000
v 0.676777 0.500000 0.967707
v 0.161498 0.644338 0.838502
v 0.330749 0.669251 0.938986
v 0.500000 0.676777 0.967707
v 0.669251 0.669251 0.938986
v 0.788675 0.211325 0.788675
v 0.838502 0.161498 0.644338
v 0.853553 0.146447 0.500000
v 0.838502 0.161498 0.355662
v 0.838502 0.355662 0.838502
v 0.938986 0.330749 0.669251
v 0.967707 0.323223 0.500000
v 0.938986 0.330749 0.330749
v 0.853553 0.500000 0.853553
v 0.967707 0.500000 0.676777
v 1.000000 0.500000 0.500000
v 0.967707 0.500000 0.323223
v 0.838502 0.644338 0.838502
v 0.938986 0.669251 0.669251
v 0.967707 0.676777 0.500000
v 0.938986 0.669251 0.330749
v 0.669251 0.061014 0.669251
v 0.500000 0.032293 0.676777
v 0.330749 0.061014 0.669251
v 0.676777 0.032293 0.500000
v 0.500000 0.000000 0.500000
v 0.323223 0.032293 0.500000
v 0.669251 0.061014 0.330749
v 0.500000 0.032293 0.323223
v 0.330749 0.061014 0.330749
v 0.788675 0.788675 0.211325
v 0.644338 0.838502 0.161498
v 0.500000 0.853553 0.146447
v 0.355662 0.838502 0.161498
v 0.211325 0.788675 0.211325
v 0.838502 0.838502 0.355662
v 0.669251 0.938986 0.330749
v 0.500000 0.967707 0.323223
v 0.330749 0.938986 0.330749
v 0.161498 0.838502 0.355662
v 0.853553 0.853553 0.500000
v 0.676777 0.967707 0.500000
v 0.500000 1.000000 0.500000
v 0.323223 0.967707 0.500000
v 0.146447 0.853553 0.500000
v 0.838502 0.838502 0.644338
v 0.669251 0.938986 0.669251
v 0.500000 0.967707 0.676777
v 0.330749 0.938986 0.669251
v 0.161498 0.838502 0.644338
v 0.788675 0.788675 0.788675
v 0.644338 0.838502 0.838502
v 0.500000 0.853553 0.853553
v 0.355662 0.838502 0.838502
v 0.211325 0.788675 0.788675
vn 0.4701 -0.4701 -0.7470
vn 0.1546 -0.5288 -0.8346
vn -0.1546 -0.5288 -0.8346
vn -0.4701 -0.4701 -0.7470
vn 0.5288 -0.1546 -0.8346
vn 0.1747 -0.1747 -0.9690
vn -0.1747 -0.1747 -0.9690
vn -0.5288 -0.1546 -0.8346
vn 0.5288 0.1546 -0.8346
vn 0.1747 0.1747 -0.9690
vn -0.1747 0.1747 -0.9690
vn -0.5288 0.1546 -0.8346
vn 0.4701 0.4701 -0.7470
vn 0.1546 0.5288 -0.8346
vn -0.1546 0.5288 -0.8346
vn -0.4701 0.4701 -0.7470
vn -0.7470 -0.4701 -0.4701
vn -0.8346 -0.5288 -0.1546
vn -0.8346 -0.5288 0.1546
vn -0.7470 -0.4701 0.4701
vn -0.8346 -0.1546 -0.5288
vn -0.9690 -0.1747 -0.1747
vn -0.9690 -0.1747 0.1747
vn -0.8346 -0.1546 0.5288
vn -0.8346 0.1546 -0.5288
vn -0.9690 0.1747 -0.1747
vn -0.9690 0.1747 0.1747
vn -0.8346 0.1546 0.5288
vn -0.7470 0.4701 -0.4701
vn -0.8346 0.5288 -0.1546
vn -0.8346 0.5288 0.1546
vn -0.7470 0.4701 0.4701
vn -0.4701 -0.4701 0.7470
vn -0.1546 -0.5288 0.8346
vn 0.1546 -0.5288 0.8346
vn 0.4701 -0.4701 0.7470
vn -0.5288 -0.1546 0.8346
vn -0.1747 -0.1747 0.9690
vn 0.1747 -0.1747 0.9690
vn 0.5288 -0.1546 0.8346
vn -0.5288 0.1546 0.8346
vn -0.1747 0.1747 0.9690
vn 0.1747 0.1747 0.9690
vn 0.5288 0.1546 0.8346
vn -0.4701 0.4701 0.7470
vn -0.1546 0.5288 0.8346
vn 0.1546 0.5288 0.8346
vn 0.4701 0.4701 0.7470
vn 0.7470 -0.4701 0.4701
vn 0.8346 -0.5288 0.1546
vn 0.8346 -0.5288 -0.1546
vn 0.7470 -0.4701 -0.4701
vn 0.8346 -0.1546 0.5288
vn 0.9690 -0.1747 0.1747
vn 0.9690 -0.1747 -0.1747
vn 0.8346 -0.1546 -0.5288
vn 0.8346 0.1546 0.5288
vn 0.9690 0.1747 0.1747
vn 0.9690 0.1747 -0.1747
vn 0.8346 0.1546 -0.5288
vn 0.7470 0.4701 0.4701
vn 0.8346 0.5288 0.1546
vn 0.8346 0.5288 -0.1546
vn 0.7470 0.4701 -0.4701
vn 0.4701 -0.7470 0.4701
vn 0.1546 -0.8346 0.5288
vn -0.1546 -0.8346 0.5288
vn -0.4701 -0.7470 0.4701
vn 0.5288 -0.8346 0.1546
vn 0.1747 -0.9690 0.1747
vn -0.1747 -0.9690 0.1747
vn -0.5288 -0.8346 0.1546
vn 0.5288 -0.8346 -0.1546
vn 0.1747 -0.9690 -0.1747
vn -0.1747 -0.9690 -0.1747
vn -0.5288 -0.8346 -0.1546
vn 0.4701 -0.7470 -0.4701
vn 0.1546 -0.8346 -0.5288
vn -0.1546 -0.8346 -0.5288
vn -0.4701 -0.7470 -0.4701
vn 0.4701 0.7470 -0.4701
vn 0.1546 0.8346 -0.5288
vn -0.1546 0.8346 -0.5288
vn -0.4701 0.7470 -0.4701
vn 0.5288 0.8346 -0.1546
vn 0.1747 0.9690 -0.1747
vn -0.1747 0.9690 -0.1747
vn -0.5288 0.8346 -0.1546
vn 0.5288 0.8346 0.1546
vn 0.1747 0.9690 0.1747
vn -0.1747 0.9690 0.1747
vn -0.5288 0.8346 0.1546
vn 0.4701 0.7470 0.4701
vn 0.1546 0.8346 0.5288
vn -0.1546 0.8346 0.5288
vn -0.4701 0.7470 0.4701
vt 0.211325 0.788675
vt 0.355663 0.838502
vt 0.330749 0.669251
vt 0.161499 0.644338
vt 0.500000 0.853553
vt 0.500000 0.676777
vt 0.644338 0.838502
vt 0.669251 0.669251
vt 0.788675 0.788675
vt 0.838502 0.644338
vt 0.323223 0.500000
vt 0.146447 0.500000
vt 0.500000 0.500000
vt 0.676777 0.500000
vt 0.853554 0.500000
vt 0.330749 0.330749
vt 0.161499 0.355663
vt 0.500000 0.323223
vt 0.669251 0.330749
vt 0.838502 0.355663
vt 0.355663 0.161498
vt 0.211325 0.211325
vt 0.500000 0.146447
vt 0.644338 0.161498
vt 0.788675 0.211325
vt 0.211325 0.788675
vt 0.355662 0.838502
vt 0.330749 0.669251
vt 0.161498 0.644338
vt 0.500000 0.853553
vt 0.500000 0.676777
vt 0.644337 0.838502
vt 0.669251 0.669251
vt 0.788675 0.788675
vt 0.838502 0.644338
vt 0.323223 0.500000
vt 0.146447 0.500000
vt 0.500000 0.500000
vt 0.676777 0.500000
vt 0.853553 0.500000
vt 0.330749 0.330749
vt 0.161498 0.355663
vt 0.500000 0.323223
vt 0.669251 0.330749
vt 0.838502 0.355663
vt 0.355662 0.161498
vt 0.211325 0.211325
vt 0.500000 0.146447
vt 0.644337 0.161498
vt 0.788675 0.211325
vt 0.211325 0.788675
vt 0.355662 0.838502
vt 0.330749 0.669251
vt 0.161498 0.644338
vt 0.500000 0.853553
vt 0.500000 0.676777
vt 0.644338 0.838502
vt 0.669251 0.669251
vt 0.788675 0.788675
vt 0.838502 0.644338
vt 0.323223 0.500000
vt 0.146447 0.500000
vt 0.500000 0.500000
vt 0.676777 0.500000
vt 0.853553 0.500000
vt 0.330749 0.330749
vt 0.161498 0.355662
vt 0.500000 0.323223
vt 0.669251 0.330749
vt 0.838502 0.355662
vt 0.355662 0.161498
vt 0.211325 0.211325
vt 0.500000 0.146447
vt 0.644338 0.161498
vt 0.788675 0.211325
vt 0.355662 0.838502
vt 0.161498 0.644338
vt 0.644338 0.838502
vt 0.669251 0.669251
vt 0.788675 0.788675
vt 0.838502 0.644338
vt 0.146447 0.500000
vt 0.676777 0.500000
vt 0.161498 0.355662
vt 0.669251 0.330749
vt 0.838502 0.355662
vt 0.355662 0.161498
vt 0.644338 0.161498
vt 0.788675 0.211325
vt 0.788675 0.211324
vt 0.644338 0.161498
vt 0.669251 0.330749
vt 0.838502 0.355662
vt 0.500000 0.146446
vt 0.500000 0.323223
vt 0.355662 0.161498
vt 0.330749 0.330749
vt 0.211325 0.211324
vt 0.161498 0.355662
vt 0.676777 0.500000
vt 0.853553 0.500000
vt 0.500000 0.500000
vt 0.323223 0.499999
vt 0.146447 0.499999
vt 0.669251 0.669250
vt 0.838501 0.644337
vt 0.500000 0.676776
vt 0.330749 0.669250
vt 0.161498 0.644337
vt 0.644337 0.838501
vt 0.788675 0.788675
vt 0.500000 0.853553
vt 0.355662 0.838501
vt 0.211325 0.788674
vt 0.788675 0.211325
vt 0.644338 0.161499
vt 0.669251 0.330749
vt 0.838502 0.355663
vt 0.500000 0.323223
vt 0.355663 0.161498
vt 0.330749 0.330749
vt 0.211325 0.211325
vt 0.161498 0.355662
vt 0.676777 0.500000
vt 0.853553 0.500000
vt 0.500000 0.500000
vt 0.323223 0.500000
vt 0.146447 0.500000
vt 0.669251 0.669251
vt 0.838501 0.644338
vt 0.500000 0.676777
vt 0.330749 0.669251
vt 0.161498 0.644337
vt 0.644337 0.838502
vt 0.788675 0.788675
vt 0.500000 0.853553
vt 0.355662 0.838502
vt 0.211325 0.788675
s 0
f 1/1/1 2/2/1 6/3/1 5/4/1
f 2/2/2 3/5/2 7/6/2 6/3/2
f 3/5/3 4/7/3 8/8/3 7/6/3
f 4/7/4 17/9/4 21/10/4 8/8/4
f 5/4/5 6/3/5 10/11/5 9/12/5
f 6/3/6 7/6/6 11/13/6 10/11/6
f 7/6/7 8/8/7 12/14/7 11/13/7
f 8/8/8 21/10/8 25/15/8 12/14/8
f 9/12/9 10/11/9 14/16/9 13/17/9
f 10/11/10 11/13/10 15/18/10 14/16/10
f 11/13/11 12/14/11 16/19/11 15/18/11
f 12/14/12 25/15/12 29/20/12 16/19/12
f 13/17/13 14/16/13 75/21/13 74/22/13
f 14/16/14 15/18/14 76/23/14 75/21/14
f 15/18/15 16/19/15 77/24/15 76/23/15
f 16/19/16 29/20/16 78/25/16 77/24/16
f 17/26/17 18/27/17 22/28/17 21/29/17
f 18/27/18 19/30/18 23/31/18 22/28/18
f 19/30/19 20/32/19 24/33/19 23/31/19
f 20/32/20 33/34/20 37/35/20 24/33/20
f 21/29/21 22/28/21 26/36/21 25/37/21
f 22/28/22 23/31/22 27/38/22 26/36/22
f 23/31/23 24/33/23 28/39/23 27/38/23
f 24/33/24 37/35/24 41/40/24 28/39/24
f 25/37/25 26/36/25 30/41/25 29/42/25
f 26/36/26 27/38/26 31/43/26 30/41/26
f 27/38/27 28/39/27 32/44/27 31/43/27
f 28/39/28 41/40/28 45/45/28 32/44/28
f 29/42/29 30/41/29 83/46/29 78/47/29
f 30/41/30 31/43/30 88/48/30 83/46/30
f 31/43/31 32/44/31 93/49/31 88/48/31
f 32/44/32 45/45/32 98/50/32 93/49/32
f 33/51/33 34/52/33 38/53/33 37/54/33
f 34/52/34 35/55/34 39/56/34 38/53/34
f 35/55/35 36/57/35 40/58/35 39/56/35
f 36/57/36 49/59/36 53/60/36 40/58/36
f 37/54/37 38/53/37 42/61/37 41/62/37
f 38/53/38 39/56/38 43/63/38 42/61/38
f 39/56/39 40/58/39 44/64/39 43/63/39
f 40/58/40 53/60/40 57/65/40 44/64/40
f 41/62/41 42/61/41 46/66/41 45/67/41
f 42/61/42 43/63/42 47/68/42 46/66/42
f 43/63/43 44/64/43 48/69/43 47/68/43
f 44/64/44 57/65/44 61/70/44 48/69/44
f 45/67/45 46/66/45 97/71/45 98/72/45
f 46/66/46 47/68/46 96/73/46 97/71/46
f 47/68/47 48/69/47 95/74/47 96/73/47
f 48/69/48 61/70/48 94/75/48 95/74/48
f 49/51/49 50/76/49 54/53/49 53/77/49
f 50/76/50 51/55/50 55/56/50 54/53/50
f 51/55/51 52/78/51 56/79/51 55/56/51
f 52/78/52 1/80/52 5/81/52 56/79/52
f 53/77/53 54/53/53 58/61/53 57/82/53
f 54/53/54 55/56/54 59/63/54 58/61/54
f 55/56/55 56/79/55 60/83/55 59/63/55
f 56/79/56 5/81/56 9/65/56 60/83/56
f 57/82/57 58/61/57 62/66/57 61/84/57
f 58/61/58 59/63/58 63/68/58 62/66/58
f 59/63/59 60/83/59 64/85/59 63/68/59
f 60/83/60 9/65/60 13/86/60 64/85/60
f 61/84/61 62/66/61 89/87/61 94/72/61
f 62/66/62 63/68/62 84/73/62 89/87/62
f 63/68/63 64/85/63 79/88/63 84/73/63
f 64/85/64 13/86/64 74/89/64 79/88/64
f 49/90/65 36/91/65 65/92/65 50/93/65
f 36/91/66 35/94/66 66/95/66 65/92/66
f 35/94/67 34/96/67 67/97/67 66/95/67
f 34/96/68 33/98/68 20/99/68 67/97/68
f 50/93/69 65/92/69 68/100/69 51/101/69
f 65/92/70 66/95/70 69/102/70 68/100/70
f 66/95/71 67/97/71 70/103/71 69/102/71
f 67/97/72 20/99/72 19/104/72 70/103/72
f 51/101/73 68/100/73 71/105/73 52/106/73
f 68/100/74 69/102/74 72/107/74 71/105/74
f 69/102/75 70/103/75 73/108/75 72/107/75
f 70/103/76 19/104/76 18/109/76 73/108/76
f 52/106/77 71/105/77 2/110/77 1/111/77
f 71/105/78 72/107/78 3/112/78 2/110/78
f 72/107/79 73/108/79 4/113/79 3/112/79
f 73/108/80 18/109/80 17/114/80 4/113/80
f 74/115/81 75/116/81 80/117/81 79/118/81
f 75/116/82 76/23/82 81/119/82 80/117/82
f 76/23/83 77/120/83 82/121/83 81/119/83
f 77/120/84 78/122/84 83/123/84 82/121/84
f 79/118/85 80/117/85 85/124/85 84/125/85
f 80/117/86 81/119/86 86/126/86 85/124/86
f 81/119/87 82/121/87 87/127/87 86/126/87
f 82/121/88 83/123/88 88/128/88 87/127/88
f 84/125/89 85/124/89 90/129/89 89/130/89
f 85/124/90 86/126/90 91/131/90 90/129/90
f 86/126/91 87/127/91 92/132/91 91/131/91
f 87/127/92 88/128/92 93/133/92 92/132/92
f 89/130/93 90/129/93 95/134/93 94/135/93
f 90/129/94 91/131/94 96/136/94 95/134/94
f 91/131/95 92/132/95 97/137/95 96/136/95
f 92/132/96 93/133/96 98/138/96 97/137/96
