# Generated from CEAC Java geometry.
# Geometry: QuarterSlopeThirdGeometry
o QuarterSlopeThirdGeometry

v 1 0.5 -0
v 1 0.25 -0
v 0 0.25 -0
v 0 0.5 -0
v 1 0.75 1
v 1 0.75 -0
v 0 0.5 -0
v 0 0.5 1
v 0 0.5 1
v 1 0.5 1
v 1 0.75 1
v 1 0.75 -0
v 1 0.75 1
v 1 0.5 1
v 1 0.25 1
v 1 0 1
v 1 0 0
v 0 0.25 1
v 1 0.25 1
v 0 0.5 -0
v 0 0.25 -0
v 0 0 1
v 0 0 0
v 1 0 1
v 0 0 0
v 0 0 1
v 1 0 1

vt 1 0.5
vt 1 0.75
vt 0 0.75
vt 0 0.5
vt 0 0
vt 1 0
vt 1 1
vt 0 1
vt 0 0.5
vt 1 0.5
vt 1 0.25
vt 1 0.25
vt 0 0.25
vt 0 0.5
vt 0 0.75
vt 0 1
vt 1 1
vt 0 0.75
vt 1 0.75
vt 1 0.5
vt 1 0.75
vt 0 0
vt 0 1
vt 1 0
vt 1 1
vt 0 1
vt 1 1

f 1/1 2/2 3/3 4/4

f 5/5 6/6 7/7 8/8

f 9/9 10/10 11/11

f 4/4 12/12 1/1

f 13/13 14/14 1/1 12/12

f 2/2 15/15 16/16 17/17

f 9/9 18/18 19/19 10/10

f 14/14 15/15 2/2 1/1

f 20/20 21/21 18/18 9/9

f 22/22 23/23 17/17 24/24

f 18/18 21/21 25/25 26/26

f 3/3 2/2 17/17 23/23

f 19/19 18/18 26/26 27/27

