# Generated from CEAC Java geometry.
# Geometry: ThirdSlopeSecondGeometry
o ThirdSlopeSecondGeometry

v 1 0.333333 -0
v 1 0 0
v 0 0 0
v 0 0.333333 -0
v 1 0.333333 -0
v 1 0.666667 -0
v 1 0.666667 1
v 1 0.333333 1
v 0 0.333333 -0
v 0 0.333333 1
v 1 0.666667 1
v 1 0.666667 -0
v 1 0.666667 -0
v 0 0.333333 1
v 1 0.333333 1
v 1 0.666667 1
v 0 0 0
v 1 0 0
v 1 0 1
v 0 0 1
v 1 0 1
v 0 0.333333 -0
v 0 0 1
v 0 0.333333 1
v 0 0 1
v 1 0 1

vt 0 0.666667
vt 0 1
vt 1 1
vt 1 0.666666
vt 1 0.666667
vt 1 0.333333
vt 0 0.333333
vt 0 0.666667
vt 0 1
vt 1 1
vt 1 0
vt -0 0
vt 0 0.333333
vt 0 0.666667
vt 1 0.666667
vt 1 0.333333
vt 0 1
vt 1 1
vt 1 0
vt -0 0
vt 0 1
vt 0 0.666667
vt 1 1
vt 1 0.666667
vt 0 1
vt 1 1

f 1/1 2/2 3/3 4/4

f 5/5 6/6 7/7 8/8

f 9/9 10/10 11/11 12/12

f 4/4 13/13 1/1

f 14/14 15/15 16/16

f 17/17 18/18 19/19 20/20

f 8/8 21/21 18/18 5/5

f 22/22 17/17 23/23 24/24

f 14/14 25/25 26/26 15/15

