# Blender 5.0.0
# www.blender.org
o ThirdStairsGeometry
v 0.000000 0.000000 1.000000
v 1.000000 0.000000 1.000000
v 0.000000 0.000000 0.000000
v 1.000000 0.000000 0.000000
v 0.000000 0.333333 0.000000
v 0.000000 0.333333 1.000000
v 0.333333 0.000000 1.000000
v 0.333333 0.000000 0.000000
v 0.333333 0.333333 1.000000
v 0.666667 0.333333 1.000000
v 0.666667 0.333333 0.000000
v 0.333333 0.333333 0.000000
v 0.666667 0.666667 1.000000
v 1.000000 0.666667 1.000000
v 1.000000 0.666667 0.000000
v 0.333333 0.666667 1.000000
v 0.666667 0.666667 0.000000
v 0.333333 0.666667 0.000000
v 0.666667 1.000000 1.000000
v 1.000000 1.000000 1.000000
v 1.000000 1.000000 0.000000
v 0.666667 1.000000 0.000000
vn -0.0000 -0.0000 -1.0000
vn -1.0000 -0.0000 -0.0000
vn -0.0000 -0.0000 1.0000
vn -0.0000 1.0000 -0.0000
vn -0.0000 -1.0000 -0.0000
vn 1.0000 -0.0000 -0.0000
vt 0.000000 1.000000
vt 0.333334 0.666667
vt 0.333334 0.333333
vt 0.000000 0.333333
vt -0.000000 1.000000
vt 1.000000 1.000000
vt 1.000000 0.666667
vt -0.000000 0.666667
vt 0.666667 1.000000
vt 1.000000 1.000000
vt 1.000000 0.666667
vt 0.666667 0.666667
vt 0.000000 1.000000
vt 0.333333 1.000000
vt 0.333333 0.666667
vt 0.000000 0.666667
vt 1.000000 1.000000
vt 0.666667 0.666667
vt -0.000000 1.000000
vt 0.333333 1.000000
vt 0.333334 0.000000
vt 0.000000 -0.000000
vt 1.000000 0.333333
vt -0.000000 0.333333
vt 0.000000 -0.000001
vt -0.000000 0.999999
vt 0.333333 1.000000
vt 0.333333 -0.000000
vt 1.000000 1.000000
vt 1.000000 -0.000000
vt 0.333334 0.000000
vt 0.000000 0.000000
vt 0.333333 1.000000
vt 0.666666 1.000000
vt 0.666667 0.000000
vt 0.333334 0.000000
vt 1.000000 0.333333
vt 0.666667 0.333333
vt 0.666667 0.333333
vt 0.000000 1.000000
vt 0.000000 0.333333
vt 0.333333 0.333333
vt 1.000000 1.000000
vt 1.000000 0.000000
vt 0.666667 0.000000
vt 1.000000 0.000000
vt 0.000000 0.000000
vt 1.000000 0.000000
vt -0.000000 0.000000
vt 0.666667 0.000000
s 0
f 4/1/1 11/2/1 17/3/1 15/4/1
f 3/5/2 1/6/2 6/7/2 5/8/2
f 8/9/1 3/10/1 5/11/1 12/12/1
f 1/13/3 7/14/3 9/15/3 6/16/3
f 7/14/3 2/17/3 10/18/3 9/15/3
f 4/1/1 8/9/1 12/12/1 11/2/1
f 6/19/4 9/20/4 12/21/4 5/22/4
f 12/8/2 9/7/2 16/23/2 18/24/2
f 1/25/5 3/26/5 8/27/5 7/28/5
f 7/28/5 8/27/5 4/29/5 2/30/5
f 15/4/1 17/3/1 22/31/1 21/32/1
f 16/33/4 13/34/4 17/35/4 18/36/4
f 10/18/3 2/17/3 14/37/3 13/38/3
f 11/2/1 12/12/1 18/39/1 17/3/1
f 2/40/6 4/17/6 15/37/6 14/41/6
f 9/15/3 10/18/3 13/38/3 16/42/3
f 19/34/4 20/43/4 21/44/4 22/45/4
f 14/41/6 15/37/6 21/46/6 20/47/6
f 17/24/2 13/23/2 19/48/2 22/49/2
f 13/38/3 14/37/3 20/46/3 19/50/3
