# Blender 5.1.0
# www.blender.org
o QuarterRoofFirstGeometry
v 0.000000 0.000000 1.000000
v 1.000000 0.000000 1.000000
v 0.000000 0.000000 0.000000
v 1.000000 0.000000 0.000000
v 0.000000 0.125000 0.500000
v 1.000000 0.125000 0.500000
vn -0.0000 -1.0000 -0.0000
vn -0.0000 0.9701 -0.2425
vn -1.0000 -0.0000 -0.0000
vn -0.0000 0.9701 0.2425
vn 1.0000 -0.0000 -0.0000
vt 0.000000 0.000000
vt 0.000000 1.000000
vt 1.000000 1.000000
vt 1.000000 0.000000
vt 1.000000 0.500000
vt 0.000000 0.500000
vt 0.500000 0.875000
vt 0.000000 1.000000
vt 1.000000 1.000000
vt 1.000000 0.500000
vt 0.000000 0.500000
s 0
f 1/1/1 3/2/1 4/3/1 2/4/1
f 5/5/2 6/6/2 4/2/2 3/3/2
f 3/2/3 1/3/3 5/7/3
f 1/8/4 2/9/4 6/10/4 5/11/4
f 2/2/5 4/3/5 6/7/5
