# Blender 5.0.0
# www.blender.org
o LayerGeometry
v 0.000000 0.000000 1.000000
v 1.000000 0.000000 1.000000
v 0.000000 0.000000 0.000000
v 1.000000 0.000000 0.000000
v 0.000000 0.062500 0.000000
v 0.000000 0.062500 1.000000
v 1.000000 0.062500 1.000000
v 1.000000 0.062500 0.000000
vn -0.0000 -1.0000 -0.0000
vn -0.0000 1.0000 -0.0000
vn -0.0000 -0.0000 -1.0000
vn -0.0000 -0.0000 1.0000
vn 1.0000 -0.0000 -0.0000
vn -1.0000 -0.0000 -0.0000
vt 0.000000 -0.000001
vt -0.000000 0.999999
vt 1.000000 1.000000
vt 1.000000 -0.000000
vt -0.000000 1.000000
vt 1.000000 1.000000
vt 1.000000 0.000000
vt 0.000000 -0.000000
vt 0.000000 1.000000
vt 1.000000 1.000000
vt 1.000000 0.937500
vt 0.000000 0.937500
vt 0.000000 1.000000
vt 1.000000 1.000000
vt 1.000000 0.937500
vt 0.000000 0.937500
vt 0.000000 1.000000
vt 0.000000 0.937500
vt -0.000000 1.000000
vt 1.000000 1.000000
vt 1.000000 0.937500
vt -0.000000 0.937500
s 0
f 1/1/1 3/2/1 4/3/1 2/4/1
f 6/5/2 7/6/2 8/7/2 5/8/2
f 4/9/3 3/10/3 5/11/3 8/12/3
f 1/13/4 2/14/4 7/15/4 6/16/4
f 2/17/5 4/14/5 8/15/5 7/18/5
f 3/19/6 1/20/6 6/21/6 5/22/6
