# Blender 5.0.0
# www.blender.org
o HalfCornerInnerTopGeometry
v 0.000000 0.500000 0.000000
v 1.000000 0.500000 0.000000
v 1.000000 0.500000 1.000000
v 0.000000 0.500000 1.000000
v 1.000000 1.000000 -0.000000
v 1.000000 1.000000 1.000000
v 0.000000 1.000000 -0.000000
v 0.000000 0.000000 0.000000
v 0.000000 0.000000 1.000000
v 1.000000 0.000000 0.000000
v 1.000000 0.000000 1.000000
vn 1.0000 -0.0000 -0.0000
vn -1.0000 -0.0000 -0.0000
vn -0.0000 -0.0000 -1.0000
vn -0.0000 -0.0000 1.0000
vn -0.4472 0.8944 -0.0000
vn -0.0000 0.8944 0.4472
vn -0.0000 -1.0000 -0.0000
vt 1.000000 0.500000
vt 0.000000 0.500000
vt 0.000000 1.000000
vt 1.000000 1.000000
vt 1.000000 0.000000
vt 0.000000 0.000000
vt -0.000000 0.000000
s 0
f 2/1/1 3/2/1 11/3/1 10/4/1
f 2/1/1 5/5/1 6/6/1 3/2/1
f 4/1/2 7/6/2 1/2/2
f 1/1/3 7/5/3 5/6/3 2/2/3
f 4/2/4 3/1/4 6/5/4
f 5/6/5 4/4/5 6/5/5
f 7/7/6 4/3/6 5/5/6
f 8/3/7 10/4/7 11/5/7 9/6/7
f 4/1/2 1/2/2 8/3/2 9/4/2
f 3/1/4 4/2/4 9/3/4 11/4/4
f 1/1/3 2/2/3 10/3/3 8/4/3
