# Blender 5.0.0
# www.blender.org
o HalfRoofEndTopGeometry
v 0.000000 0.500000 1.000000
v 1.000000 0.500000 1.000000
v 0.000000 0.500000 0.000000
v 1.000000 0.500000 0.000000
v 0.500000 0.750000 0.500000
v 1.000000 0.750000 0.500000
v 0.000000 0.000000 0.000000
v 0.000000 0.000000 1.000000
v 1.000000 0.000000 1.000000
v 1.000000 0.000000 0.000000
vn 1.0000 -0.0000 -0.0000
vn -0.4472 0.8944 -0.0000
vn -0.0000 0.8944 -0.4472
vn -0.0000 0.8944 0.4472
vn -0.0000 -1.0000 -0.0000
vn -1.0000 -0.0000 -0.0000
vn -0.0000 -0.0000 -1.0000
vn -0.0000 -0.0000 1.0000
vt 1.000000 0.500000
vt 0.000000 0.500000
vt 0.000000 1.000000
vt 1.000000 1.000000
vt 1.000000 1.000000
vt 0.500000 0.500000
vt 0.500000 0.250000
vt 0.500000 0.500000
vt 0.000000 1.000000
vt 1.000000 0.500000
vt 0.000000 0.000000
vt 1.000000 0.000000
vt 0.000000 0.500000
s 0
f 4/1/1 2/2/1 9/3/1 10/4/1
f 3/3/2 1/5/2 5/6/2
f 2/2/1 4/1/1 6/7/1
f 3/4/3 5/6/3 6/2/3 4/3/3
f 5/8/4 1/9/4 2/5/4 6/10/4
f 8/11/5 7/3/5 10/4/5 9/12/5
f 1/1/6 3/2/6 7/3/6 8/4/6
f 3/1/7 4/2/7 10/3/7 7/4/7
f 2/1/8 1/13/8 8/9/8 9/4/8
