# Blender 5.0.0
# www.blender.org
o HalfCornerOuterTopGeometry
v 0.000000 0.500000 0.000000
v 1.000000 0.500000 0.000000
v 1.000000 0.500000 1.000000
v 0.000000 0.500000 1.000000
v 1.000000 1.000000 -0.000000
v 0.000000 0.000000 0.000000
v 0.000000 0.000000 1.000000
v 1.000000 0.000000 0.000000
v 1.000000 0.000000 1.000000
vn -0.0000 -0.0000 1.0000
vn 1.0000 -0.0000 -0.0000
vn -0.4472 0.8944 -0.0000
vn -0.0000 -0.0000 -1.0000
vn -0.0000 0.8944 0.4472
vn -0.0000 -1.0000 -0.0000
vn -1.0000 -0.0000 -0.0000
vt 1.000000 0.500000
vt 0.000000 0.500000
vt 0.000000 1.000000
vt 1.000000 1.000000
vt 1.000000 0.000000
vt 0.000000 0.500000
vt 0.000000 0.000000
vt 0.000000 1.000000
s 0
f 3/1/1 4/2/1 7/3/1 9/4/1
f 2/1/2 5/5/2 3/6/2
f 1/3/3 4/4/3 5/7/3
f 1/1/4 5/7/4 2/6/4
f 5/5/5 4/8/5 3/4/5
f 6/3/6 8/4/6 9/5/6 7/7/6
f 1/1/4 2/6/4 8/3/4 6/4/4
f 2/1/2 3/6/2 9/3/2 8/4/2
f 4/1/7 1/6/7 6/3/7 7/4/7
