# Generated from CEAC Java geometry.
# Geometry: HalfSlopeTopGeometry
o HalfSlopeTopGeometry

v 0 0.5 -0
v 0 0.5 1
v 1 0.5 1
v 1 0.5 -0
v 1 0.5 -0
v 1 1 -0
v 1 1 1
v 1 0.5 1
v 0 0.5 1
v 1 1 1
v 1 1 -0
v 0 0.5 -0
v 1 0.5 -0
v 1 0.5 1
v 0 0 0
v 1 0 0
v 1 0 1
v 0 0 1
v 1 0 1
v 1 0 0
v 0 0.5 1
v 0 0.5 -0
v 0 0 0
v 0 0 1
v 0 0 1
v 1 0 1
v 1 0 0
v 0 0 0

vt 0 1
vt 0 0.5
vt 1 0
vt 1 1
vt 1 0.5
vt 1 0
vt 0 0
vt 0 0.5
vt 1 1
vt 1 0
vt 0 0
vt 1 0.5
vt 0 0.5
vt 1 0.5
vt 0.0001 0.9999
vt 0.9999 0.9999
vt 0.9999 0.0001
vt 0.0001 0.0001
vt 0 1
vt 1 1
vt 1 0.5
vt 0 0.5
vt 0 1
vt 1 1
vt 0 1
vt 1 1
vt 0 1
vt 1 1

f 1/1 2/2 3/3 4/4

f 5/5 6/6 7/7 8/8

f 1/1 9/9 10/10 11/11

f 12/12 11/11 13/13

f 2/2 14/14 10/10

f 15/15 16/16 17/17 18/18

f 5/5 8/8 19/19 20/20

f 21/21 22/22 23/23 24/24

f 14/14 2/2 25/25 26/26

f 12/12 13/13 27/27 28/28

