# Blender 5.1.0
# www.blender.org
o QuarterCornerInnerThirdGeometry
v 0.000000 0.500000 0.000000
v 1.000000 0.500000 0.000000
v 1.000000 0.500000 1.000000
v 0.000000 0.500000 1.000000
v 1.000000 0.750000 0.000000
v 1.000000 0.750000 1.000000
v 0.000000 0.750000 0.000000
v 0.000000 0.250000 0.000000
v 0.000000 0.250000 1.000000
v 1.000000 0.250000 0.000000
v 1.000000 0.250000 1.000000
v 0.000000 0.000000 0.000000
v 0.000000 0.000000 1.000000
v 1.000000 0.000000 0.000000
v 1.000000 0.000000 1.000000
vn 1.0000 -0.0000 -0.0000
vn -1.0000 -0.0000 -0.0000
vn -0.0000 -0.0000 -1.0000
vn -0.0000 -0.0000 1.0000
vn -0.2425 0.9701 -0.0000
vn -0.0000 0.9701 0.2425
vn -0.0000 -1.0000 -0.0000
vt 1.000000 0.500000
vt 0.000000 0.500000
vt 0.000000 0.750000
vt 1.000000 0.750000
vt 1.000000 0.250000
vt 0.000000 0.250000
vt 0.000000 0.000000
vt 1.000000 1.000000
vt 1.000000 0.000000
vt -0.000000 0.000000
vt 0.000000 1.000000
s 0
f 2/1/1 3/2/1 11/3/1 10/4/1
f 2/1/1 5/5/1 6/6/1 3/2/1
f 4/1/2 7/6/2 1/2/2
f 1/1/3 7/5/3 5/6/3 2/2/3
f 4/2/4 3/1/4 6/5/4
f 5/7/5 4/8/5 6/9/5
f 7/10/6 4/11/6 5/9/6
f 11/4/4 9/3/4 13/11/4 15/8/4
f 4/1/2 1/2/2 8/3/2 9/4/2
f 3/1/4 4/2/4 9/3/4 11/4/4
f 1/1/3 2/2/3 10/3/3 8/4/3
f 12/11/7 14/8/7 15/9/7 13/7/7
f 8/4/3 10/3/3 14/11/3 12/8/3
f 10/4/1 11/3/1 15/11/1 14/8/1
f 9/4/2 8/3/2 12/11/2 13/8/2
