# Blender 5.1.0
# www.blender.org
o ThinCylinderTCrossGeometry
v 0.500000 0.250000 0.250000
v 0.595671 0.250000 0.269030
v 0.676777 0.250000 0.323223
v 0.730970 0.250000 0.404329
v 0.750000 0.250000 0.500000
v 0.730970 0.250000 0.595671
v 0.676777 0.250000 0.676777
v 0.595671 0.250000 0.730970
v 0.404329 0.250000 0.730970
v 0.323223 0.250000 0.676777
v 0.269030 0.250000 0.595671
v 0.250000 0.250000 0.500000
v 0.269030 0.250000 0.404329
v 0.323223 0.250000 0.323223
v 0.404329 0.250000 0.269030
v 0.323223 0.323223 0.676777
v 0.500000 0.250000 0.750000
v 0.595671 0.269030 0.750000
v 0.676777 0.323223 0.750000
v 0.730970 0.404329 0.750000
v 0.269030 0.404329 0.750000
v 0.323223 0.323223 0.750000
v 0.404329 0.269030 0.750000
v 0.500000 0.000000 0.250000
v 0.730970 0.404329 0.595671
v 0.269030 0.404329 0.595671
v 0.595671 0.269030 0.730970
v 0.404329 0.269030 0.730970
v 0.676777 0.323223 0.676777
v 0.500000 0.750000 0.250000
v 0.595671 0.750000 0.269030
v 0.676777 0.750000 0.323223
v 0.730970 0.750000 0.404329
v 0.750000 0.750000 0.500000
v 0.730970 0.750000 0.595671
v 0.676777 0.750000 0.676777
v 0.595671 0.750000 0.730970
v 0.404329 0.750000 0.730970
v 0.323223 0.750000 0.676777
v 0.269030 0.750000 0.595671
v 0.250000 0.750000 0.500000
v 0.269030 0.750000 0.404329
v 0.323223 0.750000 0.323223
v 0.404329 0.750000 0.269030
v 0.595671 0.500000 0.269030
v 0.500000 0.500000 0.250000
v 0.404329 0.500000 0.269030
v 0.323223 0.500000 0.323223
v 0.269030 0.500000 0.404329
v 0.250000 0.500000 0.500000
v 0.500000 1.000000 0.250000
v 0.750000 0.500000 0.500000
v 0.730970 0.500000 0.404329
v 0.323223 0.676777 0.676777
v 0.500000 0.750000 0.750000
v 0.595671 0.730970 0.750000
v 0.676777 0.676777 0.750000
v 0.730970 0.595671 0.750000
v 0.750000 0.500000 0.750000
v 0.250000 0.500000 0.750000
v 0.269030 0.595671 0.750000
v 0.323223 0.676777 0.750000
v 0.404329 0.730970 0.750000
v 0.730970 0.595671 0.595671
v 0.269030 0.595671 0.595671
v 0.595671 0.730970 0.730970
v 0.676777 0.500000 0.323223
v 0.404329 0.730970 0.730970
v 0.676777 0.676777 0.676777
v 0.500000 0.250000 1.000000
v 0.595671 0.269030 1.000000
v 0.676777 0.323223 1.000000
v 0.730970 0.404329 1.000000
v 0.269030 0.404329 1.000000
v 0.323223 0.323223 1.000000
v 0.404329 0.269030 1.000000
v 0.500000 0.750000 1.000000
v 0.595671 0.730970 1.000000
v 0.676777 0.676777 1.000000
v 0.730970 0.595671 1.000000
v 0.750000 0.500000 1.000000
v 0.250000 0.500000 1.000000
v 0.269030 0.595671 1.000000
v 0.323223 0.676777 1.000000
v 0.404329 0.730970 1.000000
v 0.500000 0.500000 1.000000
v 0.595671 1.000000 0.269030
v 0.676777 1.000000 0.323223
v 0.730970 1.000000 0.404329
v 0.750000 1.000000 0.500000
v 0.730970 1.000000 0.595671
v 0.676777 1.000000 0.676777
v 0.595671 1.000000 0.730970
v 0.404329 1.000000 0.730970
v 0.323223 1.000000 0.676777
v 0.269030 1.000000 0.595671
v 0.250000 1.000000 0.500000
v 0.269030 1.000000 0.404329
v 0.323223 1.000000 0.323223
v 0.404329 1.000000 0.269030
v 0.500000 1.000000 0.750000
v 0.500000 1.000000 0.500000
v 0.595671 0.000000 0.269030
v 0.676777 0.000000 0.323223
v 0.730970 0.000000 0.404329
v 0.750000 0.000000 0.500000
v 0.730970 0.000000 0.595671
v 0.676777 0.000000 0.676777
v 0.595671 0.000000 0.730970
v 0.404329 0.000000 0.730970
v 0.323223 0.000000 0.676777
v 0.269030 0.000000 0.595671
v 0.250000 0.000000 0.500000
v 0.269030 0.000000 0.404329
v 0.323223 0.000000 0.323223
v 0.404329 0.000000 0.269030
v 0.500000 0.000000 0.750000
v 0.500000 0.000000 0.500000
vn -0.1951 -0.0000 -0.9808
vn -0.5556 -0.0000 -0.8315
vn -0.8315 -0.0000 -0.5556
vn -0.9808 -0.0000 -0.1951
vn -0.9808 -0.0000 0.1951
vn -0.8315 -0.0000 0.5556
vn -0.5556 -0.0000 0.8315
vn 0.1951 -0.0000 0.9808
vn 0.5556 -0.0000 0.8315
vn 0.8315 -0.0000 0.5556
vn 0.9808 -0.0000 0.1951
vn 0.9808 -0.0000 -0.1951
vn 0.8315 -0.0000 -0.5556
vn 0.5556 -0.0000 -0.8315
vn 0.1951 -0.0000 -0.9808
vn -0.1951 -0.9808 -0.0000
vn -0.5556 -0.8315 -0.0000
vn -0.8315 -0.5556 -0.0000
vn -0.9808 -0.1951 -0.0000
vn 0.9808 -0.1951 -0.0000
vn 0.8315 -0.5556 -0.0000
vn 0.5556 -0.8315 -0.0000
vn 0.8315 0.5556 -0.0000
vn -0.1951 -0.0000 0.9808
vn 0.1951 -0.9808 -0.0000
vn -0.1951 0.9808 -0.0000
vn -0.5556 0.8315 -0.0000
vn -0.8315 0.5556 -0.0000
vn -0.9808 0.1951 -0.0000
vn 0.9808 0.1951 -0.0000
vn 0.5556 0.8315 -0.0000
vn 0.1951 0.9808 -0.0000
vn -0.0000 -0.0000 1.0000
vn -0.0000 1.0000 -0.0000
vn -0.0000 -1.0000 -0.0000
vt 0.595671 0.750000
vt 0.595671 0.500000
vt 0.500000 0.500000
vt 0.500000 0.750000
vt 0.676777 0.750000
vt 0.676777 0.500000
vt 0.404329 0.750000
vt 0.404329 0.500000
vt 0.323223 0.500000
vt 0.323223 0.750000
vt 0.500000 0.750000
vt 0.500000 0.500000
vt 0.595671 0.750000
vt 0.595671 0.595671
vt 0.676777 0.750000
vt 0.676777 0.676777
vt 0.404329 0.750000
vt 0.404329 0.730970
vt 0.323223 0.676777
vt 0.323223 0.750000
vt 0.595671 0.750000
vt 0.595671 0.730970
vt 0.500000 0.750000
vt 0.676777 0.750000
vt 0.676777 0.676777
vt 0.404329 0.595671
vt 0.323223 0.676777
vt 0.323223 0.750000
vt 0.500000 0.500000
vt 0.595671 0.750000
vt 0.595671 0.500000
vt 0.676777 0.750000
vt 0.676777 0.500000
vt 0.404329 0.750000
vt 0.404329 0.500000
vt 0.323224 0.500000
vt 0.323224 0.750000
vt 0.404329 0.249999
vt 0.404329 0.269029
vt 0.500000 0.249999
vt 0.323223 0.249999
vt 0.323223 0.323223
vt 0.750000 0.595671
vt 0.750000 0.676777
vt 0.750000 0.500000
vt 0.250000 0.595671
vt 0.250000 0.500000
vt 0.250000 0.676777
vt 0.595671 0.249999
vt 0.595671 0.269029
vt 0.676777 0.323223
vt 0.676777 0.249999
vt 0.500000 -0.000000
vt 0.404329 -0.000001
vt 0.000000 0.500000
vt 0.000000 0.595671
vt 0.250000 0.323223
vt 0.000000 0.323223
vt 0.000000 0.404329
vt 0.250000 0.404329
vt 0.323223 -0.000001
vt 0.595671 0.250000
vt 0.500000 0.250000
vt 0.676777 0.250000
vt 0.404329 0.250000
vt 0.323223 0.250000
vt 0.500000 0.250000
vt 0.595671 0.250000
vt 0.595671 0.404329
vt 0.676777 0.250000
vt 0.676777 0.323223
vt 0.404329 0.250000
vt 0.323223 0.250000
vt 0.323223 0.323223
vt 0.404329 0.269030
vt 0.595671 0.250000
vt 0.500000 0.250000
vt 0.595671 0.269030
vt 0.676777 0.250000
vt 0.676777 0.323223
vt 0.323223 0.250000
vt 0.323223 0.323223
vt 0.404329 0.404329
vt 0.595671 0.250000
vt 0.676777 0.250000
vt 0.404329 0.250000
vt 0.323224 0.250000
vt 0.595671 0.000000
vt 0.500000 0.000000
vt 0.500000 0.000000
vt 0.404329 0.000000
vt 0.676777 0.000000
vt 0.595671 0.000000
vt 0.404329 0.000000
vt 0.323224 0.000000
vt 0.676777 0.000000
vt 0.500000 0.000000
vt 0.404329 0.000000
vt 0.404329 0.750000
vt 0.500000 0.750000
vt 0.404329 0.730970
vt 0.323223 0.750000
vt 0.323223 0.676777
vt 0.750000 0.404329
vt 0.750000 0.323223
vt 0.595671 0.750000
vt 0.676777 0.750000
vt 0.676777 0.676777
vt 0.595671 0.730970
vt 0.595671 1.000000
vt 0.676776 1.000000
vt 1.000000 0.676777
vt 1.000000 0.595671
vt 0.500000 1.000000
vt 0.404329 1.000000
vt 0.750000 0.500000
vt 0.730970 0.595671
vt 0.269030 0.595671
vt 0.323223 0.323223
vt 0.730970 0.404329
vt 0.676777 0.323223
vt 0.269030 0.404329
vt 1.000000 0.500000
vt 1.000000 0.404329
vt 0.595671 -0.000001
vt 1.000000 0.323223
vt 0.676777 -0.000001
vt 0.323223 1.000000
vt 0.000000 0.676777
vt 0.500000 0.250000
vt 0.404329 0.269030
vt 0.323223 0.323223
vt 0.500000 0.500000
vt 0.676777 0.676777
vt 0.750000 0.500000
vt 0.730970 0.404329
vt 0.676777 0.323223
vt 0.250000 0.500000
vt 0.269030 0.595671
vt 0.323223 0.676777
vt 0.730970 0.595671
vt 0.269030 0.404329
vt 0.404329 0.730970
vt 0.595671 0.269030
vt 0.323223 0.000000
vt 0.676777 0.000000
vt 0.595671 0.000000
vt 0.323223 0.000000
vt 0.676777 0.000000
vt 0.595671 0.000000
vt 0.323223 0.000000
vt 0.595671 1.000000
vt 0.676777 1.000000
vt 0.500000 1.000000
vt 0.595671 1.000000
vt 0.404329 1.000000
vt 0.500000 1.000000
vt 0.323224 1.000000
vt 0.404329 1.000000
vt 0.676777 1.000000
vt 0.595671 1.000000
vt 0.500000 1.000000
vt 0.323223 1.000000
vt 0.500000 0.750000
vt 0.500000 0.500000
vt 0.323223 0.676776
vt 0.404329 0.730969
vt 0.500000 0.250000
vt 0.676777 0.323223
vt 0.595671 0.269030
vt 0.750000 0.500000
vt 0.676777 0.676776
vt 0.730970 0.595670
vt 0.250000 0.500000
vt 0.323223 0.323223
vt 0.269030 0.404329
vt 0.730970 0.404329
vt 0.269030 0.595670
vt 0.404329 0.269030
vt 0.595671 0.730969
vt 0.404329 1.000000
vt 0.323223 1.000000
vt 0.595671 1.000000
vt 0.676777 1.000000
vt 0.323223 1.000000
vt 0.676777 1.000000
s 0
f 15/1/1 47/2/1 46/3/1 1/4/1
f 14/5/2 48/6/2 47/2/2 15/1/2
f 13/7/3 49/8/3 48/9/3 14/10/3
f 12/11/4 50/12/4 49/8/4 13/7/4
f 11/13/5 26/14/5 50/12/5 12/11/5
f 10/15/6 16/16/6 26/14/6 11/13/6
f 9/17/7 28/18/7 16/19/7 10/20/7
f 8/21/8 27/22/8 17/23/8
f 7/24/9 29/25/9 27/22/9 8/21/9
f 6/17/10 25/26/10 29/27/10 7/28/10
f 5/23/11 52/29/11 25/26/11 6/17/11
f 4/30/12 53/31/12 52/29/12 5/23/12
f 3/32/13 67/33/13 53/31/13 4/30/13
f 2/34/14 45/35/14 67/36/14 3/37/14
f 1/4/15 46/3/15 45/35/15 2/34/15
f 23/38/16 28/39/16 17/40/16
f 22/41/17 16/42/17 28/39/17 23/38/17
f 21/43/18 26/14/18 16/16/18 22/44/18
f 60/45/19 50/12/19 26/14/19 21/43/19
f 20/46/20 25/26/20 52/29/20 59/47/20
f 19/48/21 29/27/21 25/26/21 20/46/21
f 18/49/22 27/50/22 29/51/22 19/52/22
f 23/38/16 17/40/16 70/53/16 76/54/16
f 20/46/20 59/47/20 81/55/20 73/56/20
f 57/57/23 79/58/23 80/59/23 58/60/23
f 22/41/17 23/38/17 76/54/17 75/61/17
f 28/18/24 9/17/24 17/23/24
f 27/50/25 18/49/25 17/40/25
f 44/62/1 30/63/1 46/3/1 47/2/1
f 43/64/2 44/62/2 47/2/2 48/6/2
f 42/65/3 43/66/3 48/9/3 49/8/3
f 41/67/4 42/65/4 49/8/4 50/12/4
f 40/68/5 41/67/5 50/12/5 65/69/5
f 39/70/6 40/68/6 65/69/6 54/71/6
f 38/72/7 39/73/7 54/74/7 68/75/7
f 37/76/8 55/77/8 66/78/8
f 36/79/9 37/76/9 66/78/9 69/80/9
f 35/72/10 36/81/10 69/82/10 64/83/10
f 34/77/11 35/72/11 64/83/11 52/29/11
f 33/84/12 34/77/12 52/29/12 53/31/12
f 32/85/13 33/84/13 53/31/13 67/33/13
f 31/86/14 32/87/14 67/36/14 45/35/14
f 30/63/15 31/86/15 45/35/15 46/3/15
f 33/84/12 89/88/12 90/89/12 34/77/12
f 41/67/4 97/90/4 98/91/4 42/65/4
f 32/85/13 88/92/13 89/88/13 33/84/13
f 40/68/5 96/93/5 97/90/5 41/67/5
f 31/86/14 87/94/14 88/95/14 32/87/14
f 39/70/6 95/96/6 96/93/6 40/68/6
f 30/63/15 51/97/15 87/94/15 31/86/15
f 55/77/24 101/89/24 94/98/24 38/72/24
f 63/99/26 55/100/26 68/101/26
f 62/102/27 63/99/27 68/101/27 54/103/27
f 61/104/28 62/105/28 54/71/28 65/69/28
f 60/45/29 61/104/29 65/69/29 50/12/29
f 58/60/30 59/47/30 52/29/30 64/83/30
f 57/57/23 58/60/23 64/83/23 69/82/23
f 56/106/31 57/107/31 69/108/31 66/109/31
f 56/106/31 78/110/31 79/111/31 57/107/31
f 21/43/18 22/44/18 75/112/18 74/113/18
f 55/100/32 77/114/32 78/110/32 56/106/32
f 63/99/26 85/115/26 77/114/26 55/100/26
f 68/75/24 55/77/24 38/72/24
f 66/109/32 55/100/32 56/106/32
f 70/23/33 86/29/33 75/19/33 76/18/33
f 81/116/33 86/29/33 72/25/33 73/117/33
f 75/19/33 86/29/33 82/47/33 74/118/33
f 72/25/33 86/29/33 70/23/33 71/22/33
f 77/77/33 85/75/33 84/119/33 86/29/33
f 81/116/33 80/120/33 79/121/33 86/29/33
f 84/119/33 83/122/33 82/47/33 86/29/33
f 79/121/33 78/78/33 77/77/33 86/29/33
f 58/60/30 80/59/30 81/55/30 59/47/30
f 60/45/19 21/43/19 74/113/19 82/123/19
f 60/45/29 82/123/29 83/124/29 61/104/29
f 17/40/25 18/49/25 71/125/25 70/53/25
f 61/104/28 83/124/28 84/126/28 62/105/28
f 18/49/22 19/52/22 72/127/22 71/125/22
f 62/102/27 84/128/27 85/115/27 63/99/27
f 19/48/21 20/46/21 73/56/21 72/129/21
f 51/130/34 100/131/34 99/132/34 102/133/34
f 101/100/34 93/109/34 92/134/34 102/133/34
f 90/135/34 89/136/34 88/137/34 102/133/34
f 97/138/34 96/139/34 95/140/34 102/133/34
f 92/134/34 91/141/34 90/135/34 102/133/34
f 99/132/34 98/142/34 97/138/34 102/133/34
f 95/140/34 94/143/34 101/100/34 102/133/34
f 88/137/34 87/144/34 51/130/34 102/133/34
f 42/65/3 98/91/3 99/145/3 43/66/3
f 34/77/11 90/89/11 91/98/11 35/72/11
f 43/64/2 99/146/2 100/147/2 44/62/2
f 35/72/10 91/98/10 92/148/10 36/81/10
f 44/62/1 100/147/1 51/97/1 30/63/1
f 36/79/9 92/149/9 93/150/9 37/76/9
f 37/76/8 93/150/8 101/89/8 55/77/8
f 38/72/7 94/98/7 95/151/7 39/73/7
f 3/32/13 4/30/13 105/152/13 104/153/13
f 11/13/5 12/11/5 113/154/5 112/155/5
f 17/23/24 9/17/24 110/156/24 117/157/24
f 2/34/14 3/37/14 104/158/14 103/159/14
f 10/15/6 11/13/6 112/155/6 111/160/6
f 8/21/8 17/23/8 117/157/8 109/161/8
f 1/4/15 2/34/15 103/159/15 24/162/15
f 9/17/7 10/20/7 111/163/7 110/156/7
f 24/164/35 118/165/35 115/166/35 116/167/35
f 117/168/35 118/165/35 108/169/35 109/170/35
f 106/171/35 118/165/35 104/172/35 105/173/35
f 113/174/35 118/165/35 111/175/35 112/176/35
f 108/169/35 118/165/35 106/171/35 107/177/35
f 115/166/35 118/165/35 113/174/35 114/178/35
f 111/175/35 118/165/35 117/168/35 110/179/35
f 104/172/35 118/165/35 24/164/35 103/180/35
f 12/11/4 13/7/4 114/181/4 113/154/4
f 4/30/12 5/23/12 106/157/12 105/152/12
f 13/7/3 14/10/3 115/182/3 114/181/3
f 5/23/11 6/17/11 107/156/11 106/157/11
f 14/5/2 15/1/2 116/183/2 115/184/2
f 6/17/10 7/28/10 108/185/10 107/156/10
f 15/1/1 1/4/1 24/162/1 116/183/1
f 7/24/9 8/21/9 109/161/9 108/186/9
