# Blender 5.1.0
# www.blender.org
o ThinCylinderEndGeometry
v 0.500000 0.000000 0.250000
v 0.595671 0.000000 0.269030
v 0.676777 0.000000 0.323223
v 0.730970 0.000000 0.404329
v 0.750000 0.000000 0.500000
v 0.730970 0.000000 0.595671
v 0.676777 0.000000 0.676777
v 0.595671 0.000000 0.730970
v 0.500000 0.000000 0.750000
v 0.404329 0.000000 0.730970
v 0.323223 0.000000 0.676777
v 0.269030 0.000000 0.595671
v 0.250000 0.000000 0.500000
v 0.269030 0.000000 0.404329
v 0.323223 0.000000 0.323223
v 0.404329 0.000000 0.269030
v 0.676777 0.750000 0.323223
v 0.595671 0.750000 0.269030
v 0.500000 0.750000 0.250000
v 0.404329 0.750000 0.269030
v 0.669251 0.822169 0.330749
v 0.584625 0.834625 0.280507
v 0.500000 0.838388 0.266146
v 0.415375 0.834625 0.280507
v 0.323223 0.750000 0.323223
v 0.269030 0.750000 0.404329
v 0.250000 0.750000 0.500000
v 0.269030 0.750000 0.595671
v 0.330749 0.822169 0.330749
v 0.280507 0.834625 0.415375
v 0.266146 0.838388 0.500000
v 0.280507 0.834625 0.584625
v 0.323223 0.750000 0.676777
v 0.404329 0.750000 0.730970
v 0.500000 0.750000 0.750000
v 0.595671 0.750000 0.730970
v 0.330749 0.822169 0.669251
v 0.415375 0.834625 0.719493
v 0.500000 0.838388 0.733854
v 0.584625 0.834625 0.719493
v 0.676777 0.750000 0.676777
v 0.730970 0.750000 0.595671
v 0.750000 0.750000 0.500000
v 0.730970 0.750000 0.404329
v 0.669251 0.822169 0.669251
v 0.719493 0.834625 0.584625
v 0.733854 0.838388 0.500000
v 0.719493 0.834625 0.415375
v 0.644338 0.894338 0.355662
v 0.572169 0.919251 0.330749
v 0.500000 0.926777 0.323223
v 0.427831 0.919251 0.330749
v 0.355662 0.894338 0.355662
v 0.669251 0.919251 0.427831
v 0.584625 0.969493 0.415375
v 0.500000 0.983854 0.411612
v 0.415375 0.969493 0.415375
v 0.330749 0.919251 0.427831
v 0.676777 0.926777 0.500000
v 0.588388 0.983854 0.500000
v 0.500000 1.000000 0.500000
v 0.411612 0.983854 0.500000
v 0.323223 0.926777 0.500000
v 0.669251 0.919251 0.572169
v 0.584625 0.969493 0.584625
v 0.500000 0.983854 0.588388
v 0.415375 0.969493 0.584625
v 0.330749 0.919251 0.572169
v 0.644338 0.894338 0.644338
v 0.572169 0.919251 0.669251
v 0.500000 0.926777 0.676777
v 0.427831 0.919251 0.669251
v 0.355662 0.894338 0.644338
v 0.500000 0.000000 0.500000
vn 0.5347 0.1638 -0.8290
vn 0.1829 0.1664 -0.9689
vn -0.1829 0.1664 -0.9689
vn -0.5347 0.1638 -0.8290
vn 0.4701 0.4701 -0.7470
vn 0.1546 0.5288 -0.8346
vn -0.1546 0.5288 -0.8346
vn -0.4701 0.4701 -0.7470
vn -0.8290 0.1638 -0.5347
vn -0.9689 0.1664 -0.1829
vn -0.9689 0.1664 0.1829
vn -0.8290 0.1638 0.5347
vn -0.7470 0.4701 -0.4701
vn -0.8346 0.5288 -0.1546
vn -0.8346 0.5288 0.1546
vn -0.7470 0.4701 0.4701
vn -0.5347 0.1638 0.8290
vn -0.1829 0.1664 0.9689
vn 0.1829 0.1664 0.9689
vn 0.5347 0.1638 0.8290
vn -0.4701 0.4701 0.7470
vn -0.1546 0.5288 0.8346
vn 0.1546 0.5288 0.8346
vn 0.4701 0.4701 0.7470
vn 0.8290 0.1638 0.5347
vn 0.9689 0.1664 0.1829
vn 0.9689 0.1664 -0.1829
vn 0.8290 0.1638 -0.5347
vn 0.7470 0.4701 0.4701
vn 0.8346 0.5288 0.1546
vn 0.8346 0.5288 -0.1546
vn 0.7470 0.4701 -0.4701
vn 0.4701 0.7470 -0.4701
vn 0.1546 0.8346 -0.5288
vn -0.1546 0.8346 -0.5288
vn -0.4701 0.7470 -0.4701
vn 0.5288 0.8346 -0.1546
vn 0.1747 0.9690 -0.1747
vn -0.1747 0.9690 -0.1747
vn -0.5288 0.8346 -0.1546
vn 0.5288 0.8346 0.1546
vn 0.1747 0.9690 0.1747
vn -0.1747 0.9690 0.1747
vn -0.5288 0.8346 0.1546
vn 0.4701 0.7470 0.4701
vn 0.1546 0.8346 0.5288
vn -0.1546 0.8346 0.5288
vn -0.4701 0.7470 0.4701
vn -0.1951 -0.0000 -0.9808
vn -0.5556 -0.0000 -0.8315
vn -0.8315 -0.0000 -0.5556
vn -0.9808 -0.0000 -0.1951
vn -0.9808 -0.0000 0.1951
vn -0.8315 -0.0000 0.5556
vn -0.5556 -0.0000 0.8315
vn -0.1951 -0.0000 0.9808
vn 0.1951 -0.0000 0.9808
vn 0.5556 -0.0000 0.8315
vn 0.8315 -0.0000 0.5556
vn 0.9808 -0.0000 0.1951
vn 0.9808 -0.0000 -0.1951
vn 0.8315 -0.0000 -0.5556
vn 0.5556 -0.0000 -0.8315
vn 0.1951 -0.0000 -0.9808
vn -0.0000 -1.0000 -0.0000
vt 0.323224 0.250000
vt 0.404329 0.250000
vt 0.415375 0.165375
vt 0.330750 0.177831
vt 0.500000 0.250000
vt 0.500000 0.161612
vt 0.595671 0.250000
vt 0.584626 0.165375
vt 0.676777 0.250000
vt 0.669251 0.177831
vt 0.427832 0.080749
vt 0.355663 0.105663
vt 0.500000 0.073223
vt 0.572169 0.080749
vt 0.644338 0.105663
vt 0.323223 0.250000
vt 0.404329 0.250000
vt 0.415375 0.165375
vt 0.330749 0.177831
vt 0.500000 0.250000
vt 0.500000 0.161612
vt 0.595671 0.250000
vt 0.584625 0.165375
vt 0.676777 0.250000
vt 0.669251 0.177831
vt 0.427831 0.080749
vt 0.355662 0.105663
vt 0.500000 0.073223
vt 0.572169 0.080749
vt 0.644337 0.105663
vt 0.323223 0.250000
vt 0.404329 0.250000
vt 0.415375 0.165375
vt 0.330749 0.177831
vt 0.500000 0.250000
vt 0.500000 0.161612
vt 0.595671 0.250000
vt 0.584625 0.165375
vt 0.676777 0.250000
vt 0.669251 0.177831
vt 0.427831 0.080749
vt 0.355662 0.105663
vt 0.500000 0.073223
vt 0.572169 0.080749
vt 0.644338 0.105663
vt 0.323223 0.250000
vt 0.415375 0.165375
vt 0.330749 0.177831
vt 0.595671 0.250000
vt 0.584625 0.165375
vt 0.676777 0.250000
vt 0.669251 0.177831
vt 0.427831 0.080749
vt 0.355663 0.105663
vt 0.500000 0.073223
vt 0.572169 0.080749
vt 0.644338 0.105663
vt 0.644338 0.355663
vt 0.572169 0.330749
vt 0.584625 0.415375
vt 0.669251 0.427831
vt 0.500000 0.323223
vt 0.500000 0.411612
vt 0.427831 0.330749
vt 0.415375 0.415375
vt 0.355662 0.355662
vt 0.330749 0.427831
vt 0.588388 0.500000
vt 0.676777 0.500000
vt 0.500000 0.500000
vt 0.411612 0.500000
vt 0.323223 0.500000
vt 0.584625 0.584625
vt 0.669251 0.572169
vt 0.500000 0.588388
vt 0.415375 0.584625
vt 0.330749 0.572169
vt 0.572169 0.669251
vt 0.644337 0.644338
vt 0.500000 0.676777
vt 0.427831 0.669251
vt 0.355662 0.644337
vt 0.595671 1.000000
vt 0.500000 1.000000
vt 0.676777 1.000000
vt 0.404329 1.000000
vt 0.323223 1.000000
vt 0.500000 1.000000
vt 0.595671 1.000000
vt 0.676777 1.000000
vt 0.404329 1.000000
vt 0.323223 1.000000
vt 0.500000 1.000000
vt 0.595671 1.000000
vt 0.676777 1.000000
vt 0.323223 1.000000
vt 0.595671 1.000000
vt 0.676777 1.000000
vt 0.404329 1.000000
vt 0.323224 1.000000
vt 0.500000 0.750000
vt 0.500000 0.500000
vt 0.323223 0.676776
vt 0.404329 0.730969
vt 0.500000 0.250000
vt 0.676777 0.323223
vt 0.595671 0.269030
vt 0.750000 0.500000
vt 0.676777 0.676776
vt 0.730970 0.595670
vt 0.250000 0.500000
vt 0.323223 0.323223
vt 0.269030 0.404329
vt 0.730970 0.404329
vt 0.269030 0.595670
vt 0.404329 0.269030
vt 0.595671 0.730969
s 0
f 17/1/1 18/2/1 22/3/1 21/4/1
f 18/2/2 19/5/2 23/6/2 22/3/2
f 19/5/3 20/7/3 24/8/3 23/6/3
f 20/7/4 25/9/4 29/10/4 24/8/4
f 21/4/5 22/3/5 50/11/5 49/12/5
f 22/3/6 23/6/6 51/13/6 50/11/6
f 23/6/7 24/8/7 52/14/7 51/13/7
f 24/8/8 29/10/8 53/15/8 52/14/8
f 25/16/9 26/17/9 30/18/9 29/19/9
f 26/17/10 27/20/10 31/21/10 30/18/10
f 27/20/11 28/22/11 32/23/11 31/21/11
f 28/22/12 33/24/12 37/25/12 32/23/12
f 29/19/13 30/18/13 58/26/13 53/27/13
f 30/18/14 31/21/14 63/28/14 58/26/14
f 31/21/15 32/23/15 68/29/15 63/28/15
f 32/23/16 37/25/16 73/30/16 68/29/16
f 33/31/17 34/32/17 38/33/17 37/34/17
f 34/32/18 35/35/18 39/36/18 38/33/18
f 35/35/19 36/37/19 40/38/19 39/36/19
f 36/37/20 41/39/20 45/40/20 40/38/20
f 37/34/21 38/33/21 72/41/21 73/42/21
f 38/33/22 39/36/22 71/43/22 72/41/22
f 39/36/23 40/38/23 70/44/23 71/43/23
f 40/38/24 45/40/24 69/45/24 70/44/24
f 41/46/25 42/32/25 46/47/25 45/48/25
f 42/32/26 43/35/26 47/36/26 46/47/26
f 43/35/27 44/49/27 48/50/27 47/36/27
f 44/49/28 17/51/28 21/52/28 48/50/28
f 45/48/29 46/47/29 64/53/29 69/54/29
f 46/47/30 47/36/30 59/55/30 64/53/30
f 47/36/31 48/50/31 54/56/31 59/55/31
f 48/50/32 21/52/32 49/57/32 54/56/32
f 49/58/33 50/59/33 55/60/33 54/61/33
f 50/59/34 51/62/34 56/63/34 55/60/34
f 51/62/35 52/64/35 57/65/35 56/63/35
f 52/64/36 53/66/36 58/67/36 57/65/36
f 54/61/37 55/60/37 60/68/37 59/69/37
f 55/60/38 56/63/38 61/70/38 60/68/38
f 56/63/39 57/65/39 62/71/39 61/70/39
f 57/65/40 58/67/40 63/72/40 62/71/40
f 59/69/41 60/68/41 65/73/41 64/74/41
f 60/68/42 61/70/42 66/75/42 65/73/42
f 61/70/43 62/71/43 67/76/43 66/75/43
f 62/71/44 63/72/44 68/77/44 67/76/44
f 64/74/45 65/73/45 70/78/45 69/79/45
f 65/73/46 66/75/46 71/80/46 70/78/46
f 66/75/47 67/76/47 72/81/47 71/80/47
f 67/76/48 68/77/48 73/82/48 72/81/48
f 16/83/49 20/7/49 19/5/49 1/84/49
f 15/85/50 25/9/50 20/7/50 16/83/50
f 14/86/51 26/17/51 25/16/51 15/87/51
f 13/88/52 27/20/52 26/17/52 14/86/52
f 12/89/53 28/22/53 27/20/53 13/88/53
f 11/90/54 33/24/54 28/22/54 12/89/54
f 10/91/55 34/32/55 33/31/55 11/92/55
f 9/93/56 35/35/56 34/32/56 10/91/56
f 8/94/57 36/37/57 35/35/57 9/93/57
f 7/95/58 41/39/58 36/37/58 8/94/58
f 6/91/59 42/32/59 41/46/59 7/96/59
f 5/93/60 43/35/60 42/32/60 6/91/60
f 4/97/61 44/49/61 43/35/61 5/93/61
f 3/98/62 17/51/62 44/49/62 4/97/62
f 2/99/63 18/2/63 17/1/63 3/100/63
f 1/84/64 19/5/64 18/2/64 2/99/64
f 1/101/65 74/102/65 15/103/65 16/104/65
f 9/105/65 74/102/65 7/106/65 8/107/65
f 5/108/65 74/102/65 3/109/65 4/110/65
f 13/111/65 74/102/65 11/112/65 12/113/65
f 7/106/65 74/102/65 5/108/65 6/114/65
f 15/103/65 74/102/65 13/111/65 14/115/65
f 11/112/65 74/102/65 9/105/65 10/116/65
f 3/109/65 74/102/65 1/101/65 2/117/65
