# Blender 5.1.0
# www.blender.org
o ThinCylinderBendGeometry
v 0.500000 0.250000 0.250000
v 0.595671 0.250000 0.269030
v 0.676777 0.250000 0.323223
v 0.730970 0.250000 0.404329
v 0.750000 0.250000 0.500000
v 0.730970 0.250000 0.595671
v 0.676777 0.250000 0.676777
v 0.595671 0.250000 0.730970
v 0.404329 0.250000 0.730970
v 0.323223 0.250000 0.676777
v 0.269030 0.250000 0.595671
v 0.250000 0.250000 0.500000
v 0.269030 0.250000 0.404329
v 0.323223 0.250000 0.323223
v 0.404329 0.250000 0.269030
v 0.595671 0.500000 0.269030
v 0.500000 0.500000 0.250000
v 0.404329 0.500000 0.269030
v 0.584625 0.584625 0.280507
v 0.500000 0.588388 0.266146
v 0.415375 0.584625 0.280507
v 0.323223 0.500000 0.323223
v 0.269030 0.500000 0.404329
v 0.250000 0.500000 0.500000
v 0.269030 0.595671 0.500000
v 0.500000 0.000000 0.250000
v 0.750000 0.500000 0.500000
v 0.730970 0.500000 0.404329
v 0.730970 0.595671 0.500000
v 0.719493 0.584625 0.415375
v 0.355662 0.644338 0.355662
v 0.669251 0.669251 0.427831
v 0.330749 0.669251 0.427831
v 0.676777 0.676777 0.500000
v 0.323223 0.676777 0.500000
v 0.323223 0.323223 0.676777
v 0.500000 0.250000 0.750000
v 0.595671 0.269030 0.750000
v 0.676777 0.323223 0.750000
v 0.730970 0.404329 0.750000
v 0.750000 0.500000 0.750000
v 0.730970 0.595671 0.750000
v 0.676777 0.676777 0.750000
v 0.595671 0.730970 0.750000
v 0.500000 0.750000 0.750000
v 0.404329 0.730970 0.750000
v 0.323223 0.676777 0.750000
v 0.269030 0.595671 0.750000
v 0.250000 0.500000 0.750000
v 0.269030 0.404329 0.750000
v 0.323223 0.323223 0.750000
v 0.404329 0.269030 0.750000
v 0.280507 0.584625 0.415375
v 0.730970 0.404329 0.595671
v 0.404329 0.730970 0.500000
v 0.500000 0.750000 0.500000
v 0.595671 0.730970 0.500000
v 0.415375 0.719493 0.415375
v 0.500000 0.733854 0.411612
v 0.584625 0.719493 0.415375
v 0.269030 0.404329 0.595671
v 0.595671 0.269030 0.730970
v 0.676777 0.500000 0.323223
v 0.404329 0.269030 0.730970
v 0.669251 0.572169 0.330749
v 0.330749 0.572169 0.330749
v 0.644338 0.644338 0.355662
v 0.572169 0.669251 0.330749
v 0.500000 0.676777 0.323223
v 0.427831 0.669251 0.330749
v 0.676777 0.323223 0.676777
v 0.500000 0.250000 1.000000
v 0.595671 0.269030 1.000000
v 0.676777 0.323223 1.000000
v 0.730970 0.404329 1.000000
v 0.750000 0.500000 1.000000
v 0.730970 0.595671 1.000000
v 0.676777 0.676777 1.000000
v 0.595671 0.730970 1.000000
v 0.500000 0.750000 1.000000
v 0.404329 0.730970 1.000000
v 0.323223 0.676777 1.000000
v 0.269030 0.595671 1.000000
v 0.250000 0.500000 1.000000
v 0.269030 0.404329 1.000000
v 0.323223 0.323223 1.000000
v 0.404329 0.269030 1.000000
v 0.500000 0.500000 1.000000
v 0.595671 0.000000 0.269030
v 0.676777 0.000000 0.323223
v 0.730970 0.000000 0.404329
v 0.750000 0.000000 0.500000
v 0.730970 0.000000 0.595671
v 0.676777 0.000000 0.676777
v 0.595671 0.000000 0.730970
v 0.404329 0.000000 0.730970
v 0.323223 0.000000 0.676777
v 0.269030 0.000000 0.595671
v 0.250000 0.000000 0.500000
v 0.269030 0.000000 0.404329
v 0.323223 0.000000 0.323223
v 0.404329 0.000000 0.269030
v 0.500000 0.000000 0.750000
v 0.500000 0.000000 0.500000
vn 0.5347 0.1638 -0.8290
vn 0.1829 0.1664 -0.9689
vn -0.1829 0.1664 -0.9689
vn -0.5347 0.1638 -0.8290
vn 0.4701 0.4701 -0.7470
vn 0.1546 0.5288 -0.8346
vn -0.1546 0.5288 -0.8346
vn -0.4701 0.4701 -0.7470
vn -0.8290 0.1638 -0.5347
vn -0.9690 0.1747 -0.1747
vn -0.7470 0.4701 -0.4701
vn -0.8290 0.5347 -0.1638
vn 0.9690 0.1747 -0.1747
vn 0.8290 0.1638 -0.5347
vn 0.8290 0.5347 -0.1638
vn 0.7470 0.4701 -0.4701
vn -0.1951 -0.0000 -0.9808
vn -0.5556 -0.0000 -0.8315
vn -0.8315 -0.0000 -0.5556
vn -0.9808 -0.0000 -0.1951
vn -0.9808 -0.0000 0.1951
vn -0.8315 -0.0000 0.5556
vn -0.5556 -0.0000 0.8315
vn 0.1951 -0.0000 0.9808
vn 0.5556 -0.0000 0.8315
vn 0.8315 -0.0000 0.5556
vn 0.9808 -0.0000 0.1951
vn 0.9808 -0.0000 -0.1951
vn 0.8315 -0.0000 -0.5556
vn 0.5556 -0.0000 -0.8315
vn 0.1951 -0.0000 -0.9808
vn -0.1951 -0.0000 0.9808
vn -0.5347 0.8290 -0.1638
vn -0.1829 0.9689 -0.1664
vn 0.1829 0.9689 -0.1664
vn 0.5347 0.8290 -0.1638
vn -0.4701 0.7470 -0.4701
vn -0.1546 0.8346 -0.5288
vn 0.1546 0.8346 -0.5288
vn 0.4701 0.7470 -0.4701
vn -0.1951 -0.9808 -0.0000
vn -0.5556 -0.8315 -0.0000
vn -0.8315 -0.5556 -0.0000
vn -0.9808 -0.1951 -0.0000
vn -0.9808 0.1951 -0.0000
vn -0.8315 0.5556 -0.0000
vn -0.5556 0.8315 -0.0000
vn -0.1951 0.9808 -0.0000
vn 0.1951 0.9808 -0.0000
vn 0.5556 0.8315 -0.0000
vn 0.8315 0.5556 -0.0000
vn 0.9808 0.1951 -0.0000
vn 0.9808 -0.1951 -0.0000
vn 0.8315 -0.5556 -0.0000
vn 0.5556 -0.8315 -0.0000
vn 0.1951 -0.9808 -0.0000
vn -0.0000 -0.0000 1.0000
vn -0.0000 -1.0000 -0.0000
vt 0.323224 0.500000
vt 0.404329 0.500000
vt 0.415375 0.415375
vt 0.330750 0.427831
vt 0.500000 0.500000
vt 0.500000 0.411612
vt 0.595671 0.500000
vt 0.584626 0.415375
vt 0.676777 0.500000
vt 0.669251 0.427831
vt 0.427832 0.330749
vt 0.355663 0.355663
vt 0.500000 0.323223
vt 0.572169 0.330749
vt 0.644338 0.355663
vt 0.323223 0.500000
vt 0.404329 0.500000
vt 0.415375 0.415375
vt 0.330749 0.427831
vt 0.500000 0.500000
vt 0.500000 0.404329
vt 0.427831 0.330749
vt 0.355662 0.355663
vt 0.500000 0.323223
vt 0.500000 0.500000
vt 0.595671 0.500000
vt 0.584625 0.415375
vt 0.500000 0.404329
vt 0.676777 0.500000
vt 0.669251 0.427831
vt 0.572169 0.330749
vt 0.500000 0.323223
vt 0.644338 0.355663
vt 0.595671 0.750000
vt 0.500000 0.750000
vt 0.676777 0.750000
vt 0.404329 0.750000
vt 0.323223 0.750000
vt 0.500000 0.750000
vt 0.595671 0.750000
vt 0.595671 0.595671
vt 0.676777 0.750000
vt 0.676777 0.676777
vt 0.404329 0.750000
vt 0.404329 0.730970
vt 0.323223 0.676777
vt 0.323223 0.750000
vt 0.595671 0.750000
vt 0.595671 0.730970
vt 0.500000 0.750000
vt 0.676777 0.750000
vt 0.676777 0.676777
vt 0.404329 0.595671
vt 0.323223 0.676777
vt 0.323223 0.750000
vt 0.595671 0.750000
vt 0.676777 0.750000
vt 0.404329 0.750000
vt 0.323224 0.750000
vt 0.595671 1.000000
vt 0.676777 1.000000
vt 0.500000 1.000000
vt 0.595671 1.000000
vt 0.404329 1.000000
vt 0.500000 1.000000
vt 0.323224 1.000000
vt 0.404329 1.000000
vt 0.676777 1.000000
vt 0.595671 1.000000
vt 0.500000 1.000000
vt 0.323223 1.000000
vt 0.323223 0.500000
vt 0.404329 0.500000
vt 0.415375 0.415375
vt 0.330749 0.427831
vt 0.500000 0.500000
vt 0.500000 0.411612
vt 0.595671 0.500000
vt 0.584625 0.415375
vt 0.676777 0.500000
vt 0.669251 0.427831
vt 0.427831 0.330749
vt 0.355662 0.355662
vt 0.500000 0.323223
vt 0.572169 0.330749
vt 0.644338 0.355663
vt 0.404329 0.249999
vt 0.404329 0.269029
vt 0.500000 0.249999
vt 0.323223 0.249999
vt 0.323223 0.323223
vt 0.750000 0.595671
vt 0.750000 0.676777
vt 0.750000 0.500000
vt 0.750000 0.404329
vt 0.750000 0.323223
vt 0.404329 0.750000
vt 0.323223 0.750000
vt 0.500000 0.750000
vt 0.595671 0.750000
vt 0.676777 0.750000
vt 0.250000 0.404329
vt 0.250000 0.323223
vt 0.250000 0.500000
vt 0.250000 0.595671
vt 0.250000 0.676777
vt 0.595671 0.249999
vt 0.595671 0.269029
vt 0.676777 0.323223
vt 0.676777 0.249999
vt 0.595671 -0.000001
vt 0.500000 -0.000000
vt 0.500000 1.000000
vt 0.595671 1.000000
vt 0.404329 -0.000001
vt 0.323223 -0.000001
vt 0.676776 1.000000
vt 1.000000 0.676777
vt 1.000000 0.595671
vt 0.000000 0.323223
vt 0.000000 0.404329
vt 1.000000 0.500000
vt 0.000000 0.500000
vt 0.500000 0.250000
vt 0.676777 0.323223
vt 0.595671 0.269030
vt 0.750000 0.500000
vt 0.730970 0.595671
vt 0.323223 0.323223
vt 0.269030 0.404329
vt 0.730970 0.404329
vt 0.269030 0.595671
vt 0.404329 0.269030
vt 0.404329 1.000000
vt 0.676777 -0.000001
vt 0.323223 1.000000
vt 0.000000 0.595671
vt 0.000000 0.676777
vt 1.000000 0.404329
vt 1.000000 0.323223
vt 0.500000 0.750000
vt 0.500000 0.500000
vt 0.323223 0.676776
vt 0.404329 0.730969
vt 0.500000 0.250000
vt 0.676777 0.323223
vt 0.595671 0.269030
vt 0.750000 0.500000
vt 0.676777 0.676776
vt 0.730970 0.595670
vt 0.250000 0.500000
vt 0.323223 0.323223
vt 0.269030 0.404329
vt 0.730970 0.404329
vt 0.269030 0.595670
vt 0.404329 0.269030
vt 0.595671 0.730969
vt 0.404329 1.000000
vt 0.323223 1.000000
vt 0.595671 1.000000
vt 0.676777 1.000000
vt 0.323223 1.000000
vt 0.676777 1.000000
s 0
f 63/1/1 16/2/1 19/3/1 65/4/1
f 16/2/2 17/5/2 20/6/2 19/3/2
f 17/5/3 18/7/3 21/8/3 20/6/3
f 18/7/4 22/9/4 66/10/4 21/8/4
f 65/4/5 19/3/5 68/11/5 67/12/5
f 19/3/6 20/6/6 69/13/6 68/11/6
f 20/6/7 21/8/7 70/14/7 69/13/7
f 21/8/8 66/10/8 31/15/8 70/14/8
f 22/16/9 23/17/9 53/18/9 66/19/9
f 23/17/10 24/20/10 25/21/10 53/18/10
f 66/19/11 53/18/11 33/22/11 31/23/11
f 53/18/12 25/21/12 35/24/12 33/22/12
f 27/25/13 28/26/13 30/27/13 29/28/13
f 28/26/14 63/29/14 65/30/14 30/27/14
f 29/28/15 30/27/15 32/31/15 34/32/15
f 30/27/16 65/30/16 67/33/16 32/31/16
f 15/34/17 18/7/17 17/5/17 1/35/17
f 14/36/18 22/9/18 18/7/18 15/34/18
f 13/37/19 23/17/19 22/16/19 14/38/19
f 12/39/20 24/20/20 23/17/20 13/37/20
f 11/40/21 61/41/21 24/20/21 12/39/21
f 10/42/22 36/43/22 61/41/22 11/40/22
f 9/44/23 64/45/23 36/46/23 10/47/23
f 8/48/24 62/49/24 37/50/24
f 7/51/25 71/52/25 62/49/25 8/48/25
f 6/44/26 54/53/26 71/54/26 7/55/26
f 5/50/27 27/25/27 54/53/27 6/44/27
f 4/56/28 28/26/28 27/25/28 5/50/28
f 3/57/29 63/29/29 28/26/29 4/56/29
f 2/58/30 16/2/30 63/1/30 3/59/30
f 1/35/31 17/5/31 16/2/31 2/58/31
f 3/57/29 4/56/29 91/60/29 90/61/29
f 11/40/21 12/39/21 99/62/21 98/63/21
f 37/50/32 9/44/32 96/64/32 103/65/32
f 2/58/30 3/59/30 90/66/30 89/67/30
f 10/42/22 11/40/22 98/63/22 97/68/22
f 8/48/24 37/50/24 103/65/24 95/69/24
f 1/35/31 2/58/31 89/67/31 26/70/31
f 9/44/23 10/47/23 97/71/23 96/64/23
f 35/72/33 55/73/33 58/74/33 33/75/33
f 55/73/34 56/76/34 59/77/34 58/74/34
f 56/76/35 57/78/35 60/79/35 59/77/35
f 57/78/36 34/80/36 32/81/36 60/79/36
f 33/75/37 58/74/37 70/82/37 31/83/37
f 58/74/38 59/77/38 69/84/38 70/82/38
f 59/77/39 60/79/39 68/85/39 69/84/39
f 60/79/40 32/81/40 67/86/40 68/85/40
f 52/87/41 64/88/41 37/89/41
f 51/90/42 36/91/42 64/88/42 52/87/42
f 50/92/43 61/41/43 36/43/43 51/93/43
f 49/94/44 24/20/44 61/41/44 50/92/44
f 48/95/45 25/21/45 24/20/45 49/94/45
f 47/96/46 35/24/46 25/21/46 48/95/46
f 46/97/47 55/73/47 35/72/47 47/98/47
f 45/99/48 56/76/48 55/73/48 46/97/48
f 44/100/49 57/78/49 56/76/49 45/99/49
f 43/101/50 34/80/50 57/78/50 44/100/50
f 42/102/51 29/28/51 34/32/51 43/103/51
f 41/104/52 27/25/52 29/28/52 42/102/52
f 40/105/53 54/53/53 27/25/53 41/104/53
f 39/106/54 71/54/54 54/53/54 40/105/54
f 38/107/55 62/108/55 71/109/55 39/110/55
f 37/89/56 38/107/56 73/111/56 72/112/56
f 44/100/49 45/99/49 80/113/49 79/114/49
f 51/90/42 52/87/42 87/115/42 86/116/42
f 43/101/50 44/100/50 79/114/50 78/117/50
f 50/92/43 51/93/43 86/118/43 85/119/43
f 42/102/51 43/103/51 78/120/51 77/121/51
f 49/94/44 50/92/44 85/119/44 84/122/44
f 41/104/52 42/102/52 77/121/52 76/123/52
f 64/45/32 9/44/32 37/50/32
f 62/108/56 38/107/56 37/89/56
f 72/50/57 88/25/57 86/46/57 87/45/57
f 80/124/57 88/25/57 78/125/57 79/126/57
f 76/127/57 88/25/57 74/52/57 75/128/57
f 84/104/57 88/25/57 82/129/57 83/130/57
f 78/125/57 88/25/57 76/127/57 77/131/57
f 86/46/57 88/25/57 84/104/57 85/132/57
f 82/129/57 88/25/57 80/124/57 81/133/57
f 74/52/57 88/25/57 72/50/57 73/49/57
f 52/87/41 37/89/41 72/112/41 87/115/41
f 45/99/48 46/97/48 81/134/48 80/113/48
f 38/107/55 39/110/55 74/135/55 73/111/55
f 46/97/47 47/98/47 82/136/47 81/134/47
f 39/106/54 40/105/54 75/137/54 74/138/54
f 47/96/46 48/95/46 83/139/46 82/140/46
f 40/105/53 41/104/53 76/123/53 75/137/53
f 48/95/45 49/94/45 84/122/45 83/139/45
f 26/141/58 104/142/58 101/143/58 102/144/58
f 103/145/58 104/142/58 94/146/58 95/147/58
f 92/148/58 104/142/58 90/149/58 91/150/58
f 99/151/58 104/142/58 97/152/58 98/153/58
f 94/146/58 104/142/58 92/148/58 93/154/58
f 101/143/58 104/142/58 99/151/58 100/155/58
f 97/152/58 104/142/58 103/145/58 96/156/58
f 90/149/58 104/142/58 26/141/58 89/157/58
f 12/39/20 13/37/20 100/158/20 99/62/20
f 4/56/28 5/50/28 92/65/28 91/60/28
f 13/37/19 14/38/19 101/159/19 100/158/19
f 5/50/27 6/44/27 93/64/27 92/65/27
f 14/36/18 15/34/18 102/160/18 101/161/18
f 6/44/26 7/55/26 94/162/26 93/64/26
f 15/34/17 1/35/17 26/70/17 102/160/17
f 7/51/25 8/48/25 95/69/25 94/163/25
