# Blender 5.1.0
# www.blender.org
o ThinCylinderGeometry
v 0.500000 0.000000 0.250000
v 0.500000 1.000000 0.250000
v 0.595671 0.000000 0.269030
v 0.595671 1.000000 0.269030
v 0.676777 0.000000 0.323223
v 0.676777 1.000000 0.323223
v 0.730970 0.000000 0.404329
v 0.730970 1.000000 0.404329
v 0.750000 0.000000 0.500000
v 0.750000 1.000000 0.500000
v 0.730970 0.000000 0.595671
v 0.730970 1.000000 0.595671
v 0.676777 0.000000 0.676777
v 0.676777 1.000000 0.676777
v 0.595671 0.000000 0.730970
v 0.595671 1.000000 0.730970
v 0.500000 0.000000 0.750000
v 0.500000 1.000000 0.750000
v 0.404329 0.000000 0.730970
v 0.404329 1.000000 0.730970
v 0.323223 0.000000 0.676777
v 0.323223 1.000000 0.676777
v 0.269030 0.000000 0.595671
v 0.269030 1.000000 0.595671
v 0.250000 0.000000 0.500000
v 0.250000 1.000000 0.500000
v 0.269030 0.000000 0.404329
v 0.269030 1.000000 0.404329
v 0.323223 0.000000 0.323223
v 0.323223 1.000000 0.323223
v 0.404329 0.000000 0.269030
v 0.404329 1.000000 0.269030
v 0.500000 1.000000 0.500000
v 0.500000 0.000000 0.500000
vn 0.1951 -0.0000 -0.9808
vn 0.5556 -0.0000 -0.8315
vn 0.8315 -0.0000 -0.5556
vn 0.9808 -0.0000 -0.1951
vn 0.9808 -0.0000 0.1951
vn 0.8315 -0.0000 0.5556
vn 0.5556 -0.0000 0.8315
vn 0.1951 -0.0000 0.9808
vn -0.1951 -0.0000 0.9808
vn -0.5556 -0.0000 0.8315
vn -0.8315 -0.0000 0.5556
vn -0.9808 -0.0000 0.1951
vn -0.9808 -0.0000 -0.1951
vn -0.8315 -0.0000 -0.5556
vn -0.0000 1.0000 -0.0000
vn -0.5556 -0.0000 -0.8315
vn -0.1951 -0.0000 -0.9808
vn -0.0000 -1.0000 -0.0000
vt 0.500000 1.000000
vt 0.500000 0.000000
vt 0.404329 0.000000
vt 0.404329 1.000000
vt 0.323224 0.000000
vt 0.323224 1.000000
vt 0.676777 1.000000
vt 0.676777 0.000000
vt 0.595671 0.000000
vt 0.595671 1.000000
vt 0.500000 0.000000
vt 0.500000 1.000000
vt 0.404329 0.000000
vt 0.404329 1.000000
vt 0.323223 0.000000
vt 0.323223 1.000000
vt 0.676777 1.000000
vt 0.676777 0.000000
vt 0.595671 0.000000
vt 0.595671 1.000000
vt 0.323223 0.000000
vt 0.323223 1.000000
vt 0.676777 1.000000
vt 0.676777 0.000000
vt 0.595671 0.000000
vt 0.595671 1.000000
vt 0.500000 0.000000
vt 0.500000 1.000000
vt 0.404329 0.000000
vt 0.404329 1.000000
vt 0.323223 0.000000
vt 0.323223 1.000000
vt 0.595671 0.269030
vt 0.500000 0.250000
vt 0.500000 0.500000
vt 0.676777 0.323223
vt 0.676777 1.000000
vt 0.676777 0.000000
vt 0.595671 0.000000
vt 0.595671 1.000000
vt 0.500000 0.750000
vt 0.500000 0.500000
vt 0.323223 0.676776
vt 0.404329 0.730969
vt 0.750000 0.500000
vt 0.676777 0.676777
vt 0.730970 0.595671
vt 0.404329 0.269030
vt 0.323223 0.323223
vt 0.500000 0.750000
vt 0.323223 0.676777
vt 0.404329 0.730970
vt 0.730970 0.404329
vt 0.250000 0.500000
vt 0.269030 0.595671
vt 0.595671 0.730970
vt 0.269030 0.404329
vt 0.250000 0.500000
vt 0.323223 0.323223
vt 0.269030 0.404329
vt 0.500000 0.250000
vt 0.676777 0.323223
vt 0.595671 0.269030
vt 0.676777 0.676776
vt 0.730970 0.595670
vt 0.750000 0.500000
vt 0.595671 0.730969
vt 0.404329 0.269030
vt 0.269030 0.595670
vt 0.730970 0.404329
s 0
f 1/1/1 2/2/1 4/3/1 3/4/1
f 3/4/2 4/3/2 6/5/2 5/6/2
f 5/7/3 6/8/3 8/9/3 7/10/3
f 7/10/4 8/9/4 10/11/4 9/12/4
f 9/12/5 10/11/5 12/13/5 11/14/5
f 11/14/6 12/13/6 14/15/6 13/16/6
f 13/17/7 14/18/7 16/19/7 15/20/7
f 15/20/8 16/19/8 18/11/8 17/12/8
f 17/12/9 18/11/9 20/13/9 19/14/9
f 19/14/10 20/13/10 22/21/10 21/22/10
f 21/23/11 22/24/11 24/25/11 23/26/11
f 23/26/12 24/25/12 26/27/12 25/28/12
f 25/28/13 26/27/13 28/29/13 27/30/13
f 27/30/14 28/29/14 30/31/14 29/32/14
f 4/33/15 2/34/15 33/35/15 6/36/15
f 29/37/16 30/38/16 32/39/16 31/40/16
f 31/40/17 32/39/17 2/2/17 1/1/17
f 1/41/18 34/42/18 29/43/18 31/44/18
f 10/45/15 33/35/15 14/46/15 12/47/15
f 33/35/15 2/34/15 32/48/15 30/49/15
f 18/50/15 33/35/15 22/51/15 20/52/15
f 6/36/15 33/35/15 10/45/15 8/53/15
f 22/51/15 33/35/15 26/54/15 24/55/15
f 14/46/15 33/35/15 18/50/15 16/56/15
f 30/49/15 28/57/15 26/54/15 33/35/15
f 25/58/18 34/42/18 21/59/18 23/60/18
f 17/61/18 34/42/18 13/62/18 15/63/18
f 34/42/18 5/64/18 7/65/18 9/66/18
f 5/64/18 34/42/18 1/41/18 3/67/18
f 21/59/18 34/42/18 17/61/18 19/68/18
f 29/43/18 34/42/18 25/58/18 27/69/18
f 13/62/18 34/42/18 9/66/18 11/70/18
