# Blender 5.0.0
# www.blender.org
o HalfCornerInnerBottomGeometry
v 0.000000 0.000000 0.000000
v 1.000000 0.000000 0.000000
v 1.000000 0.000000 1.000000
v 0.000000 0.000000 1.000000
v 1.000000 0.500000 -0.000000
v 1.000000 0.500000 1.000000
v 0.000000 0.500000 -0.000000
vn -0.0000 -1.0000 -0.0000
vn 1.0000 -0.0000 -0.0000
vn -1.0000 -0.0000 -0.0000
vn -0.0000 -0.0000 -1.0000
vn -0.0000 -0.0000 1.0000
vn -0.4472 0.8944 -0.0000
vn -0.0000 0.8944 0.4472
vt 0.000000 1.000000
vt 1.000000 1.000000
vt 1.000000 0.000000
vt 0.000000 0.000000
vt 1.000000 0.500000
vt 0.000000 0.500000
vt 0.000000 0.500000
vt 1.000000 0.500000
vt -0.000000 0.000000
s 0
f 1/1/1 2/2/1 3/3/1 4/4/1
f 2/2/2 5/5/2 6/6/2 3/1/2
f 4/2/3 7/7/3 1/1/3
f 1/2/4 7/8/4 5/6/4 2/1/4
f 4/1/5 3/2/5 6/5/5
f 5/4/6 4/2/6 6/3/6
f 7/9/7 4/1/7 5/3/7
