# Blender 5.0.0
# www.blender.org
o HalfRoofEndBottomGeometry
v 0.000000 0.000000 1.000000
v 1.000000 0.000000 1.000000
v 0.000000 0.000000 0.000000
v 1.000000 0.000000 0.000000
v 0.500000 0.250000 0.500000
v 1.000000 0.250000 0.500000
vn -0.0000 -1.0000 -0.0000
vn -0.4472 0.8944 -0.0000
vn 1.0000 -0.0000 -0.0000
vn -0.0000 0.8944 -0.4472
vn -0.0000 0.8944 0.4472
vt 0.000000 0.000000
vt 0.000000 1.000000
vt 1.000000 1.000000
vt 1.000000 0.000000
vt 1.000000 1.000000
vt 0.500000 0.500000
vt 0.500000 0.750000
vt 0.000000 0.500000
vt 0.500000 0.500000
vt 0.000000 1.000000
vt 1.000000 0.500000
s 0
f 1/1/1 3/2/1 4/3/1 2/4/1
f 3/2/2 1/5/2 5/6/2
f 2/2/3 4/5/3 6/7/3
f 3/3/4 5/6/4 6/8/4 4/2/4
f 5/9/5 1/10/5 2/5/5 6/11/5
